<?xml version="1.0" encoding="UTF-8" standalone="no"?>
<svg
   xmlns:dc="http://purl.org/dc/elements/1.1/"
   xmlns:cc="http://creativecommons.org/ns#"
   xmlns:rdf="http://www.w3.org/1999/02/22-rdf-syntax-ns#"
   xmlns:svg="http://www.w3.org/2000/svg"
   xmlns="http://www.w3.org/2000/svg"
   xmlns:sodipodi="http://sodipodi.sourceforge.net/DTD/sodipodi-0.dtd"
   xmlns:inkscape="http://www.inkscape.org/namespaces/inkscape"
   style="font-style:normal;font-weight:normal;font-size:12px;font-family:Dialog;color-interpolation:auto;fill:#000000;fill-opacity:1;stroke:#000000;stroke-width:1;stroke-linecap:square;stroke-linejoin:miter;stroke-miterlimit:10;stroke-dasharray:none;stroke-dashoffset:0;stroke-opacity:1;color-rendering:auto;image-rendering:auto;shape-rendering:auto;text-rendering:auto"
   width="330"
   height="300"
   version="1.1"
   id="svg253"
   sodipodi:docname="polar_doa_broad.svg"
   inkscape:version="0.92.2 (5c3e80d, 2017-08-06)">
  <metadata
     id="metadata257">
    <rdf:RDF>
      <cc:Work
         rdf:about="">
        <dc:format>image/svg+xml</dc:format>
        <dc:type
           rdf:resource="http://purl.org/dc/dcmitype/StillImage" />
        <dc:title></dc:title>
      </cc:Work>
    </rdf:RDF>
  </metadata>
  <sodipodi:namedview
     pagecolor="#ffffff"
     bordercolor="#666666"
     borderopacity="1"
     objecttolerance="10"
     gridtolerance="10"
     guidetolerance="10"
     inkscape:pageopacity="0"
     inkscape:pageshadow="2"
     inkscape:window-width="1600"
     inkscape:window-height="1137"
     id="namedview255"
     showgrid="false"
     inkscape:zoom="1.025"
     inkscape:cx="-7.6036154"
     inkscape:cy="116.89519"
     inkscape:window-x="1272"
     inkscape:window-y="-8"
     inkscape:window-maximized="1"
     inkscape:current-layer="svg253" />
  <!--Generated by the Batik Graphics2D SVG Generator-->
  <defs
     id="genericDefs">
    <clipPath
       clipPathUnits="userSpaceOnUse"
       id="clipPath1">
      <path
         inkscape:connector-curvature="0"
         d="M 0,0 H 400 V 300 H 0 Z"
         id="path3" />
    </clipPath>
    <clipPath
       clipPathUnits="userSpaceOnUse"
       id="clipPath1076">
      <path
         inkscape:connector-curvature="0"
         d="M 0,0 H 400 V 300 H 0 Z"
         id="path1074" />
    </clipPath>
    <clipPath
       clipPathUnits="userSpaceOnUse"
       id="clipPath1-6">
      <path
         inkscape:connector-curvature="0"
         d="M 0,0 H 400 V 300 H 0 Z"
         id="path3-1" />
    </clipPath>
    <clipPath
       clipPathUnits="userSpaceOnUse"
       id="clipPath1076-1">
      <path
         inkscape:connector-curvature="0"
         d="M 0,0 H 400 V 300 H 0 Z"
         id="path1074-5" />
    </clipPath>
    <clipPath
       clipPathUnits="userSpaceOnUse"
       id="clipPath1-9">
      <path
         inkscape:connector-curvature="0"
         d="M 0,0 H 400 V 300 H 0 Z"
         id="path3-7" />
    </clipPath>
    <clipPath
       clipPathUnits="userSpaceOnUse"
       id="clipPath1028">
      <path
         inkscape:connector-curvature="0"
         d="M 0,0 H 400 V 300 H 0 Z"
         id="path1026" />
    </clipPath>
  </defs>
  <flowRoot
     xml:space="preserve"
     id="flowRoot1170"
     style="font-style:normal;font-weight:normal;font-size:40px;line-height:1.25;font-family:sans-serif;letter-spacing:0px;word-spacing:0px;fill:#000000;fill-opacity:1;stroke:none"
     transform="translate(0,-120)"><flowRegion
       id="flowRegion1172"><rect
         id="rect1174"
         width="4.9596829"
         height="68.38755"
         x="143.33299"
         y="346.73441" /></flowRegion><flowPara
       id="flowPara1176" /></flowRoot>  <g
     style="font-style:normal;font-weight:normal;font-size:12px;font-family:Dialog;color-interpolation:auto;fill:#000000;fill-opacity:1;stroke:#000000;stroke-width:1;stroke-linecap:square;stroke-linejoin:miter;stroke-miterlimit:10;stroke-dasharray:none;stroke-dashoffset:0;stroke-opacity:1;color-rendering:auto;image-rendering:auto;shape-rendering:auto;text-rendering:auto"
     id="g203"
     transform="translate(-40.048781,0.7317043)">
    <defs
       id="defs1">
      <clipPath
         clipPathUnits="userSpaceOnUse"
         id="clipPath959">
        <path
           inkscape:connector-curvature="0"
           d="M 0,0 H 400 V 300 H 0 Z"
           id="path957" />
      </clipPath>
    </defs>
    <g
       style="fill:#ffffff;stroke:#ffffff"
       id="g9">
      <rect
         x="0"
         y="0"
         width="400"
         style="stroke:none"
         height="300"
         clip-path="url(#clipPath1-9)"
         id="rect7" />
    </g>
    <g
       style="color-interpolation:sRGB;fill:#ffffff;stroke:#ffffff;color-rendering:optimizeSpeed;image-rendering:optimizeSpeed;shape-rendering:crispEdges;text-rendering:optimizeSpeed"
       id="g171">
      <rect
         x="0"
         width="400"
         height="300"
         y="0"
         style="stroke:none"
         id="rect11" />
      <path
         inkscape:connector-curvature="0"
         style="stroke:none"
         d="m 207,144.5 h 122.5 l -0.3872,-9.7327 z"
         id="path13" />
      <path
         inkscape:connector-curvature="0"
         style="stroke:none"
         d="m 207,144.5 122.1128,-9.7327 -1.1593,-9.6711 z"
         id="path15" />
      <path
         inkscape:connector-curvature="0"
         style="stroke:none"
         d="m 207,144.5 120.9535,-19.4038 -1.924,-9.5484 z"
         id="path17" />
      <path
         inkscape:connector-curvature="0"
         style="stroke:none"
         d="m 207,144.5 119.0295,-28.9522 -2.6765,-9.3654 z"
         id="path19" />
      <path
         inkscape:connector-curvature="0"
         style="stroke:none"
         d="m 207,144.5 116.353,-38.3176 -3.4122,-9.1231 z"
         id="path21" />
      <path
         inkscape:connector-curvature="0"
         style="stroke:none"
         d="M 207,144.5 319.9408,97.0593 315.8146,88.2361 Z"
         id="path23" />
      <path
         inkscape:connector-curvature="0"
         style="stroke:none"
         d="M 207,144.5 315.8146,88.2361 311.0005,79.7686 Z"
         id="path25" />
      <path
         inkscape:connector-curvature="0"
         style="stroke:none"
         d="M 207,144.5 311.0005,79.7686 305.5288,71.7104 Z"
         id="path27" />
      <path
         inkscape:connector-curvature="0"
         style="stroke:none"
         d="m 207,144.5 98.5288,-72.7896 -6.0946,-7.598 z"
         id="path29" />
      <path
         inkscape:connector-curvature="0"
         style="stroke:none"
         d="m 207,144.5 92.4342,-80.3876 -6.679,-7.0898 z"
         id="path31" />
      <path
         inkscape:connector-curvature="0"
         style="stroke:none"
         d="M 207,144.5 292.7552,57.0226 285.534,50.4858 Z"
         id="path33" />
      <path
         inkscape:connector-curvature="0"
         style="stroke:none"
         d="m 207,144.5 78.534,-94.0142 -7.7177,-5.9423 z"
         id="path35" />
      <path
         inkscape:connector-curvature="0"
         style="stroke:none"
         d="m 207,144.5 70.8163,-99.9565 -8.1655,-5.3104 z"
         id="path37" />
      <path
         inkscape:connector-curvature="0"
         style="stroke:none"
         d="M 207,144.5 269.6508,39.2331 261.0893,34.5882 Z"
         id="path39" />
      <path
         inkscape:connector-curvature="0"
         style="stroke:none"
         d="M 207,144.5 261.0893,34.5882 252.1858,30.6383 Z"
         id="path41" />
      <path
         inkscape:connector-curvature="0"
         style="stroke:none"
         d="M 207,144.5 252.1858,30.6383 242.9967,27.4082 Z"
         id="path43" />
      <path
         inkscape:connector-curvature="0"
         style="stroke:none"
         d="M 207,144.5 242.9967,27.4082 233.5799,24.9184 Z"
         id="path45" />
      <path
         inkscape:connector-curvature="0"
         style="stroke:none"
         d="M 207,144.5 233.5799,24.9184 223.9951,23.1846 Z"
         id="path47" />
      <path
         inkscape:connector-curvature="0"
         style="stroke:none"
         d="M 207,144.5 223.9951,23.1846 214.3029,22.2179 Z"
         id="path49" />
      <path
         inkscape:connector-curvature="0"
         style="stroke:none"
         d="m 207,144.5 7.3029,-122.2821 -9.7385,-0.1937 z"
         id="path51" />
      <path
         inkscape:connector-curvature="0"
         style="stroke:none"
         d="m 207,144.5 -2.4356,-122.4758 -9.723,0.5807 z"
         id="path53" />
      <path
         inkscape:connector-curvature="0"
         style="stroke:none"
         d="M 207,144.5 194.8414,22.6049 185.1953,23.9562 Z"
         id="path55" />
      <path
         inkscape:connector-curvature="0"
         style="stroke:none"
         d="M 207,144.5 185.1953,23.9562 175.687,26.0697 Z"
         id="path57" />
      <path
         inkscape:connector-curvature="0"
         style="stroke:none"
         d="M 207,144.5 175.687,26.0697 166.3766,28.9319 Z"
         id="path59" />
      <path
         inkscape:connector-curvature="0"
         style="stroke:none"
         d="M 207,144.5 166.3766,28.9319 157.3232,32.5247 Z"
         id="path61" />
      <path
         inkscape:connector-curvature="0"
         style="stroke:none"
         d="M 207,144.5 157.3232,32.5247 148.5837,36.8255 Z"
         id="path63" />
      <path
         inkscape:connector-curvature="0"
         style="stroke:none"
         d="M 207,144.5 148.5837,36.8255 140.2136,41.8071 Z"
         id="path65" />
      <path
         inkscape:connector-curvature="0"
         style="stroke:none"
         d="M 207,144.5 140.2136,41.8071 132.2658,47.4379 Z"
         id="path67" />
      <path
         inkscape:connector-curvature="0"
         style="stroke:none"
         d="m 207,144.5 -74.7342,-97.0621 -7.4754,6.2445 z"
         id="path69" />
      <path
         inkscape:connector-curvature="0"
         style="stroke:none"
         d="M 207,144.5 124.7904,53.6824 117.8348,60.501 Z"
         id="path71" />
      <path
         inkscape:connector-curvature="0"
         style="stroke:none"
         d="M 207,144.5 117.8348,60.501 111.443,67.8508 Z"
         id="path73" />
      <path
         inkscape:connector-curvature="0"
         style="stroke:none"
         d="m 207,144.5 -95.557,-76.6492 -5.7877,7.8343 z"
         id="path75" />
      <path
         inkscape:connector-curvature="0"
         style="stroke:none"
         d="m 207,144.5 -101.3447,-68.8149 -5.147,8.2694 z"
         id="path77" />
      <path
         inkscape:connector-curvature="0"
         style="stroke:none"
         d="M 207,144.5 100.5083,83.9545 96.0346,92.6067 Z"
         id="path79" />
      <path
         inkscape:connector-curvature="0"
         style="stroke:none"
         d="M 207,144.5 96.0346,92.6067 l -3.7722,8.9802 z"
         id="path81" />
      <path
         inkscape:connector-curvature="0"
         style="stroke:none"
         d="M 207,144.5 92.2624,101.5869 89.2157,110.8385 Z"
         id="path83" />
      <path
         inkscape:connector-curvature="0"
         style="stroke:none"
         d="M 207,144.5 89.2157,110.8385 86.9136,120.3029 Z"
         id="path85" />
      <path
         inkscape:connector-curvature="0"
         style="stroke:none"
         d="M 207,144.5 86.9136,120.3029 85.3707,129.9203 Z"
         id="path87" />
      <path
         inkscape:connector-curvature="0"
         style="stroke:none"
         d="M 207,144.5 85.3707,129.9203 84.5968,139.6298 Z"
         id="path89" />
      <path
         inkscape:connector-curvature="0"
         style="stroke:none"
         d="M 207,144.5 84.5968,139.6298 v 9.7404 z"
         id="path91" />
      <path
         inkscape:connector-curvature="0"
         style="stroke:none"
         d="m 207,144.5 -122.4032,4.8702 0.7739,9.7095 z"
         id="path93" />
      <path
         inkscape:connector-curvature="0"
         style="stroke:none"
         d="m 207,144.5 -121.6293,14.5797 1.5429,9.6174 z"
         id="path95" />
      <path
         inkscape:connector-curvature="0"
         style="stroke:none"
         d="m 207,144.5 -120.0864,24.1971 2.3021,9.4644 z"
         id="path97" />
      <path
         inkscape:connector-curvature="0"
         style="stroke:none"
         d="m 207,144.5 -117.7843,33.6615 3.0467,9.2516 z"
         id="path99" />
      <path
         inkscape:connector-curvature="0"
         style="stroke:none"
         d="m 207,144.5 -114.7376,42.9131 3.7722,8.9802 z"
         id="path101" />
      <path
         inkscape:connector-curvature="0"
         style="stroke:none"
         d="m 207,144.5 -110.9654,51.8933 4.4737,8.6522 z"
         id="path103" />
      <path
         inkscape:connector-curvature="0"
         style="stroke:none"
         d="m 207,144.5 -106.4917,60.5455 5.147,8.2694 z"
         id="path105" />
      <path
         inkscape:connector-curvature="0"
         style="stroke:none"
         d="m 207,144.5 -101.3447,68.8149 5.7877,7.8343 z"
         id="path107" />
      <path
         inkscape:connector-curvature="0"
         style="stroke:none"
         d="m 207,144.5 -95.557,76.6492 6.3918,7.3498 z"
         id="path109" />
      <path
         inkscape:connector-curvature="0"
         style="stroke:none"
         d="m 207,144.5 -89.1652,83.999 6.9556,6.8186 z"
         id="path111" />
      <path
         inkscape:connector-curvature="0"
         style="stroke:none"
         d="m 207,144.5 -82.2096,90.8176 7.4754,6.2445 z"
         id="path113" />
      <path
         inkscape:connector-curvature="0"
         style="stroke:none"
         d="m 207,144.5 -74.7342,97.0621 7.9478,5.6308 z"
         id="path115" />
      <path
         inkscape:connector-curvature="0"
         style="stroke:none"
         d="m 207,144.5 -66.7864,102.6929 8.3701,4.9816 z"
         id="path117" />
      <path
         inkscape:connector-curvature="0"
         style="stroke:none"
         d="m 207,144.5 -58.4163,107.6745 8.7395,4.3008 z"
         id="path119" />
      <path
         inkscape:connector-curvature="0"
         style="stroke:none"
         d="m 207,144.5 -49.6768,111.9753 9.0534,3.5928 z"
         id="path121" />
      <path
         inkscape:connector-curvature="0"
         style="stroke:none"
         d="m 207,144.5 -40.6234,115.5681 9.3104,2.8622 z"
         id="path123" />
      <path
         inkscape:connector-curvature="0"
         style="stroke:none"
         d="m 207,144.5 -31.313,118.4303 9.5083,2.1135 z"
         id="path125" />
      <path
         inkscape:connector-curvature="0"
         style="stroke:none"
         d="m 207,144.5 -21.8047,120.5438 9.6461,1.3513 z"
         id="path127" />
      <path
         inkscape:connector-curvature="0"
         style="stroke:none"
         d="m 207,144.5 -12.1586,121.8951 9.723,0.5807 z"
         id="path129" />
      <path
         inkscape:connector-curvature="0"
         style="stroke:none"
         d="m 207,144.5 -2.4356,122.4758 9.7385,-0.1937 z"
         id="path131" />
      <path
         inkscape:connector-curvature="0"
         style="stroke:none"
         d="m 207,144.5 7.3029,122.2821 9.6922,-0.9667 z"
         id="path133" />
      <path
         inkscape:connector-curvature="0"
         style="stroke:none"
         d="m 207,144.5 16.9951,121.3154 9.5848,-1.7338 z"
         id="path135" />
      <path
         inkscape:connector-curvature="0"
         style="stroke:none"
         d="m 207,144.5 26.5799,119.5816 9.4168,-2.4898 z"
         id="path137" />
      <path
         inkscape:connector-curvature="0"
         style="stroke:none"
         d="m 207,144.5 35.9967,117.0918 9.1891,-3.2301 z"
         id="path139" />
      <path
         inkscape:connector-curvature="0"
         style="stroke:none"
         d="m 207,144.5 45.1858,113.8617 8.9035,-3.9499 z"
         id="path141" />
      <path
         inkscape:connector-curvature="0"
         style="stroke:none"
         d="m 207,144.5 54.0893,109.9118 8.5615,-4.6449 z"
         id="path143" />
      <path
         inkscape:connector-curvature="0"
         style="stroke:none"
         d="m 207,144.5 62.6508,105.2669 8.1655,-5.3104 z"
         id="path145" />
      <path
         inkscape:connector-curvature="0"
         style="stroke:none"
         d="m 207,144.5 70.8163,99.9565 7.7177,-5.9423 z"
         id="path147" />
      <path
         inkscape:connector-curvature="0"
         style="stroke:none"
         d="m 207,144.5 78.534,94.0142 7.2212,-6.5368 z"
         id="path149" />
      <path
         inkscape:connector-curvature="0"
         style="stroke:none"
         d="m 207,144.5 85.7552,87.4774 6.679,-7.0898 z"
         id="path151" />
      <path
         inkscape:connector-curvature="0"
         style="stroke:none"
         d="m 207,144.5 92.4342,80.3876 6.0946,-7.598 z"
         id="path153" />
      <path
         inkscape:connector-curvature="0"
         style="stroke:none"
         d="m 207,144.5 98.5288,72.7896 5.4717,-8.0582 z"
         id="path155" />
      <path
         inkscape:connector-curvature="0"
         style="stroke:none"
         d="m 207,144.5 104.0005,64.7314 4.8141,-8.4675 z"
         id="path157" />
      <path
         inkscape:connector-curvature="0"
         style="stroke:none"
         d="m 207,144.5 108.8146,56.2639 4.1262,-8.8232 z"
         id="path159" />
      <path
         inkscape:connector-curvature="0"
         style="stroke:none"
         d="m 207,144.5 112.9408,47.4407 3.4122,-9.1231 z"
         id="path161" />
      <path
         inkscape:connector-curvature="0"
         style="stroke:none"
         d="m 207,144.5 116.353,38.3176 2.6765,-9.3654 z"
         id="path163" />
      <path
         inkscape:connector-curvature="0"
         style="stroke:none"
         d="m 207,144.5 119.0295,28.9522 1.924,-9.5484 z"
         id="path165" />
      <path
         inkscape:connector-curvature="0"
         style="stroke:none"
         d="m 207,144.5 120.9535,19.4038 1.1593,-9.6711 z"
         id="path167" />
      <path
         inkscape:connector-curvature="0"
         style="stroke:none"
         d="M 207,144.5 329.1128,154.2327 329.5,144.5 Z"
         id="path169" />
    </g>
    <g
       style="color-interpolation:linearRGB;fill:#262626;fill-opacity:0.14900004;stroke:#262626;stroke-width:0.66670001;stroke-linecap:butt;stroke-linejoin:round;stroke-opacity:0.14900004;color-rendering:optimizeQuality;image-rendering:optimizeQuality;text-rendering:geometricPrecision"
       id="g197">
      <line
         y2="144.5"
         style="fill:none"
         x1="207"
         x2="329.5"
         y1="144.5"
         id="line173" />
      <line
         y2="57.879398"
         style="fill:none"
         x1="207"
         x2="293.62061"
         y1="144.5"
         id="line175" />
      <line
         y2="22"
         style="fill:none"
         x1="207"
         x2="207"
         y1="144.5"
         id="line177" />
      <line
         y2="57.879398"
         style="fill:none"
         x1="207"
         x2="120.3794"
         y1="144.5"
         id="line179" />
      <line
         y2="144.5"
         style="fill:none"
         x1="207"
         x2="84.5"
         y1="144.5"
         id="line181" />
      <line
         y2="231.12061"
         style="fill:none"
         x1="207"
         x2="120.3794"
         y1="144.5"
         id="line183" />
      <line
         y2="267"
         style="fill:none"
         x1="207"
         x2="207"
         y1="144.5"
         id="line185" />
      <line
         y2="231.12061"
         style="fill:none"
         x1="207"
         x2="293.62061"
         y1="144.5"
         id="line187" />
      <path
         inkscape:connector-curvature="0"
         d="m 207,144.5 v 0 0 0 0 0 0 0 0 0 0 0 0 0 0 0 0 0 0 0 0 0 0 0 0 0 0 0 0 0 0 0 0 0 0 0 0 0 0 0 0 0 0 0 0 0 0 0 0 0 0 0 0 0 0 0 0 0 0 0 0 0 0 0 0 0 0 0 0 0 0 0 0 0 0 0 0 0 0 0"
         style="fill:none;fill-rule:evenodd"
         id="path189" />
      <path
         inkscape:connector-curvature="0"
         d="m 268.25,144.5 -0.1936,4.8663 -0.5797,4.8356 -0.962,4.7742 -1.3382,4.6827 -1.7061,4.5616 -2.0631,4.4116 -2.4071,4.2337 -2.7358,4.0291 -3.0473,3.799 -3.3395,3.5449 -3.6106,3.2684 -3.8589,2.9712 -4.0827,2.6552 -4.2807,2.3224 -4.4518,1.975 -4.5946,1.615 -4.7084,1.2449 -4.7923,0.8669 -4.8462,0.4834 -4.8692,0.0968 -4.8615,-0.2903 -4.8231,-0.6757 -4.7541,-1.0567 -4.6552,-1.4311 -4.5267,-1.7965 -4.3697,-2.1504 -4.1851,-2.4907 -3.9739,-2.8155 -3.7377,-3.1222 -3.4778,-3.4093 -3.1959,-3.6749 -2.8939,-3.9171 -2.5735,-4.1347 -2.2368,-4.3261 -1.8861,-4.4902 -1.5234,-4.6258 -1.151,-4.7321 -0.7714,-4.8087 -0.387,-4.8548 v -4.8702 l 0.387,-4.8548 0.7714,-4.8087 1.151,-4.7321 1.5234,-4.6258 1.8861,-4.4902 2.2368,-4.3261 2.5735,-4.1347 2.8939,-3.9171 3.1959,-3.6749 3.4778,-3.4093 3.7377,-3.1222 3.9739,-2.8155 4.1851,-2.4907 4.3697,-2.1504 4.5267,-1.7965 4.6552,-1.4311 4.7541,-1.0567 4.8231,-0.6757 4.8615,-0.2903 4.8692,0.0968 4.8462,0.4834 4.7923,0.8669 4.7084,1.2449 4.5946,1.615 4.4518,1.975 4.2807,2.3224 4.0827,2.6552 3.8589,2.9712 3.6106,3.2684 3.3395,3.5449 3.0473,3.799 2.7358,4.0291 2.4071,4.2337 2.0631,4.4116 1.7061,4.5616 1.3382,4.6827 0.962,4.7742 0.5797,4.8356 0.1936,4.8663"
         style="fill:none;fill-rule:evenodd"
         id="path191" />
      <path
         inkscape:connector-curvature="0"
         d="m 329.5,144.5 -0.3872,9.7327 -1.1593,9.6711 -1.924,9.5484 -2.6765,9.3654 -3.4122,9.1231 -4.1262,8.8232 -4.8141,8.4675 -5.4717,8.0582 -6.0946,7.598 -6.679,7.0898 -7.2212,6.5368 -7.7177,5.9423 -8.1655,5.3104 -8.5615,4.6449 -8.9035,3.9499 -9.1891,3.2301 -9.4168,2.4898 -9.5848,1.7338 -9.6922,0.9667 -9.7385,0.1937 -9.723,-0.5807 -9.6461,-1.3513 -9.5083,-2.1135 -9.3104,-2.8622 -9.0534,-3.5928 -8.7395,-4.3008 -8.3701,-4.9816 -7.9478,-5.6308 -7.4754,-6.2445 -6.9556,-6.8186 -6.3918,-7.3498 -5.7877,-7.8343 -5.147,-8.2694 -4.4737,-8.6522 -3.7722,-8.9802 -3.0467,-9.2516 -2.3021,-9.4644 -1.5429,-9.6174 -0.7739,-9.7095 v -9.7404 l 0.7739,-9.7095 1.5429,-9.6174 2.3021,-9.4644 3.0467,-9.2516 3.7722,-8.9802 4.4737,-8.6522 5.147,-8.2694 5.7877,-7.8343 6.3918,-7.3498 6.9556,-6.8186 7.4754,-6.2445 7.9478,-5.6308 8.3701,-4.9816 8.7395,-4.3008 9.0534,-3.5928 9.3104,-2.8622 9.5083,-2.1135 9.6461,-1.3513 9.723,-0.5807 9.7385,0.1937 9.6922,0.9667 9.5848,1.7338 9.4168,2.4898 9.1891,3.2301 8.9035,3.9499 8.5615,4.6449 8.1655,5.3104 7.7177,5.9423 7.2212,6.5368 6.679,7.0898 6.0946,7.598 5.4717,8.0582 4.8141,8.4675 4.1262,8.8232 3.4122,9.1231 2.6765,9.3654 1.924,9.5484 1.1593,9.6711 0.3872,9.7327"
         style="fill:none;fill-rule:evenodd"
         id="path193" />
      <path
         inkscape:connector-curvature="0"
         d="m 329.5,144.5 -0.3872,-9.7327 -1.1593,-9.6711 -1.924,-9.5484 -2.6765,-9.3654 -3.4122,-9.1231 -4.1262,-8.8232 -4.8141,-8.4675 -5.4717,-8.0582 -6.0946,-7.598 -6.679,-7.0898 -7.2212,-6.5368 -7.7177,-5.9423 -8.1655,-5.3104 -8.5615,-4.6449 -8.9035,-3.9499 -9.1891,-3.2301 -9.4168,-2.4898 -9.5848,-1.7338 -9.6922,-0.9667 -9.7385,-0.1937 -9.723,0.5807 -9.6461,1.3513 -9.5083,2.1135 -9.3104,2.8622 -9.0534,3.5928 -8.7395,4.3008 -8.3701,4.9816 -7.9478,5.6308 -7.4754,6.2445 -6.9556,6.8186 -6.3918,7.3498 -5.7877,7.8343 -5.147,8.2694 -4.4737,8.6522 -3.7722,8.9802 -3.0467,9.2516 -2.3021,9.4644 -1.5429,9.6174 -0.7739,9.7095 v 9.7404 l 0.7739,9.7095 1.5429,9.6174 2.3021,9.4644 3.0467,9.2516 3.7722,8.9802 4.4737,8.6522 5.147,8.2694 5.7877,7.8343 6.3918,7.3498 6.9556,6.8186 7.4754,6.2445 7.9478,5.6308 8.3701,4.9816 8.7395,4.3008 9.0534,3.5928 9.3104,2.8622 9.5083,2.1135 9.6461,1.3513 9.723,0.5807 9.7385,-0.1937 9.6922,-0.9667 9.5848,-1.7338 9.4168,-2.4898 9.1891,-3.2301 8.9035,-3.9499 8.5615,-4.6449 8.1655,-5.3104 7.7177,-5.9423 7.2212,-6.5368 6.679,-7.0898 6.0946,-7.598 5.4717,-8.0582 4.8141,-8.4675 4.1262,-8.8232 3.4122,-9.1231 2.6765,-9.3654 1.924,-9.5484 1.1593,-9.6711 L 329.5,144.5"
         style="fill:none;fill-rule:evenodd;stroke-linecap:square"
         id="path195" />
    </g>
    <g
       style="color-interpolation:linearRGB;fill:#be1e3c;stroke:#be1e3c;stroke-width:2.66669989;stroke-linecap:butt;stroke-linejoin:round;color-rendering:optimizeQuality;image-rendering:optimizeQuality;text-rendering:geometricPrecision"
       id="g201">
      <path
         inkscape:connector-curvature="0"
         d="m 227.934,144.5 -0.1163,-0.3644 -0.1946,-0.3578 -0.2675,-0.3476 -0.3334,-0.3342 -0.3905,-0.3184 -0.4374,-0.3007 -0.4731,-0.282 -0.4972,-0.2634 -0.5091,-0.2452 -0.5091,-0.2288 -0.4975,-0.2145 -0.4752,-0.2033 -0.443,-0.1956 -0.4021,-0.1919 -0.3542,-0.1923 -0.3003,-0.1971 -0.2421,-0.2064 -0.1811,-0.2199 -0.1186,-0.2378 -0.0559,-0.2593 0.006,-0.2845 0.0661,-0.313 0.1237,-0.3442 0.1782,-0.3782 0.2292,-0.4142 0.2765,-0.4524 0.3201,-0.4921 0.3598,-0.5336 0.3959,-0.5764 0.4284,-0.6206 0.4573,-0.6659 0.4828,-0.7122 0.505,-0.7596 0.5237,-0.8077 0.5388,-0.8562 0.5502,-0.9049 0.5577,-0.9535 0.5607,-1.0013 0.5592,-1.0477 0.5525,-1.0923 0.5405,-1.1342 0.5227,-1.1724 0.4988,-1.2064 0.4687,-1.235 0.4321,-1.2578 0.3892,-1.2734 0.34,-1.2816 0.2846,-1.2812 0.2237,-1.272 0.1577,-1.2533 0.0869,-1.2251 0.0126,-1.1868 -0.0647,-1.1387 -0.1442,-1.0809 -0.2248,-1.0138 -0.3053,-0.9377 -0.3852,-0.8535 -0.463,-0.7616 -0.5382,-0.6634 -0.6096,-0.5594 -0.6766,-0.4511 -0.7381,-0.3395 -0.794,-0.2257 -0.8433,-0.1112 -0.8858,0.003 -0.9211,0.1155 -0.9491,0.2252 -0.9696,0.3308 -0.9829,0.4313 -0.9889,0.5257 -0.9879,0.613 -0.9803,0.6922 -0.9666,0.7628 -0.9472,0.8241 -0.9227,0.8755 -0.8939,0.9166 -0.8611,0.9473 -0.8255,0.9672 -0.7875,0.9764 -0.748,0.9752 -0.7077,0.9636 -0.6673,0.9422 -0.6275,0.9114 -0.5891,0.872 -0.5527,0.8245 -0.5186,0.7702 -0.4876,0.7096 -0.4599,0.6442 -0.436,0.5748 -0.4159,0.5027 -0.4001,0.4291 -0.3883,0.3551 -0.3805,0.2819 -0.3767,0.2106 -0.3766,0.1421 -0.38,0.0775 -0.3863,0.0174 -0.3955,-0.0375 -0.4068,-0.0864 -0.4199,-0.1294 -0.4345,-0.1661 -0.45,-0.1962 -0.4659,-0.2201 -0.482,-0.238 -0.4981,-0.2499 -0.5135,-0.2567 -0.5285,-0.2584 -0.5425,-0.256 -0.5557,-0.2498 -0.5678,-0.2405 -0.5792,-0.2286 -0.5895,-0.2148 -0.599,-0.1995 -0.6077,-0.1832 -0.6161,-0.1665 -0.6238,-0.1495 -0.6313,-0.1328 -0.6387,-0.1165 -0.6462,-0.1006 -0.6537,-0.0857 -0.6617,-0.0715 -0.6701,-0.0582 -0.6791,-0.0459 -0.6886,-0.0344 -0.6991,-0.0239 -0.7103,-0.0141 -0.7226,-0.005 -0.7359,0.003 -0.7504,0.0103 -0.7662,0.017 -0.7834,0.023 -0.8024,0.0283 -0.8231,0.0328 -0.8461,0.0363 -0.8716,0.0391 -0.9,0.0406 -0.9318,0.0411 -0.9675,0.0401 -1.0077,0.0378 -1.0532,0.0338 -1.1044,0.0282 -1.1624,0.021 -1.2274,0.0122 -1.3006,0.002 -1.3821,-0.009 -1.4727,-0.0215 -1.5725,-0.0338 -1.6817,-0.0458 -1.8002,-0.0566 -1.9274,-0.0653 -2.0626,-0.0709 -2.2048,-0.0722 -2.3524,-0.0683 -2.5038,-0.0579 -2.6565,-0.0398 -2.8082,-0.0131 -2.9559,0.0232 -3.0967,0.0701 -3.227,0.1279 -3.3437,0.197 -3.4431,0.2775 -3.5219,0.3692 -3.5767,0.4715 -3.6045,0.5834 -3.6025,0.7039 -3.5684,0.8312 -3.5004,0.9639 -3.397,1.0994 -3.2577,1.2361 -3.0826,1.3711 -2.8722,1.5022 -2.6278,1.6268 -2.3517,1.7428 -2.0463,1.8473 -1.7152,1.9389 -1.362,2.0151 -0.9913,2.0746 -0.6076,2.1162 -0.2159,2.1389 0.1785,2.1424 0.5704,2.1265 0.9548,2.0917 1.3266,2.0386 1.681,1.9685 2.0137,1.883 2.3208,1.7836 2.5989,1.6726 2.8454,1.5522 3.0582,1.4248 3.2356,1.2929 3.3772,1.1588 3.483,1.0249 3.5533,0.8936 3.5896,0.7668 3.5937,0.6464 3.568,0.534 3.5148,0.4308 3.4378,0.3377 3.3397,0.2555 3.2243,0.1843 3.095,0.1243 2.9551,0.075 2.8079,0.0361 2.6568,0.007 2.5044,-0.014 2.3533,-0.0272 2.2057,-0.0336 2.0636,-0.0348 1.9282,-0.0315 1.8009,-0.0251 1.6822,-0.0163 1.5729,-0.006 1.4728,0.004 1.3821,0.0148 1.3003,0.0248 1.2271,0.0337 1.1618,0.0413 1.1038,0.0476 1.0524,0.0522 1.0069,0.0554 0.9666,0.057 0.9309,0.0574 0.8992,0.0564 0.8708,0.0543 0.8453,0.0511 0.8225,0.0472 0.8017,0.0423 0.7829,0.0367 0.7658,0.0304 0.7501,0.0235 0.7357,0.0157 0.7226,0.007 0.7105,-0.002 0.6993,-0.0116 0.6892,-0.0224 0.6797,-0.034 0.671,-0.0465 0.6629,-0.0598 0.6552,-0.0743 0.6478,-0.0893 0.6406,-0.1052 0.6336,-0.1218 0.6263,-0.1386 0.6189,-0.1556 0.6109,-0.1726 0.6024,-0.189 0.5931,-0.2044 0.583,-0.2184 0.5721,-0.2305 0.5599,-0.2401 0.5469,-0.2464 0.5329,-0.2492 0.518,-0.2476 0.5023,-0.2413 0.4862,-0.2294 0.4697,-0.212 0.4533,-0.1883 0.4373,-0.1584 0.4221,-0.122 0.4083,-0.0794 0.396,-0.0305 0.3861,0.0242 0.3785,0.0841 0.3741,0.1487 0.3729,0.2171 0.3756,0.2885 0.3819,0.3619 0.3925,0.436 0.4071,0.5099 0.4259,0.5824 0.4486,0.6521 0.4751,0.7181 0.505,0.7791 0.5381,0.8341 0.5738,0.8821 0.6115,0.9223 0.6507,0.9537 0.6907,0.9758 0.7308,0.9882 0.7703,0.9901 0.8084,0.9814 0.8445,0.9622 0.8776,0.9321 0.9073,0.8915 0.9326,0.8406 0.9531,0.7796 0.9681,0.7093 0.977,0.6301 0.9795,0.5429 0.9752,0.4485 0.9637,0.3477 0.9451,0.2418 0.9189,0.1316 0.8856,0.0185 0.8451,-0.0964 0.7978,-0.2118 0.744,-0.3265 0.6843,-0.4392 0.6193,-0.5487 0.5497,-0.6538 0.4763,-0.7534 0.4001,-0.8466 0.3217,-0.9322 0.2424,-1.0097 0.1631,-1.0783 0.0847,-1.1374 0.008,-1.1868 -0.0655,-1.2264 -0.1357,-1.2559 -0.2014,-1.2757 -0.2622,-1.2861 -0.3175,-1.2872 -0.3668,-1.2801 -0.41,-1.2651 -0.447,-1.2431 -0.4777,-1.2149 -0.5021,-1.1814 -0.5205,-1.1434 -0.5334,-1.1018 -0.5407,-1.0574 -0.5432,-1.011 -0.5408,-0.963 -0.5343,-0.9145 -0.5238,-0.8655 -0.5094,-0.8167 -0.4916,-0.7683 -0.4703,-0.7206 -0.4456,-0.6738 -0.4175,-0.6279 -0.3857,-0.5833 -0.3505,-0.5398 -0.3114,-0.4977 -0.2685,-0.4571 -0.2219,-0.4182 -0.1716,-0.3812 -0.1176,-0.3464 -0.0606,-0.314 -10e-4,-0.2846 0.0604,-0.2583 0.1228,-0.2356 0.1849,-0.2168 0.2457,-0.2021 0.3037,-0.1919 0.3575,-0.186 0.4054,-0.1848 0.4463,-0.1878 0.4787,-0.195 0.5012,-0.2058 0.513,-0.2198 0.5134,-0.2363 0.5017,-0.2546 0.478,-0.2737 0.4426,-0.293 0.3959,-0.3115 0.3392,-0.3284 0.2736,-0.3428 0.2008,-0.3543 0.1227,-0.3623 0.0412,-0.3664"
         style="fill:none;fill-rule:evenodd"
         id="path199" />
    </g>
  </g>
  <text
     xml:space="preserve"
     style="font-style:normal;font-weight:normal;font-size:40px;line-height:1.25;font-family:sans-serif;letter-spacing:0px;word-spacing:0px;color-interpolation:auto;fill:#000000;fill-opacity:1;stroke:none;stroke-width:1;stroke-linecap:square;stroke-linejoin:miter;stroke-miterlimit:10;stroke-dasharray:none;stroke-dashoffset:0;stroke-opacity:1;color-rendering:auto;image-rendering:auto;shape-rendering:auto;text-rendering:auto"
     x="290.26819"
     y="150.78944"
     id="text1066"><tspan
       sodipodi:role="line"
       id="tspan1064"
       x="290.26819"
       y="150.78944"
       style="font-size:16px">$\ang{0}$</tspan></text>
  <text
     xml:space="preserve"
     style="font-style:normal;font-weight:normal;font-size:40px;line-height:1.25;font-family:sans-serif;letter-spacing:0px;word-spacing:0px;color-interpolation:auto;fill:#000000;fill-opacity:1;stroke:none;stroke-width:1;stroke-linecap:square;stroke-linejoin:miter;stroke-miterlimit:10;stroke-dasharray:none;stroke-dashoffset:0;stroke-opacity:1;color-rendering:auto;image-rendering:auto;shape-rendering:auto;text-rendering:auto"
     x="34.19606"
     y="242.89812"
     id="text1066-2"><tspan
       sodipodi:role="line"
       id="tspan1064-2"
       x="34.19606"
       y="242.89812"
       style="font-size:16px">$\ang{225}$</tspan></text>
  <text
     xml:space="preserve"
     style="font-style:normal;font-weight:normal;font-size:40px;line-height:1.25;font-family:sans-serif;letter-spacing:0px;word-spacing:0px;color-interpolation:auto;fill:#000000;fill-opacity:1;stroke:none;stroke-width:1;stroke-linecap:square;stroke-linejoin:miter;stroke-miterlimit:10;stroke-dasharray:none;stroke-dashoffset:0;stroke-opacity:1;color-rendering:auto;image-rendering:auto;shape-rendering:auto;text-rendering:auto"
     x="146.58949"
     y="283.81204"
     id="text1066-2-8"><tspan
       sodipodi:role="line"
       id="tspan1064-2-0"
       x="146.58949"
       y="283.81204"
       style="font-size:16px">$\ang{270}$</tspan></text>
  <text
     xml:space="preserve"
     style="font-style:normal;font-weight:normal;font-size:40px;line-height:1.25;font-family:sans-serif;letter-spacing:0px;word-spacing:0px;color-interpolation:auto;fill:#000000;fill-opacity:1;stroke:none;stroke-width:1;stroke-linecap:square;stroke-linejoin:miter;stroke-miterlimit:10;stroke-dasharray:none;stroke-dashoffset:0;stroke-opacity:1;color-rendering:auto;image-rendering:auto;shape-rendering:auto;text-rendering:auto"
     x="252.02248"
     y="246.56905"
     id="text1066-2-8-3"><tspan
       sodipodi:role="line"
       id="tspan1064-2-0-1"
       x="252.02248"
       y="246.56905"
       style="font-size:16px">$\ang{315}$</tspan></text>
  <text
     xml:space="preserve"
     style="font-style:normal;font-weight:normal;font-size:40px;line-height:1.25;font-family:sans-serif;letter-spacing:0px;word-spacing:0px;color-interpolation:auto;fill:#000000;fill-opacity:1;stroke:none;stroke-width:1;stroke-linecap:square;stroke-linejoin:miter;stroke-miterlimit:10;stroke-dasharray:none;stroke-dashoffset:0;stroke-opacity:1;color-rendering:auto;image-rendering:auto;shape-rendering:auto;text-rendering:auto"
     x="37.1754"
     y="53.793152"
     id="text1066-2-8-3-6"><tspan
       sodipodi:role="line"
       id="tspan1064-2-0-1-5"
       x="37.1754"
       y="53.793152"
       style="font-size:16px">$\ang{135}$</tspan></text>
  <text
     xml:space="preserve"
     style="font-style:normal;font-weight:normal;font-size:40px;line-height:1.25;font-family:sans-serif;letter-spacing:0px;word-spacing:0px;color-interpolation:auto;fill:#000000;fill-opacity:1;stroke:none;stroke-width:1;stroke-linecap:square;stroke-linejoin:miter;stroke-miterlimit:10;stroke-dasharray:none;stroke-dashoffset:0;stroke-opacity:1;color-rendering:auto;image-rendering:auto;shape-rendering:auto;text-rendering:auto"
     x="250.21559"
     y="54.549805"
     id="text1066-2-8-3-1"><tspan
       sodipodi:role="line"
       id="tspan1064-2-0-1-8"
       x="250.21559"
       y="54.549805"
       style="font-size:16px">$\ang{45}$</tspan></text>
  <text
     xml:space="preserve"
     style="font-style:normal;font-weight:normal;font-size:40px;line-height:1.25;font-family:sans-serif;letter-spacing:0px;word-spacing:0px;color-interpolation:auto;fill:#000000;fill-opacity:1;stroke:none;stroke-width:1;stroke-linecap:square;stroke-linejoin:miter;stroke-miterlimit:10;stroke-dasharray:none;stroke-dashoffset:0;stroke-opacity:1;color-rendering:auto;image-rendering:auto;shape-rendering:auto;text-rendering:auto"
     x="4.3669567"
     y="148.3445"
     id="text1066-2-8-3-1-0"><tspan
       sodipodi:role="line"
       id="tspan1064-2-0-1-8-0"
       x="4.3669567"
       y="148.3445"
       style="font-size:16px">$\ang{180}$</tspan></text>
  <text
     xml:space="preserve"
     style="font-style:normal;font-weight:normal;font-size:40px;line-height:1.25;font-family:sans-serif;letter-spacing:0px;word-spacing:0px;color-interpolation:auto;fill:#000000;fill-opacity:1;stroke:none;stroke-width:1;stroke-linecap:square;stroke-linejoin:miter;stroke-miterlimit:10;stroke-dasharray:none;stroke-dashoffset:0;stroke-opacity:1;color-rendering:auto;image-rendering:auto;shape-rendering:auto;text-rendering:auto"
     x="150.52583"
     y="17.700197"
     id="text1066-2-8-3-6-7"><tspan
       sodipodi:role="line"
       id="tspan1064-2-0-1-5-6"
       x="150.52583"
       y="17.700197"
       style="font-size:16px">$\ang{90}$</tspan></text>
  <text
     xml:space="preserve"
     style="font-style:normal;font-weight:normal;font-size:16px;line-height:1.25;font-family:sans-serif;letter-spacing:0px;word-spacing:0px;color-interpolation:auto;fill:#000000;fill-opacity:1;stroke:none;stroke-width:1;stroke-linecap:square;stroke-linejoin:miter;stroke-miterlimit:10;stroke-dasharray:none;stroke-dashoffset:0;stroke-opacity:1;color-rendering:auto;image-rendering:auto;shape-rendering:auto;text-rendering:auto"
     x="167.6725"
     y="140.46132"
     id="text1200"><tspan
       sodipodi:role="line"
       id="tspan1198"
       x="167.6725"
       y="140.46132"
       style="font-size:13.33333302px">$\overline{\theta} = 0$</tspan></text>
  <text
     xml:space="preserve"
     style="font-style:normal;font-weight:normal;font-size:16px;line-height:1.25;font-family:sans-serif;letter-spacing:0px;word-spacing:0px;color-interpolation:auto;fill:#000000;fill-opacity:1;stroke:none;stroke-width:1;stroke-linecap:square;stroke-linejoin:miter;stroke-miterlimit:10;stroke-dasharray:none;stroke-dashoffset:0;stroke-opacity:1;color-rendering:auto;image-rendering:auto;shape-rendering:auto;text-rendering:auto"
     x="168.54225"
     y="36.063736"
     id="text1200-1"><tspan
       sodipodi:role="line"
       id="tspan1198-1"
       x="168.54225"
       y="36.063736"
       style="font-size:13.33333302px">$\overline{\theta} = 1$</tspan></text>
  <text
     xml:space="preserve"
     style="font-style:normal;font-weight:normal;font-size:16px;line-height:1.25;font-family:sans-serif;letter-spacing:0px;word-spacing:0px;color-interpolation:auto;fill:#000000;fill-opacity:1;stroke:none;stroke-width:1;stroke-linecap:square;stroke-linejoin:miter;stroke-miterlimit:10;stroke-dasharray:none;stroke-dashoffset:0;stroke-opacity:1;color-rendering:auto;image-rendering:auto;shape-rendering:auto;text-rendering:auto"
     x="166.45952"
     y="88.953278"
     id="text1200-4"><tspan
       sodipodi:role="line"
       id="tspan1198-3"
       x="166.45952"
       y="88.953278"
       style="font-size:13.33333302px">$\overline{\theta} = 0.5$</tspan></text>
</svg>
