<?xml version="1.0" encoding="UTF-8" standalone="no"?>
<svg
   xmlns:dc="http://purl.org/dc/elements/1.1/"
   xmlns:cc="http://creativecommons.org/ns#"
   xmlns:rdf="http://www.w3.org/1999/02/22-rdf-syntax-ns#"
   xmlns:svg="http://www.w3.org/2000/svg"
   xmlns="http://www.w3.org/2000/svg"
   xmlns:sodipodi="http://sodipodi.sourceforge.net/DTD/sodipodi-0.dtd"
   xmlns:inkscape="http://www.inkscape.org/namespaces/inkscape"
   style="font-style:normal;font-weight:normal;font-size:12px;font-family:Dialog;color-interpolation:auto;fill:#000000;fill-opacity:1;stroke:#000000;stroke-width:1;stroke-linecap:square;stroke-linejoin:miter;stroke-miterlimit:10;stroke-dasharray:none;stroke-dashoffset:0;stroke-opacity:1;color-rendering:auto;image-rendering:auto;shape-rendering:auto;text-rendering:auto"
   width="330"
   height="300"
   version="1.1"
   id="svg253"
   sodipodi:docname="polar_conf_low.svg"
   inkscape:version="0.92.2 (5c3e80d, 2017-08-06)">
  <metadata
     id="metadata257">
    <rdf:RDF>
      <cc:Work
         rdf:about="">
        <dc:format>image/svg+xml</dc:format>
        <dc:type
           rdf:resource="http://purl.org/dc/dcmitype/StillImage" />
        <dc:title></dc:title>
      </cc:Work>
    </rdf:RDF>
  </metadata>
  <sodipodi:namedview
     pagecolor="#ffffff"
     bordercolor="#666666"
     borderopacity="1"
     objecttolerance="10"
     gridtolerance="10"
     guidetolerance="10"
     inkscape:pageopacity="0"
     inkscape:pageshadow="2"
     inkscape:window-width="1600"
     inkscape:window-height="1137"
     id="namedview255"
     showgrid="false"
     inkscape:zoom="2.05"
     inkscape:cx="153.77123"
     inkscape:cy="88.602576"
     inkscape:window-x="1272"
     inkscape:window-y="-8"
     inkscape:window-maximized="1"
     inkscape:current-layer="g203" />
  <!--Generated by the Batik Graphics2D SVG Generator-->
  <defs
     id="genericDefs">
    <clipPath
       clipPathUnits="userSpaceOnUse"
       id="clipPath1">
      <path
         inkscape:connector-curvature="0"
         d="M 0,0 H 400 V 300 H 0 Z"
         id="path3" />
    </clipPath>
    <clipPath
       clipPathUnits="userSpaceOnUse"
       id="clipPath1076">
      <path
         inkscape:connector-curvature="0"
         d="M 0,0 H 400 V 300 H 0 Z"
         id="path1074" />
    </clipPath>
    <clipPath
       clipPathUnits="userSpaceOnUse"
       id="clipPath1-6">
      <path
         inkscape:connector-curvature="0"
         d="M 0,0 H 400 V 300 H 0 Z"
         id="path3-1" />
    </clipPath>
    <clipPath
       clipPathUnits="userSpaceOnUse"
       id="clipPath1076-1">
      <path
         inkscape:connector-curvature="0"
         d="M 0,0 H 400 V 300 H 0 Z"
         id="path1074-5" />
    </clipPath>
    <clipPath
       clipPathUnits="userSpaceOnUse"
       id="clipPath1-9">
      <path
         inkscape:connector-curvature="0"
         d="M 0,0 H 400 V 300 H 0 Z"
         id="path3-7" />
    </clipPath>
    <clipPath
       clipPathUnits="userSpaceOnUse"
       id="clipPath1028">
      <path
         inkscape:connector-curvature="0"
         d="M 0,0 H 400 V 300 H 0 Z"
         id="path1026" />
    </clipPath>
  </defs>
  <flowRoot
     xml:space="preserve"
     id="flowRoot1170"
     style="font-style:normal;font-weight:normal;font-size:40px;line-height:1.25;font-family:sans-serif;letter-spacing:0px;word-spacing:0px;fill:#000000;fill-opacity:1;stroke:none"
     transform="translate(0,-120)"><flowRegion
       id="flowRegion1172"><rect
         id="rect1174"
         width="4.9596829"
         height="68.38755"
         x="143.33299"
         y="346.73441" /></flowRegion><flowPara
       id="flowPara1176" /></flowRoot>  <g
     style="font-style:normal;font-weight:normal;font-size:12px;font-family:Dialog;color-interpolation:auto;fill:#000000;fill-opacity:1;stroke:#000000;stroke-width:1;stroke-linecap:square;stroke-linejoin:miter;stroke-miterlimit:10;stroke-dasharray:none;stroke-dashoffset:0;stroke-opacity:1;color-rendering:auto;image-rendering:auto;shape-rendering:auto;text-rendering:auto"
     id="g203"
     transform="translate(-43.658541,-1.2682912)">
    <defs
       id="defs1">
      <clipPath
         clipPathUnits="userSpaceOnUse"
         id="clipPath959">
        <path
           inkscape:connector-curvature="0"
           d="M 0,0 H 400 V 300 H 0 Z"
           id="path957" />
      </clipPath>
    </defs>
    <g
       style="fill:#ffffff;stroke:#ffffff"
       id="g9">
      <rect
         x="0"
         y="0"
         width="400"
         style="stroke:none"
         height="300"
         clip-path="url(#clipPath1-9)"
         id="rect7" />
    </g>
    <g
       style="color-interpolation:sRGB;fill:#ffffff;stroke:#ffffff;color-rendering:optimizeSpeed;image-rendering:optimizeSpeed;shape-rendering:crispEdges;text-rendering:optimizeSpeed"
       id="g171"
       transform="translate(-6.4634146,0.48780488)">
      <rect
         x="0"
         width="400"
         height="300"
         y="0"
         style="stroke:none"
         id="rect11" />
      <path
         inkscape:connector-curvature="0"
         style="stroke:none"
         d="m 207,144.5 h 122.5 l -0.3872,-9.7327 z"
         id="path13" />
      <path
         inkscape:connector-curvature="0"
         style="stroke:none"
         d="m 207,144.5 122.1128,-9.7327 -1.1593,-9.6711 z"
         id="path15" />
      <path
         inkscape:connector-curvature="0"
         style="stroke:none"
         d="m 207,144.5 120.9535,-19.4038 -1.924,-9.5484 z"
         id="path17" />
      <path
         inkscape:connector-curvature="0"
         style="stroke:none"
         d="m 207,144.5 119.0295,-28.9522 -2.6765,-9.3654 z"
         id="path19" />
      <path
         inkscape:connector-curvature="0"
         style="stroke:none"
         d="m 207,144.5 116.353,-38.3176 -3.4122,-9.1231 z"
         id="path21" />
      <path
         inkscape:connector-curvature="0"
         style="stroke:none"
         d="M 207,144.5 319.9408,97.0593 315.8146,88.2361 Z"
         id="path23" />
      <path
         inkscape:connector-curvature="0"
         style="stroke:none"
         d="M 207,144.5 315.8146,88.2361 311.0005,79.7686 Z"
         id="path25" />
      <path
         inkscape:connector-curvature="0"
         style="stroke:none"
         d="M 207,144.5 311.0005,79.7686 305.5288,71.7104 Z"
         id="path27" />
      <path
         inkscape:connector-curvature="0"
         style="stroke:none"
         d="m 207,144.5 98.5288,-72.7896 -6.0946,-7.598 z"
         id="path29" />
      <path
         inkscape:connector-curvature="0"
         style="stroke:none"
         d="m 207,144.5 92.4342,-80.3876 -6.679,-7.0898 z"
         id="path31" />
      <path
         inkscape:connector-curvature="0"
         style="stroke:none"
         d="M 207,144.5 292.7552,57.0226 285.534,50.4858 Z"
         id="path33" />
      <path
         inkscape:connector-curvature="0"
         style="stroke:none"
         d="m 207,144.5 78.534,-94.0142 -7.7177,-5.9423 z"
         id="path35" />
      <path
         inkscape:connector-curvature="0"
         style="stroke:none"
         d="m 207,144.5 70.8163,-99.9565 -8.1655,-5.3104 z"
         id="path37" />
      <path
         inkscape:connector-curvature="0"
         style="stroke:none"
         d="M 207,144.5 269.6508,39.2331 261.0893,34.5882 Z"
         id="path39" />
      <path
         inkscape:connector-curvature="0"
         style="stroke:none"
         d="M 207,144.5 261.0893,34.5882 252.1858,30.6383 Z"
         id="path41" />
      <path
         inkscape:connector-curvature="0"
         style="stroke:none"
         d="M 207,144.5 252.1858,30.6383 242.9967,27.4082 Z"
         id="path43" />
      <path
         inkscape:connector-curvature="0"
         style="stroke:none"
         d="M 207,144.5 242.9967,27.4082 233.5799,24.9184 Z"
         id="path45" />
      <path
         inkscape:connector-curvature="0"
         style="stroke:none"
         d="M 207,144.5 233.5799,24.9184 223.9951,23.1846 Z"
         id="path47" />
      <path
         inkscape:connector-curvature="0"
         style="stroke:none"
         d="M 207,144.5 223.9951,23.1846 214.3029,22.2179 Z"
         id="path49" />
      <path
         inkscape:connector-curvature="0"
         style="stroke:none"
         d="m 207,144.5 7.3029,-122.2821 -9.7385,-0.1937 z"
         id="path51" />
      <path
         inkscape:connector-curvature="0"
         style="stroke:none"
         d="m 207,144.5 -2.4356,-122.4758 -9.723,0.5807 z"
         id="path53" />
      <path
         inkscape:connector-curvature="0"
         style="stroke:none"
         d="M 207,144.5 194.8414,22.6049 185.1953,23.9562 Z"
         id="path55" />
      <path
         inkscape:connector-curvature="0"
         style="stroke:none"
         d="M 207,144.5 185.1953,23.9562 175.687,26.0697 Z"
         id="path57" />
      <path
         inkscape:connector-curvature="0"
         style="stroke:none"
         d="M 207,144.5 175.687,26.0697 166.3766,28.9319 Z"
         id="path59" />
      <path
         inkscape:connector-curvature="0"
         style="stroke:none"
         d="M 207,144.5 166.3766,28.9319 157.3232,32.5247 Z"
         id="path61" />
      <path
         inkscape:connector-curvature="0"
         style="stroke:none"
         d="M 207,144.5 157.3232,32.5247 148.5837,36.8255 Z"
         id="path63" />
      <path
         inkscape:connector-curvature="0"
         style="stroke:none"
         d="M 207,144.5 148.5837,36.8255 140.2136,41.8071 Z"
         id="path65" />
      <path
         inkscape:connector-curvature="0"
         style="stroke:none"
         d="M 207,144.5 140.2136,41.8071 132.2658,47.4379 Z"
         id="path67" />
      <path
         inkscape:connector-curvature="0"
         style="stroke:none"
         d="m 207,144.5 -74.7342,-97.0621 -7.4754,6.2445 z"
         id="path69" />
      <path
         inkscape:connector-curvature="0"
         style="stroke:none"
         d="M 207,144.5 124.7904,53.6824 117.8348,60.501 Z"
         id="path71" />
      <path
         inkscape:connector-curvature="0"
         style="stroke:none"
         d="M 207,144.5 117.8348,60.501 111.443,67.8508 Z"
         id="path73" />
      <path
         inkscape:connector-curvature="0"
         style="stroke:none"
         d="m 207,144.5 -95.557,-76.6492 -5.7877,7.8343 z"
         id="path75" />
      <path
         inkscape:connector-curvature="0"
         style="stroke:none"
         d="m 207,144.5 -101.3447,-68.8149 -5.147,8.2694 z"
         id="path77" />
      <path
         inkscape:connector-curvature="0"
         style="stroke:none"
         d="M 207,144.5 100.5083,83.9545 96.0346,92.6067 Z"
         id="path79" />
      <path
         inkscape:connector-curvature="0"
         style="stroke:none"
         d="M 207,144.5 96.0346,92.6067 l -3.7722,8.9802 z"
         id="path81" />
      <path
         inkscape:connector-curvature="0"
         style="stroke:none"
         d="M 207,144.5 92.2624,101.5869 89.2157,110.8385 Z"
         id="path83" />
      <path
         inkscape:connector-curvature="0"
         style="stroke:none"
         d="M 207,144.5 89.2157,110.8385 86.9136,120.3029 Z"
         id="path85" />
      <path
         inkscape:connector-curvature="0"
         style="stroke:none"
         d="M 207,144.5 86.9136,120.3029 85.3707,129.9203 Z"
         id="path87" />
      <path
         inkscape:connector-curvature="0"
         style="stroke:none"
         d="M 207,144.5 85.3707,129.9203 84.5968,139.6298 Z"
         id="path89" />
      <path
         inkscape:connector-curvature="0"
         style="stroke:none"
         d="M 207,144.5 84.5968,139.6298 v 9.7404 z"
         id="path91" />
      <path
         inkscape:connector-curvature="0"
         style="stroke:none"
         d="m 207,144.5 -122.4032,4.8702 0.7739,9.7095 z"
         id="path93" />
      <path
         inkscape:connector-curvature="0"
         style="stroke:none"
         d="m 207,144.5 -121.6293,14.5797 1.5429,9.6174 z"
         id="path95" />
      <path
         inkscape:connector-curvature="0"
         style="stroke:none"
         d="m 207,144.5 -120.0864,24.1971 2.3021,9.4644 z"
         id="path97" />
      <path
         inkscape:connector-curvature="0"
         style="stroke:none"
         d="m 207,144.5 -117.7843,33.6615 3.0467,9.2516 z"
         id="path99" />
      <path
         inkscape:connector-curvature="0"
         style="stroke:none"
         d="m 207,144.5 -114.7376,42.9131 3.7722,8.9802 z"
         id="path101" />
      <path
         inkscape:connector-curvature="0"
         style="stroke:none"
         d="m 207,144.5 -110.9654,51.8933 4.4737,8.6522 z"
         id="path103" />
      <path
         inkscape:connector-curvature="0"
         style="stroke:none"
         d="m 207,144.5 -106.4917,60.5455 5.147,8.2694 z"
         id="path105" />
      <path
         inkscape:connector-curvature="0"
         style="stroke:none"
         d="m 207,144.5 -101.3447,68.8149 5.7877,7.8343 z"
         id="path107" />
      <path
         inkscape:connector-curvature="0"
         style="stroke:none"
         d="m 207,144.5 -95.557,76.6492 6.3918,7.3498 z"
         id="path109" />
      <path
         inkscape:connector-curvature="0"
         style="stroke:none"
         d="m 207,144.5 -89.1652,83.999 6.9556,6.8186 z"
         id="path111" />
      <path
         inkscape:connector-curvature="0"
         style="stroke:none"
         d="m 207,144.5 -82.2096,90.8176 7.4754,6.2445 z"
         id="path113" />
      <path
         inkscape:connector-curvature="0"
         style="stroke:none"
         d="m 207,144.5 -74.7342,97.0621 7.9478,5.6308 z"
         id="path115" />
      <path
         inkscape:connector-curvature="0"
         style="stroke:none"
         d="m 207,144.5 -66.7864,102.6929 8.3701,4.9816 z"
         id="path117" />
      <path
         inkscape:connector-curvature="0"
         style="stroke:none"
         d="m 207,144.5 -58.4163,107.6745 8.7395,4.3008 z"
         id="path119" />
      <path
         inkscape:connector-curvature="0"
         style="stroke:none"
         d="m 207,144.5 -49.6768,111.9753 9.0534,3.5928 z"
         id="path121" />
      <path
         inkscape:connector-curvature="0"
         style="stroke:none"
         d="m 207,144.5 -40.6234,115.5681 9.3104,2.8622 z"
         id="path123" />
      <path
         inkscape:connector-curvature="0"
         style="stroke:none"
         d="m 207,144.5 -31.313,118.4303 9.5083,2.1135 z"
         id="path125" />
      <path
         inkscape:connector-curvature="0"
         style="stroke:none"
         d="m 207,144.5 -21.8047,120.5438 9.6461,1.3513 z"
         id="path127" />
      <path
         inkscape:connector-curvature="0"
         style="stroke:none"
         d="m 207,144.5 -12.1586,121.8951 9.723,0.5807 z"
         id="path129" />
      <path
         inkscape:connector-curvature="0"
         style="stroke:none"
         d="m 207,144.5 -2.4356,122.4758 9.7385,-0.1937 z"
         id="path131" />
      <path
         inkscape:connector-curvature="0"
         style="stroke:none"
         d="m 207,144.5 7.3029,122.2821 9.6922,-0.9667 z"
         id="path133" />
      <path
         inkscape:connector-curvature="0"
         style="stroke:none"
         d="m 207,144.5 16.9951,121.3154 9.5848,-1.7338 z"
         id="path135" />
      <path
         inkscape:connector-curvature="0"
         style="stroke:none"
         d="m 207,144.5 26.5799,119.5816 9.4168,-2.4898 z"
         id="path137" />
      <path
         inkscape:connector-curvature="0"
         style="stroke:none"
         d="m 207,144.5 35.9967,117.0918 9.1891,-3.2301 z"
         id="path139" />
      <path
         inkscape:connector-curvature="0"
         style="stroke:none"
         d="m 207,144.5 45.1858,113.8617 8.9035,-3.9499 z"
         id="path141" />
      <path
         inkscape:connector-curvature="0"
         style="stroke:none"
         d="m 207,144.5 54.0893,109.9118 8.5615,-4.6449 z"
         id="path143" />
      <path
         inkscape:connector-curvature="0"
         style="stroke:none"
         d="m 207,144.5 62.6508,105.2669 8.1655,-5.3104 z"
         id="path145" />
      <path
         inkscape:connector-curvature="0"
         style="stroke:none"
         d="m 207,144.5 70.8163,99.9565 7.7177,-5.9423 z"
         id="path147" />
      <path
         inkscape:connector-curvature="0"
         style="stroke:none"
         d="m 207,144.5 78.534,94.0142 7.2212,-6.5368 z"
         id="path149" />
      <path
         inkscape:connector-curvature="0"
         style="stroke:none"
         d="m 207,144.5 85.7552,87.4774 6.679,-7.0898 z"
         id="path151" />
      <path
         inkscape:connector-curvature="0"
         style="stroke:none"
         d="m 207,144.5 92.4342,80.3876 6.0946,-7.598 z"
         id="path153" />
      <path
         inkscape:connector-curvature="0"
         style="stroke:none"
         d="m 207,144.5 98.5288,72.7896 5.4717,-8.0582 z"
         id="path155" />
      <path
         inkscape:connector-curvature="0"
         style="stroke:none"
         d="m 207,144.5 104.0005,64.7314 4.8141,-8.4675 z"
         id="path157" />
      <path
         inkscape:connector-curvature="0"
         style="stroke:none"
         d="m 207,144.5 108.8146,56.2639 4.1262,-8.8232 z"
         id="path159" />
      <path
         inkscape:connector-curvature="0"
         style="stroke:none"
         d="m 207,144.5 112.9408,47.4407 3.4122,-9.1231 z"
         id="path161" />
      <path
         inkscape:connector-curvature="0"
         style="stroke:none"
         d="m 207,144.5 116.353,38.3176 2.6765,-9.3654 z"
         id="path163" />
      <path
         inkscape:connector-curvature="0"
         style="stroke:none"
         d="m 207,144.5 119.0295,28.9522 1.924,-9.5484 z"
         id="path165" />
      <path
         inkscape:connector-curvature="0"
         style="stroke:none"
         d="m 207,144.5 120.9535,19.4038 1.1593,-9.6711 z"
         id="path167" />
      <path
         inkscape:connector-curvature="0"
         style="stroke:none"
         d="M 207,144.5 329.1128,154.2327 329.5,144.5 Z"
         id="path169" />
    </g>
    <g
       style="color-interpolation:linearRGB;fill:#262626;fill-opacity:0.14900004;stroke:#262626;stroke-width:0.66670001;stroke-linecap:butt;stroke-linejoin:round;stroke-opacity:0.14900004;color-rendering:optimizeQuality;image-rendering:optimizeQuality;text-rendering:geometricPrecision"
       id="g197">
      <line
         y2="144.5"
         style="fill:none"
         x1="207"
         x2="329.5"
         y1="144.5"
         id="line173" />
      <line
         y2="57.879398"
         style="fill:none"
         x1="207"
         x2="293.62061"
         y1="144.5"
         id="line175" />
      <line
         y2="22"
         style="fill:none"
         x1="207"
         x2="207"
         y1="144.5"
         id="line177" />
      <line
         y2="57.879398"
         style="fill:none"
         x1="207"
         x2="120.3794"
         y1="144.5"
         id="line179" />
      <line
         y2="144.5"
         style="fill:none"
         x1="207"
         x2="84.5"
         y1="144.5"
         id="line181" />
      <line
         y2="231.12061"
         style="fill:none"
         x1="207"
         x2="120.3794"
         y1="144.5"
         id="line183" />
      <line
         y2="267"
         style="fill:none"
         x1="207"
         x2="207"
         y1="144.5"
         id="line185" />
      <line
         y2="231.12061"
         style="fill:none"
         x1="207"
         x2="293.62061"
         y1="144.5"
         id="line187" />
      <path
         inkscape:connector-curvature="0"
         d="m 207,144.5 v 0 0 0 0 0 0 0 0 0 0 0 0 0 0 0 0 0 0 0 0 0 0 0 0 0 0 0 0 0 0 0 0 0 0 0 0 0 0 0 0 0 0 0 0 0 0 0 0 0 0 0 0 0 0 0 0 0 0 0 0 0 0 0 0 0 0 0 0 0 0 0 0 0 0 0 0 0 0 0"
         style="fill:none;fill-rule:evenodd"
         id="path189" />
      <path
         inkscape:connector-curvature="0"
         d="m 268.25,144.5 -0.1936,4.8663 -0.5797,4.8356 -0.962,4.7742 -1.3382,4.6827 -1.7061,4.5616 -2.0631,4.4116 -2.4071,4.2337 -2.7358,4.0291 -3.0473,3.799 -3.3395,3.5449 -3.6106,3.2684 -3.8589,2.9712 -4.0827,2.6552 -4.2807,2.3224 -4.4518,1.975 -4.5946,1.615 -4.7084,1.2449 -4.7923,0.8669 -4.8462,0.4834 -4.8692,0.0968 -4.8615,-0.2903 -4.8231,-0.6757 -4.7541,-1.0567 -4.6552,-1.4311 -4.5267,-1.7965 -4.3697,-2.1504 -4.1851,-2.4907 -3.9739,-2.8155 -3.7377,-3.1222 -3.4778,-3.4093 -3.1959,-3.6749 -2.8939,-3.9171 -2.5735,-4.1347 -2.2368,-4.3261 -1.8861,-4.4902 -1.5234,-4.6258 -1.151,-4.7321 -0.7714,-4.8087 -0.387,-4.8548 v -4.8702 l 0.387,-4.8548 0.7714,-4.8087 1.151,-4.7321 1.5234,-4.6258 1.8861,-4.4902 2.2368,-4.3261 2.5735,-4.1347 2.8939,-3.9171 3.1959,-3.6749 3.4778,-3.4093 3.7377,-3.1222 3.9739,-2.8155 4.1851,-2.4907 4.3697,-2.1504 4.5267,-1.7965 4.6552,-1.4311 4.7541,-1.0567 4.8231,-0.6757 4.8615,-0.2903 4.8692,0.0968 4.8462,0.4834 4.7923,0.8669 4.7084,1.2449 4.5946,1.615 4.4518,1.975 4.2807,2.3224 4.0827,2.6552 3.8589,2.9712 3.6106,3.2684 3.3395,3.5449 3.0473,3.799 2.7358,4.0291 2.4071,4.2337 2.0631,4.4116 1.7061,4.5616 1.3382,4.6827 0.962,4.7742 0.5797,4.8356 0.1936,4.8663"
         style="fill:none;fill-rule:evenodd"
         id="path191" />
      <path
         inkscape:connector-curvature="0"
         d="m 329.5,144.5 -0.3872,9.7327 -1.1593,9.6711 -1.924,9.5484 -2.6765,9.3654 -3.4122,9.1231 -4.1262,8.8232 -4.8141,8.4675 -5.4717,8.0582 -6.0946,7.598 -6.679,7.0898 -7.2212,6.5368 -7.7177,5.9423 -8.1655,5.3104 -8.5615,4.6449 -8.9035,3.9499 -9.1891,3.2301 -9.4168,2.4898 -9.5848,1.7338 -9.6922,0.9667 -9.7385,0.1937 -9.723,-0.5807 -9.6461,-1.3513 -9.5083,-2.1135 -9.3104,-2.8622 -9.0534,-3.5928 -8.7395,-4.3008 -8.3701,-4.9816 -7.9478,-5.6308 -7.4754,-6.2445 -6.9556,-6.8186 -6.3918,-7.3498 -5.7877,-7.8343 -5.147,-8.2694 -4.4737,-8.6522 -3.7722,-8.9802 -3.0467,-9.2516 -2.3021,-9.4644 -1.5429,-9.6174 -0.7739,-9.7095 v -9.7404 l 0.7739,-9.7095 1.5429,-9.6174 2.3021,-9.4644 3.0467,-9.2516 3.7722,-8.9802 4.4737,-8.6522 5.147,-8.2694 5.7877,-7.8343 6.3918,-7.3498 6.9556,-6.8186 7.4754,-6.2445 7.9478,-5.6308 8.3701,-4.9816 8.7395,-4.3008 9.0534,-3.5928 9.3104,-2.8622 9.5083,-2.1135 9.6461,-1.3513 9.723,-0.5807 9.7385,0.1937 9.6922,0.9667 9.5848,1.7338 9.4168,2.4898 9.1891,3.2301 8.9035,3.9499 8.5615,4.6449 8.1655,5.3104 7.7177,5.9423 7.2212,6.5368 6.679,7.0898 6.0946,7.598 5.4717,8.0582 4.8141,8.4675 4.1262,8.8232 3.4122,9.1231 2.6765,9.3654 1.924,9.5484 1.1593,9.6711 0.3872,9.7327"
         style="fill:none;fill-rule:evenodd"
         id="path193" />
      <path
         inkscape:connector-curvature="0"
         d="m 329.5,144.5 -0.3872,-9.7327 -1.1593,-9.6711 -1.924,-9.5484 -2.6765,-9.3654 -3.4122,-9.1231 -4.1262,-8.8232 -4.8141,-8.4675 -5.4717,-8.0582 -6.0946,-7.598 -6.679,-7.0898 -7.2212,-6.5368 -7.7177,-5.9423 -8.1655,-5.3104 -8.5615,-4.6449 -8.9035,-3.9499 -9.1891,-3.2301 -9.4168,-2.4898 -9.5848,-1.7338 -9.6922,-0.9667 -9.7385,-0.1937 -9.723,0.5807 -9.6461,1.3513 -9.5083,2.1135 -9.3104,2.8622 -9.0534,3.5928 -8.7395,4.3008 -8.3701,4.9816 -7.9478,5.6308 -7.4754,6.2445 -6.9556,6.8186 -6.3918,7.3498 -5.7877,7.8343 -5.147,8.2694 -4.4737,8.6522 -3.7722,8.9802 -3.0467,9.2516 -2.3021,9.4644 -1.5429,9.6174 -0.7739,9.7095 v 9.7404 l 0.7739,9.7095 1.5429,9.6174 2.3021,9.4644 3.0467,9.2516 3.7722,8.9802 4.4737,8.6522 5.147,8.2694 5.7877,7.8343 6.3918,7.3498 6.9556,6.8186 7.4754,6.2445 7.9478,5.6308 8.3701,4.9816 8.7395,4.3008 9.0534,3.5928 9.3104,2.8622 9.5083,2.1135 9.6461,1.3513 9.723,0.5807 9.7385,-0.1937 9.6922,-0.9667 9.5848,-1.7338 9.4168,-2.4898 9.1891,-3.2301 8.9035,-3.9499 8.5615,-4.6449 8.1655,-5.3104 7.7177,-5.9423 7.2212,-6.5368 6.679,-7.0898 6.0946,-7.598 5.4717,-8.0582 4.8141,-8.4675 4.1262,-8.8232 3.4122,-9.1231 2.6765,-9.3654 1.924,-9.5484 1.1593,-9.6711 L 329.5,144.5"
         style="fill:none;fill-rule:evenodd;stroke-linecap:square"
         id="path195" />
    </g>
    <ellipse
       style="font-style:normal;font-weight:normal;font-size:12px;font-family:Dialog;color-interpolation:auto;fill:none;fill-opacity:1;stroke:#969696;stroke-width:1;stroke-linecap:square;stroke-linejoin:miter;stroke-miterlimit:10;stroke-dasharray:1.00000001, 4.00000002;stroke-dashoffset:0;stroke-opacity:1;paint-order:fill markers stroke;color-rendering:auto;image-rendering:auto;shape-rendering:auto;text-rendering:auto"
       id="path953"
       cx="207"
       cy="144.5"
       rx="41.980804"
       ry="40.47633" />
    <path
       style="font-style:normal;font-weight:normal;font-size:12px;font-family:Dialog;color-interpolation:auto;fill:none;fill-opacity:1;stroke:#000000;stroke-width:2.66700006;stroke-linecap:butt;stroke-linejoin:miter;stroke-miterlimit:10;stroke-dasharray:2.66700006, 2.66700006;stroke-dashoffset:0;stroke-opacity:1;color-rendering:auto;image-rendering:auto;shape-rendering:auto;text-rendering:auto"
       d="m 207,144.5 -19.5241,35.7219"
       id="path951"
       inkscape:connector-curvature="0"
       sodipodi:nodetypes="cc" />
    <g
       style="color-interpolation:linearRGB;fill:#0072bd;stroke:#be1e3c;stroke-width:2.667;stroke-linecap:butt;stroke-linejoin:round;color-rendering:optimizeQuality;image-rendering:optimizeQuality;text-rendering:geometricPrecision;stroke-miterlimit:10;stroke-dasharray:none"
       id="g201">
      <path
         inkscape:connector-curvature="0"
         d="m 237.9341,144.5 0.2767,-1.096 0.189,-1.112 0.083,-1.1196 -0.0376,-1.1168 -0.1666,-1.1023 -0.2969,-1.0765 -0.4203,-1.0409 -0.5289,-0.9983 -0.6164,-0.9526 -0.6783,-0.9082 -0.7133,-0.8694 -0.7222,-0.8398 -0.7091,-0.8215 -0.6798,-0.8154 -0.6412,-0.8203 -0.6006,-0.8342 -0.5645,-0.8532 -0.5378,-0.8738 -0.5241,-0.892 -0.5245,-0.9045 -0.5388,-0.9089 -0.5653,-0.9039 -0.6013,-0.8892 -0.6439,-0.8652 -0.6905,-0.8332 -0.7381,-0.7944 -0.785,-0.7503 -0.8299,-0.7023 -0.8714,-0.6515 -0.9094,-0.5986 -0.9432,-0.5447 -0.9728,-0.4902 -0.998,-0.4362 -1.0189,-0.3835 -1.0354,-0.3333 -1.0475,-0.2872 -1.0558,-0.2466 -1.0604,-0.2133 -1.0624,-0.1892 -1.0627,-0.1755 -1.0628,-0.1732 -1.0642,-0.1826 -1.0684,-0.2031 -1.0774,-0.2327 -1.0919,-0.2686 -1.1132,-0.3068 -1.141,-0.3423 -1.1747,-0.3699 -1.2124,-0.3845 -1.2518,-0.3811 -1.2897,-0.3565 -1.3229,-0.3085 -1.3477,-0.2368 -1.3616,-0.1432 -1.362,-0.0307 -1.3479,0.0958 -1.3192,0.2308 -1.2768,0.3684 -1.223,0.5028 -1.1601,0.6285 -1.092,0.7415 -1.0221,0.8381 -0.9544,0.9164 -0.8925,0.9752 -0.8401,1.0143 -0.8,1.0348 -0.7749,1.0385 -0.7664,1.0279 -0.7751,1.0068 -0.8006,0.9786 -0.8406,0.9484 -0.8916,0.9207 -0.9484,0.9001 -1.005,0.8906 -1.0539,0.8954 -1.0881,0.916 -1.1011,0.9525 -1.0877,1.0035 -1.0447,1.0657 -0.9716,1.1349 -0.8708,1.206 -0.7467,1.2742 -0.6061,1.3349 -0.4571,1.3847 -0.3081,1.4214 -0.1672,1.4445 -0.0409,1.4548 0.0662,1.4544 0.1521,1.4459 0.2168,1.4322 0.2632,1.4164 0.2953,1.4003 0.3185,1.3853 0.3381,1.3717 0.3591,1.3592 0.3848,1.3467 0.4168,1.3329 0.4555,1.3169 0.4987,1.2984 0.5436,1.2775 0.5869,1.2556 0.6251,1.2339 0.656,1.2148 0.6784,1.1999 0.6933,1.1904 0.7025,1.1862 0.7094,1.1867 0.718,1.1892 0.732,1.1912 0.7546,1.1888 0.7873,1.1788 0.8309,1.1581 0.8843,1.125 0.9451,1.0786 1.0105,1.0196 1.0771,0.9494 1.1419,0.8703 1.2022,0.7849 1.256,0.6958 1.3021,0.6052 1.3401,0.5148 1.37,0.4259 1.3921,0.3394 1.4069,0.2555 1.4152,0.1749 1.4172,0.0975 1.4139,0.0238 1.4054,-0.0455 1.3924,-0.1105 1.3757,-0.1703 1.3555,-0.2248 1.3329,-0.2738 1.3081,-0.3171 1.2823,-0.3547 1.2557,-0.3867 1.2292,-0.413 1.2035,-0.4336 1.1791,-0.4486 1.1569,-0.4583 1.1374,-0.4629 1.1209,-0.4634 1.1079,-0.461 1.0983,-0.4573 1.0916,-0.4544 1.0869,-0.4547 1.0827,-0.4604 1.0772,-0.4737 1.0684,-0.4963 1.0542,-0.5294 1.0322,-0.5732 1.001,-0.627 0.9589,-0.6895 0.9058,-0.7582 0.8417,-0.8302 0.7684,-0.9019 0.6876,-0.9698 0.603,-1.0303 0.5179,-1.0802 0.4367,-1.1175 0.3632,-1.1406 0.3011,-1.1496 0.2529,-1.1453 0.22,-1.1299 0.2027,-1.1063 0.1997,-1.0776 0.2088,-1.0471 0.2271,-1.0179 0.2512,-0.9922 0.2784,-0.9717 0.306,-0.9574 0.332,-0.9493 0.3557,-0.9475 0.3757,-0.9514 0.3919,-0.9606 0.403,-0.9744 0.4074,-0.9925 0.4029,-1.014 0.3867,-1.0378 0.3554,-1.0624"
         style="fill:none;fill-rule:evenodd;stroke:#be1e3c;stroke-width:2.667;stroke-miterlimit:10;stroke-dasharray:none"
         id="path199" />
    </g>
    <text
       xml:space="preserve"
       style="font-style:normal;font-weight:normal;font-size:16px;line-height:1.25;font-family:sans-serif;letter-spacing:0px;word-spacing:0px;color-interpolation:auto;fill:#000000;fill-opacity:1;stroke:none;stroke-width:1;stroke-linecap:square;stroke-linejoin:miter;stroke-miterlimit:10;stroke-dasharray:none;stroke-dashoffset:0;stroke-opacity:1;color-rendering:auto;image-rendering:auto;shape-rendering:auto;text-rendering:auto"
       x="200.97774"
       y="136.47987"
       id="text1200-4-0"><tspan
         sodipodi:role="line"
         id="tspan1198-3-7"
         x="200.97774"
         y="136.47987"
         style="font-size:13.33333302px">$\hat{\varphi}$</tspan></text>
  </g>
  <text
     xml:space="preserve"
     style="font-style:normal;font-weight:normal;font-size:40px;line-height:1.25;font-family:sans-serif;letter-spacing:0px;word-spacing:0px;color-interpolation:auto;fill:#000000;fill-opacity:1;stroke:none;stroke-width:1;stroke-linecap:square;stroke-linejoin:miter;stroke-miterlimit:10;stroke-dasharray:none;stroke-dashoffset:0;stroke-opacity:1;color-rendering:auto;image-rendering:auto;shape-rendering:auto;text-rendering:auto"
     x="290.26819"
     y="150.78944"
     id="text1066"><tspan
       sodipodi:role="line"
       id="tspan1064"
       x="290.26819"
       y="150.78944"
       style="font-size:16px">$\ang{0}$</tspan></text>
  <text
     xml:space="preserve"
     style="font-style:normal;font-weight:normal;font-size:40px;line-height:1.25;font-family:sans-serif;letter-spacing:0px;word-spacing:0px;color-interpolation:auto;fill:#000000;fill-opacity:1;stroke:none;stroke-width:1;stroke-linecap:square;stroke-linejoin:miter;stroke-miterlimit:10;stroke-dasharray:none;stroke-dashoffset:0;stroke-opacity:1;color-rendering:auto;image-rendering:auto;shape-rendering:auto;text-rendering:auto"
     x="34.19606"
     y="242.89812"
     id="text1066-2"><tspan
       sodipodi:role="line"
       id="tspan1064-2"
       x="34.19606"
       y="242.89812"
       style="font-size:16px">$\ang{225}$</tspan></text>
  <text
     xml:space="preserve"
     style="font-style:normal;font-weight:normal;font-size:40px;line-height:1.25;font-family:sans-serif;letter-spacing:0px;word-spacing:0px;color-interpolation:auto;fill:#000000;fill-opacity:1;stroke:none;stroke-width:1;stroke-linecap:square;stroke-linejoin:miter;stroke-miterlimit:10;stroke-dasharray:none;stroke-dashoffset:0;stroke-opacity:1;color-rendering:auto;image-rendering:auto;shape-rendering:auto;text-rendering:auto"
     x="146.58949"
     y="283.81204"
     id="text1066-2-8"><tspan
       sodipodi:role="line"
       id="tspan1064-2-0"
       x="146.58949"
       y="283.81204"
       style="font-size:16px">$\ang{270}$</tspan></text>
  <text
     xml:space="preserve"
     style="font-style:normal;font-weight:normal;font-size:40px;line-height:1.25;font-family:sans-serif;letter-spacing:0px;word-spacing:0px;color-interpolation:auto;fill:#000000;fill-opacity:1;stroke:none;stroke-width:1;stroke-linecap:square;stroke-linejoin:miter;stroke-miterlimit:10;stroke-dasharray:none;stroke-dashoffset:0;stroke-opacity:1;color-rendering:auto;image-rendering:auto;shape-rendering:auto;text-rendering:auto"
     x="252.02248"
     y="246.56905"
     id="text1066-2-8-3"><tspan
       sodipodi:role="line"
       id="tspan1064-2-0-1"
       x="252.02248"
       y="246.56905"
       style="font-size:16px">$\ang{315}$</tspan></text>
  <text
     xml:space="preserve"
     style="font-style:normal;font-weight:normal;font-size:40px;line-height:1.25;font-family:sans-serif;letter-spacing:0px;word-spacing:0px;color-interpolation:auto;fill:#000000;fill-opacity:1;stroke:none;stroke-width:1;stroke-linecap:square;stroke-linejoin:miter;stroke-miterlimit:10;stroke-dasharray:none;stroke-dashoffset:0;stroke-opacity:1;color-rendering:auto;image-rendering:auto;shape-rendering:auto;text-rendering:auto"
     x="37.1754"
     y="53.793152"
     id="text1066-2-8-3-6"><tspan
       sodipodi:role="line"
       id="tspan1064-2-0-1-5"
       x="37.1754"
       y="53.793152"
       style="font-size:16px">$\ang{135}$</tspan></text>
  <text
     xml:space="preserve"
     style="font-style:normal;font-weight:normal;font-size:40px;line-height:1.25;font-family:sans-serif;letter-spacing:0px;word-spacing:0px;color-interpolation:auto;fill:#000000;fill-opacity:1;stroke:none;stroke-width:1;stroke-linecap:square;stroke-linejoin:miter;stroke-miterlimit:10;stroke-dasharray:none;stroke-dashoffset:0;stroke-opacity:1;color-rendering:auto;image-rendering:auto;shape-rendering:auto;text-rendering:auto"
     x="250.21559"
     y="54.549805"
     id="text1066-2-8-3-1"><tspan
       sodipodi:role="line"
       id="tspan1064-2-0-1-8"
       x="250.21559"
       y="54.549805"
       style="font-size:16px">$\ang{45}$</tspan></text>
  <text
     xml:space="preserve"
     style="font-style:normal;font-weight:normal;font-size:40px;line-height:1.25;font-family:sans-serif;letter-spacing:0px;word-spacing:0px;color-interpolation:auto;fill:#000000;fill-opacity:1;stroke:none;stroke-width:1;stroke-linecap:square;stroke-linejoin:miter;stroke-miterlimit:10;stroke-dasharray:none;stroke-dashoffset:0;stroke-opacity:1;color-rendering:auto;image-rendering:auto;shape-rendering:auto;text-rendering:auto"
     x="4.3669567"
     y="148.3445"
     id="text1066-2-8-3-1-0"><tspan
       sodipodi:role="line"
       id="tspan1064-2-0-1-8-0"
       x="4.3669567"
       y="148.3445"
       style="font-size:16px">$\ang{180}$</tspan></text>
  <text
     xml:space="preserve"
     style="font-style:normal;font-weight:normal;font-size:40px;line-height:1.25;font-family:sans-serif;letter-spacing:0px;word-spacing:0px;color-interpolation:auto;fill:#000000;fill-opacity:1;stroke:none;stroke-width:1;stroke-linecap:square;stroke-linejoin:miter;stroke-miterlimit:10;stroke-dasharray:none;stroke-dashoffset:0;stroke-opacity:1;color-rendering:auto;image-rendering:auto;shape-rendering:auto;text-rendering:auto"
     x="150.52583"
     y="17.700197"
     id="text1066-2-8-3-6-7"><tspan
       sodipodi:role="line"
       id="tspan1064-2-0-1-5-6"
       x="150.52583"
       y="17.700197"
       style="font-size:16px">$\ang{90}$</tspan></text>
  <text
     xml:space="preserve"
     style="font-style:normal;font-weight:normal;font-size:16px;line-height:1.25;font-family:sans-serif;letter-spacing:0px;word-spacing:0px;color-interpolation:auto;fill:#000000;fill-opacity:1;stroke:none;stroke-width:1;stroke-linecap:square;stroke-linejoin:miter;stroke-miterlimit:10;stroke-dasharray:none;stroke-dashoffset:0;stroke-opacity:1;color-rendering:auto;image-rendering:auto;shape-rendering:auto;text-rendering:auto"
     x="168.54225"
     y="36.063736"
     id="text1200-1"><tspan
       sodipodi:role="line"
       id="tspan1198-1"
       x="168.54225"
       y="36.063736"
       style="font-size:13.33333302px">$\overline{P}^\text{b} = 1$</tspan></text>
  <text
     xml:space="preserve"
     style="font-style:normal;font-weight:normal;font-size:16px;line-height:1.25;font-family:sans-serif;letter-spacing:0px;word-spacing:0px;color-interpolation:auto;fill:#000000;fill-opacity:1;stroke:none;stroke-width:1;stroke-linecap:square;stroke-linejoin:miter;stroke-miterlimit:10;stroke-dasharray:none;stroke-dashoffset:0;stroke-opacity:1;color-rendering:auto;image-rendering:auto;shape-rendering:auto;text-rendering:auto"
     x="166.45952"
     y="88.953278"
     id="text1200-4"><tspan
       sodipodi:role="line"
       id="tspan1198-3"
       x="166.45952"
       y="88.953278"
       style="font-size:13.33333302px">$\overline{P}^\text{b} = 0.5$</tspan></text>
  <path
     style="fill:none;fill-opacity:1;stroke:#080808;stroke-width:2.66700006;stroke-miterlimit:10;stroke-dasharray:none;stroke-dashoffset:0;stroke-opacity:1;paint-order:fill markers stroke"
     d="m 151.90713,164.14235 c -7.24789,-4.0619 -12.29738,-12.01122 -12.29738,-20.91065 0,-13.10666 10.62505,-23.73171 23.73171,-23.73171 13.10666,0 23.47301,9.50403 23.47301,22.61069"
     id="path965"
     inkscape:connector-curvature="0"
     sodipodi:nodetypes="cssc" />
</svg>
