<?xml version="1.0"?>
<!DOCTYPE svg PUBLIC '-//W3C//DTD SVG 1.0//EN'
          'http://www.w3.org/TR/2001/REC-SVG-20010904/DTD/svg10.dtd'>
<svg xmlns:xlink="http://www.w3.org/1999/xlink" style="fill-opacity:1; color-rendering:auto; color-interpolation:auto; stroke:black; text-rendering:auto; stroke-linecap:square; stroke-miterlimit:10; stroke-opacity:1; shape-rendering:auto; fill:black; stroke-dasharray:none; font-weight:normal; stroke-width:1; font-family:'Dialog'; font-style:normal; stroke-linejoin:miter; font-size:12px; stroke-dashoffset:0; image-rendering:auto;" width="400" height="300" xmlns="http://www.w3.org/2000/svg"
><!--Generated by the Batik Graphics2D SVG Generator--><defs id="genericDefs"
  /><g
  ><defs id="defs1"
    ><clipPath clipPathUnits="userSpaceOnUse" id="clipPath1"
      ><path d="M0 0 L400 0 L400 300 L0 300 L0 0 Z"
      /></clipPath
      ><font horiz-adv-x="75.0" id="font1"
      ><font-face ascent="100.53711" descent="21.972656" units-per-em="100" style="font-style:normal; font-family:SansSerif; font-weight:normal;"
        /><missing-glyph horiz-adv-x="75.0" d="M12.5 0 L12.5 62.5 L62.5 62.5 L62.5 0 L12.5 0 ZM14.0625 1.5625 L60.9375 1.5625 L60.9375 60.9375 L14.0625 60.9375 L14.0625 1.5625 Z"
        /><glyph unicode="}" horiz-adv-x="33.398438" d="M30.5625 29.8906 L30.5625 21.9219 Q26.8125 21.8281 24.4453 19.875 Q22.0781 17.9219 21.2969 14.5781 Q20.5156 11.2344 20.4609 3.0781 Q20.4062 -5.0781 20.1719 -7.6719 Q19.7344 -11.8125 18.5312 -14.2812 Q17.3281 -16.75 15.5703 -18.2422 Q13.8125 -19.7344 11.0781 -20.5156 Q9.2344 -21.0469 5.0312 -21.0469 L2.2969 -21.0469 L2.2969 -13.375 L3.8125 -13.375 Q8.8906 -13.375 10.5469 -11.5469 Q12.2031 -9.7188 12.2031 -3.3281 Q12.2031 8.8906 12.6406 12.1562 Q13.4219 17.5781 15.7656 20.8281 Q18.1094 24.0781 22.4062 25.875 Q16.7969 28.5625 14.5 32.9844 Q12.2031 37.4062 12.2031 47.9062 Q12.2031 57.4219 11.9688 59.2812 Q11.625 62.5469 10.0391 63.8438 Q8.4531 65.1406 3.8125 65.1406 L2.2969 65.1406 L2.2969 72.7969 L5.0312 72.7969 Q9.8125 72.7969 11.9688 72.0156 Q15.0938 70.9531 17.1406 68.4141 Q19.1875 65.875 19.7969 62.0156 Q20.4062 58.1562 20.4609 49.3672 Q20.5156 40.5781 21.2969 37.2344 Q22.0781 33.8906 24.4453 31.9375 Q26.8125 29.9844 30.5625 29.8906 Z"
        /><glyph unicode="0" horiz-adv-x="55.615234" d="M4.1562 35.2969 Q4.1562 48 6.7656 55.7422 Q9.375 63.4844 14.5234 67.6797 Q19.6719 71.875 27.4844 71.875 Q33.25 71.875 37.5938 69.5547 Q41.9375 67.2344 44.7734 62.8672 Q47.6094 58.5 49.2188 52.2266 Q50.8281 45.9531 50.8281 35.2969 Q50.8281 22.7031 48.2422 14.9688 Q45.6562 7.2344 40.5078 3.0078 Q35.3594 -1.2188 27.4844 -1.2188 Q17.1406 -1.2188 11.2344 6.2031 Q4.1562 15.1406 4.1562 35.2969 ZM13.1875 35.2969 Q13.1875 17.6719 17.3125 11.8359 Q21.4375 6 27.4844 6 Q33.5469 6 37.6719 11.8594 Q41.7969 17.7188 41.7969 35.2969 Q41.7969 52.9844 37.6719 58.7891 Q33.5469 64.5938 27.3906 64.5938 Q21.3438 64.5938 17.7188 59.4688 Q13.1875 52.9375 13.1875 35.2969 Z"
        /><glyph unicode="{" horiz-adv-x="33.398438" d="M2.7812 29.8906 Q6.5469 29.9844 8.9141 31.9141 Q11.2812 33.8438 12.0625 37.2109 Q12.8438 40.5781 12.8906 48.7344 Q12.9375 56.8906 13.1875 59.4688 Q13.625 63.5781 14.8203 66.0703 Q16.0156 68.5625 17.7734 70.0469 Q19.5312 71.5312 22.2656 72.3125 Q24.125 72.7969 28.3281 72.7969 L31.0625 72.7969 L31.0625 65.1406 L29.5469 65.1406 Q24.4688 65.1406 22.8047 63.3047 Q21.1406 61.4688 21.1406 55.125 Q21.1406 42.3281 20.6094 38.9688 Q19.7344 33.7344 17.6094 30.9062 Q15.4844 28.0781 10.9375 25.875 Q16.3125 23.6406 18.7266 19.0234 Q21.1406 14.4062 21.1406 3.9062 Q21.1406 -5.6094 21.3438 -7.4219 Q21.7344 -10.75 23.3203 -12.0625 Q24.9062 -13.375 29.5469 -13.375 L31.0625 -13.375 L31.0625 -21.0469 L28.3281 -21.0469 Q23.5312 -21.0469 21.3906 -20.2656 Q18.2656 -19.1406 16.2109 -16.625 Q14.1562 -14.1094 13.5469 -10.25 Q12.9375 -6.3906 12.8906 2.3984 Q12.8438 11.1875 12.0625 14.5547 Q11.2812 17.9219 8.9141 19.875 Q6.5469 21.8281 2.7812 21.9219 L2.7812 29.8906 Z"
        /><glyph unicode="g" horiz-adv-x="55.615234" d="M4.9844 -4.2969 L13.5312 -5.5625 Q14.0625 -9.5156 16.5 -11.3281 Q19.7812 -13.7656 25.4375 -13.7656 Q31.5469 -13.7656 34.8672 -11.3281 Q38.1875 -8.8906 39.3594 -4.5 Q40.0469 -1.8125 39.9844 6.7812 Q34.2344 0 25.6406 0 Q14.9375 0 9.0781 7.7188 Q3.2188 15.4375 3.2188 26.2188 Q3.2188 33.6406 5.9062 39.9141 Q8.5938 46.1875 13.6953 49.6094 Q18.7969 53.0312 25.6875 53.0312 Q34.8594 53.0312 40.8281 45.6094 L40.8281 51.8594 L48.9219 51.8594 L48.9219 7.0312 Q48.9219 -5.0781 46.4609 -10.1328 Q44 -15.1875 38.6484 -18.1172 Q33.2969 -21.0469 25.4844 -21.0469 Q16.2188 -21.0469 10.5 -16.875 Q4.7812 -12.7031 4.9844 -4.2969 ZM12.25 26.8594 Q12.25 16.6562 16.3047 11.9688 Q20.3594 7.2812 26.4688 7.2812 Q32.5156 7.2812 36.6172 11.9453 Q40.7188 16.6094 40.7188 26.5625 Q40.7188 36.0781 36.5 40.9141 Q32.2812 45.75 26.3125 45.75 Q20.4531 45.75 16.3516 40.9922 Q12.25 36.2344 12.25 26.8594 Z"
        /><glyph unicode="n" horiz-adv-x="55.615234" d="M6.5938 0 L6.5938 51.8594 L14.5 51.8594 L14.5 44.4844 Q20.2188 53.0312 31 53.0312 Q35.6875 53.0312 39.625 51.3438 Q43.5625 49.6562 45.5156 46.9219 Q47.4688 44.1875 48.25 40.4375 Q48.7344 37.9844 48.7344 31.8906 L48.7344 0 L39.9375 0 L39.9375 31.5469 Q39.9375 36.9219 38.9141 39.5781 Q37.8906 42.2344 35.2812 43.8203 Q32.6719 45.4062 29.1562 45.4062 Q23.5312 45.4062 19.4531 41.8438 Q15.375 38.2812 15.375 28.3281 L15.375 0 L6.5938 0 Z"
        /><glyph unicode="a" horiz-adv-x="55.615234" d="M40.4375 6.3906 Q35.5469 2.25 31.0312 0.5391 Q26.5156 -1.1719 21.3438 -1.1719 Q12.7969 -1.1719 8.2031 3 Q3.6094 7.1719 3.6094 13.6719 Q3.6094 17.4844 5.3438 20.6328 Q7.0781 23.7812 9.8906 25.6875 Q12.7031 27.5938 16.2188 28.5625 Q18.7969 29.25 24.0312 29.8906 Q34.6719 31.1562 39.7031 32.9062 Q39.75 34.7188 39.75 35.2031 Q39.75 40.5781 37.25 42.7812 Q33.8906 45.75 27.25 45.75 Q21.0469 45.75 18.0938 43.5781 Q15.1406 41.4062 13.7188 35.8906 L5.125 37.0625 Q6.2969 42.5781 8.9844 45.9688 Q11.6719 49.3594 16.75 51.1953 Q21.8281 53.0312 28.5156 53.0312 Q35.1562 53.0312 39.3047 51.4688 Q43.4531 49.9062 45.4062 47.5391 Q47.3594 45.1719 48.1406 41.5469 Q48.5781 39.3125 48.5781 33.4531 L48.5781 21.7344 Q48.5781 9.4688 49.1406 6.2266 Q49.7031 2.9844 51.375 0 L42.1875 0 Q40.8281 2.7344 40.4375 6.3906 ZM39.7031 26.0312 Q34.9062 24.0781 25.3438 22.7031 Q19.9219 21.9219 17.6797 20.9453 Q15.4375 19.9688 14.2109 18.0938 Q12.9844 16.2188 12.9844 13.9219 Q12.9844 10.4062 15.6484 8.0625 Q18.3125 5.7188 23.4375 5.7188 Q28.5156 5.7188 32.4688 7.9375 Q36.4219 10.1562 38.2812 14.0156 Q39.7031 17 39.7031 22.7969 L39.7031 26.0312 Z"
        /><glyph unicode="\" horiz-adv-x="27.783203" d="M20.75 -1.2188 L0 72.7969 L7.0781 72.7969 L27.7812 -1.2188 L20.75 -1.2188 Z"
        /><glyph unicode="5" horiz-adv-x="55.615234" d="M4.1562 18.75 L13.375 19.5312 Q14.4062 12.7969 18.1406 9.3984 Q21.875 6 27.1562 6 Q33.5 6 37.8906 10.7891 Q42.2812 15.5781 42.2812 23.4844 Q42.2812 31 38.0625 35.3516 Q33.8438 39.7031 27 39.7031 Q22.75 39.7031 19.3359 37.7734 Q15.9219 35.8438 13.9688 32.7656 L5.7188 33.8438 L12.6406 70.6094 L48.25 70.6094 L48.25 62.2031 L19.6719 62.2031 L15.8281 42.9688 Q22.2656 47.4688 29.3438 47.4688 Q38.7188 47.4688 45.1641 40.9688 Q51.6094 34.4688 51.6094 24.2656 Q51.6094 14.5469 45.9531 7.4688 Q39.0625 -1.2188 27.1562 -1.2188 Q17.3906 -1.2188 11.2109 4.25 Q5.0312 9.7188 4.1562 18.75 Z"
        /><glyph unicode="4" horiz-adv-x="55.615234" d="M32.3281 0 L32.3281 17.1406 L1.2656 17.1406 L1.2656 25.2031 L33.9375 71.5781 L41.1094 71.5781 L41.1094 25.2031 L50.7812 25.2031 L50.7812 17.1406 L41.1094 17.1406 L41.1094 0 L32.3281 0 ZM32.3281 25.2031 L32.3281 57.4688 L9.9062 25.2031 L32.3281 25.2031 Z"
        /><glyph unicode="9" horiz-adv-x="55.615234" d="M5.4688 16.5469 L13.9219 17.3281 Q14.9844 11.375 18.0156 8.6875 Q21.0469 6 25.7812 6 Q29.8281 6 32.8828 7.8594 Q35.9375 9.7188 37.8906 12.8203 Q39.8438 15.9219 41.1641 21.1953 Q42.4844 26.4688 42.4844 31.9375 Q42.4844 32.5156 42.4375 33.6875 Q39.7969 29.5 35.2344 26.8828 Q30.6719 24.2656 25.3438 24.2656 Q16.4531 24.2656 10.3047 30.7109 Q4.1562 37.1562 4.1562 47.7031 Q4.1562 58.5938 10.5781 65.2344 Q17 71.875 26.6562 71.875 Q33.6406 71.875 39.4297 68.1172 Q45.2188 64.3594 48.2188 57.3984 Q51.2188 50.4375 51.2188 37.25 Q51.2188 23.5312 48.2422 15.4062 Q45.2656 7.2812 39.3828 3.0312 Q33.5 -1.2188 25.5938 -1.2188 Q17.1875 -1.2188 11.8672 3.4453 Q6.5469 8.1094 5.4688 16.5469 ZM41.4531 48.1406 Q41.4531 55.7188 37.4297 60.1562 Q33.4062 64.5938 27.7344 64.5938 Q21.875 64.5938 17.5312 59.8125 Q13.1875 55.0312 13.1875 47.4062 Q13.1875 40.5781 17.3125 36.3047 Q21.4375 32.0312 27.4844 32.0312 Q33.5938 32.0312 37.5234 36.3047 Q41.4531 40.5781 41.4531 48.1406 Z"
        /><glyph unicode="3" horiz-adv-x="55.615234" d="M4.2031 18.8906 L12.9844 20.0625 Q14.5 12.5938 18.1406 9.2969 Q21.7812 6 27 6 Q33.2031 6 37.4766 10.2969 Q41.75 14.5938 41.75 20.9531 Q41.75 27 37.7969 30.9297 Q33.8438 34.8594 27.7344 34.8594 Q25.25 34.8594 21.5312 33.8906 L22.5156 41.6094 Q23.3906 41.5 23.9219 41.5 Q29.5469 41.5 34.0391 44.4297 Q38.5312 47.3594 38.5312 53.4688 Q38.5312 58.2969 35.2578 61.4766 Q31.9844 64.6562 26.8125 64.6562 Q21.6875 64.6562 18.2656 61.4297 Q14.8438 58.2031 13.875 51.7656 L5.0781 53.3281 Q6.6875 62.1562 12.3984 67.0156 Q18.1094 71.875 26.6094 71.875 Q32.4688 71.875 37.3984 69.3594 Q42.3281 66.8438 44.9453 62.5 Q47.5625 58.1562 47.5625 53.2656 Q47.5625 48.6406 45.0703 44.8281 Q42.5781 41.0156 37.7031 38.7656 Q44.0469 37.3125 47.5625 32.6953 Q51.0781 28.0781 51.0781 21.1406 Q51.0781 11.7656 44.2422 5.25 Q37.4062 -1.2656 26.9531 -1.2656 Q17.5312 -1.2656 11.3047 4.3516 Q5.0781 9.9688 4.2031 18.8906 Z"
        /><glyph unicode="1" horiz-adv-x="55.615234" d="M37.25 0 L28.4688 0 L28.4688 56 Q25.2969 52.9844 20.1406 49.9531 Q14.9844 46.9219 10.8906 45.4062 L10.8906 53.9062 Q18.2656 57.375 23.7812 62.3047 Q29.2969 67.2344 31.5938 71.875 L37.25 71.875 L37.25 0 Z"
        /><glyph unicode="8" horiz-adv-x="55.615234" d="M17.6719 38.8125 Q12.2031 40.8281 9.5703 44.5391 Q6.9375 48.25 6.9375 53.4219 Q6.9375 61.2344 12.5547 66.5547 Q18.1719 71.875 27.4844 71.875 Q36.8594 71.875 42.5781 66.4297 Q48.2969 60.9844 48.2969 53.1719 Q48.2969 48.1875 45.6797 44.5078 Q43.0625 40.8281 37.75 38.8125 Q44.3438 36.6719 47.7812 31.8828 Q51.2188 27.0938 51.2188 20.4531 Q51.2188 11.2812 44.7266 5.0312 Q38.2344 -1.2188 27.6406 -1.2188 Q17.0469 -1.2188 10.5469 5.0547 Q4.0469 11.3281 4.0469 20.7031 Q4.0469 27.6875 7.5938 32.3984 Q11.1406 37.1094 17.6719 38.8125 ZM15.9219 53.7188 Q15.9219 48.6406 19.1953 45.4141 Q22.4688 42.1875 27.6875 42.1875 Q32.7656 42.1875 36.0156 45.3828 Q39.2656 48.5781 39.2656 53.2188 Q39.2656 58.0625 35.9141 61.3594 Q32.5625 64.6562 27.5938 64.6562 Q22.5625 64.6562 19.2422 61.4297 Q15.9219 58.2031 15.9219 53.7188 ZM13.0938 20.6562 Q13.0938 16.8906 14.875 13.375 Q16.6562 9.8594 20.1719 7.9297 Q23.6875 6 27.7344 6 Q34.0312 6 38.1328 10.0547 Q42.2344 14.1094 42.2344 20.3594 Q42.2344 26.7031 38.0156 30.8594 Q33.7969 35.0156 27.4375 35.0156 Q21.2344 35.0156 17.1641 30.9141 Q13.0938 26.8125 13.0938 20.6562 Z"
        /><glyph unicode="2" horiz-adv-x="55.615234" d="M50.3438 8.4531 L50.3438 0 L3.0312 0 Q2.9375 3.1719 4.0469 6.1094 Q5.8594 10.9375 9.8359 15.625 Q13.8125 20.3125 21.3438 26.4688 Q33.0156 36.0312 37.1172 41.625 Q41.2188 47.2188 41.2188 52.2031 Q41.2188 57.4219 37.4766 61.0078 Q33.7344 64.5938 27.7344 64.5938 Q21.3906 64.5938 17.5781 60.7891 Q13.7656 56.9844 13.7188 50.25 L4.6875 51.1719 Q5.6094 61.2812 11.6641 66.5781 Q17.7188 71.875 27.9375 71.875 Q38.2344 71.875 44.2422 66.1641 Q50.25 60.4531 50.25 52 Q50.25 47.7031 48.4922 43.5547 Q46.7344 39.4062 42.6562 34.8125 Q38.5781 30.2188 29.1094 22.2188 Q21.1875 15.5781 18.9453 13.2109 Q16.7031 10.8438 15.2344 8.4531 L50.3438 8.4531 Z"
        /><glyph unicode="7" horiz-adv-x="55.615234" d="M4.7344 62.2031 L4.7344 70.6562 L51.0781 70.6562 L51.0781 63.8125 Q44.2344 56.5469 37.5234 44.4844 Q30.8125 32.4219 27.1562 19.6719 Q24.5156 10.6875 23.7812 0 L14.75 0 Q14.8906 8.4531 18.0625 20.4141 Q21.2344 32.375 27.1719 43.4844 Q33.1094 54.5938 39.7969 62.2031 L4.7344 62.2031 Z"
        /><glyph unicode="=" horiz-adv-x="58.398438" d="M52.8281 42.0938 L5.5625 42.0938 L5.5625 50.2969 L52.8281 50.2969 L52.8281 42.0938 ZM52.8281 20.3594 L5.5625 20.3594 L5.5625 28.5625 L52.8281 28.5625 L52.8281 20.3594 Z"
        /><glyph unicode=" " horiz-adv-x="27.783203" d=""
        /><glyph unicode="h" horiz-adv-x="55.615234" d="M6.5938 0 L6.5938 71.5781 L15.375 71.5781 L15.375 45.9062 Q21.5312 53.0312 30.9062 53.0312 Q36.6719 53.0312 40.9219 50.7578 Q45.1719 48.4844 47 44.4844 Q48.8281 40.4844 48.8281 32.8594 L48.8281 0 L40.0469 0 L40.0469 32.8594 Q40.0469 39.4531 37.1875 42.4531 Q34.3281 45.4531 29.1094 45.4531 Q25.2031 45.4531 21.7578 43.4297 Q18.3125 41.4062 16.8438 37.9375 Q15.375 34.4688 15.375 28.375 L15.375 0 L6.5938 0 Z"
        /><glyph unicode="t" horiz-adv-x="27.783203" d="M25.7812 7.8594 L27.0469 0.0938 Q23.3438 -0.6875 20.4062 -0.6875 Q15.625 -0.6875 12.9922 0.8281 Q10.3594 2.3438 9.2812 4.8125 Q8.2031 7.2812 8.2031 15.1875 L8.2031 45.0156 L1.7656 45.0156 L1.7656 51.8594 L8.2031 51.8594 L8.2031 64.7031 L16.9375 69.9688 L16.9375 51.8594 L25.7812 51.8594 L25.7812 45.0156 L16.9375 45.0156 L16.9375 14.7031 Q16.9375 10.9375 17.4062 9.8672 Q17.875 8.7969 18.9219 8.1562 Q19.9688 7.5156 21.9219 7.5156 Q23.3906 7.5156 25.7812 7.8594 Z"
        /><glyph unicode="i" horiz-adv-x="22.216797" d="M6.6406 61.4688 L6.6406 71.5781 L15.4375 71.5781 L15.4375 61.4688 L6.6406 61.4688 ZM6.6406 0 L6.6406 51.8594 L15.4375 51.8594 L15.4375 0 L6.6406 0 Z"
        /><glyph unicode="l" horiz-adv-x="22.216797" d="M6.3906 0 L6.3906 71.5781 L15.1875 71.5781 L15.1875 0 L6.3906 0 Z"
        /><glyph unicode="r" horiz-adv-x="33.30078" d="M6.5 0 L6.5 51.8594 L14.4062 51.8594 L14.4062 44 Q17.4375 49.5156 20 51.2734 Q22.5625 53.0312 25.6406 53.0312 Q30.0781 53.0312 34.6719 50.2031 L31.6406 42.0469 Q28.4219 43.9531 25.2031 43.9531 Q22.3125 43.9531 20.0156 42.2188 Q17.7188 40.4844 16.75 37.4062 Q15.2812 32.7188 15.2812 27.1562 L15.2812 0 L6.5 0 Z"
        /><glyph unicode="e" horiz-adv-x="55.615234" d="M42.0938 16.7031 L51.1719 15.5781 Q49.0312 7.625 43.2188 3.2266 Q37.4062 -1.1719 28.375 -1.1719 Q17 -1.1719 10.3281 5.8359 Q3.6562 12.8438 3.6562 25.4844 Q3.6562 38.5781 10.3984 45.8047 Q17.1406 53.0312 27.875 53.0312 Q38.2812 53.0312 44.875 45.9531 Q51.4688 38.875 51.4688 26.0312 Q51.4688 25.25 51.4219 23.6875 L12.75 23.6875 Q13.2344 15.1406 17.5781 10.6016 Q21.9219 6.0625 28.4219 6.0625 Q33.25 6.0625 36.6719 8.6016 Q40.0938 11.1406 42.0938 16.7031 ZM13.2344 30.9062 L42.1875 30.9062 Q41.6094 37.4531 38.875 40.7188 Q34.6719 45.7969 27.9844 45.7969 Q21.9219 45.7969 17.7969 41.75 Q13.6719 37.7031 13.2344 30.9062 Z"
        /><glyph unicode="v" horiz-adv-x="50.0" d="M21 0 L1.2656 51.8594 L10.5469 51.8594 L21.6875 20.7969 Q23.4844 15.7656 25 10.3594 Q26.1719 14.4531 28.2656 20.2188 L39.7969 51.8594 L48.8281 51.8594 L29.2031 0 L21 0 Z"
        /><glyph unicode="o" horiz-adv-x="55.615234" d="M3.3281 25.9219 Q3.3281 40.3281 11.3281 47.2656 Q18.0156 53.0312 27.6406 53.0312 Q38.3281 53.0312 45.1172 46.0234 Q51.9062 39.0156 51.9062 26.6562 Q51.9062 16.6562 48.9062 10.9141 Q45.9062 5.1719 40.1641 2 Q34.4219 -1.1719 27.6406 -1.1719 Q16.75 -1.1719 10.0391 5.8125 Q3.3281 12.7969 3.3281 25.9219 ZM12.3594 25.9219 Q12.3594 15.9688 16.7031 11.0156 Q21.0469 6.0625 27.6406 6.0625 Q34.1875 6.0625 38.5312 11.0391 Q42.875 16.0156 42.875 26.2188 Q42.875 35.8438 38.5 40.7969 Q34.125 45.75 27.6406 45.75 Q21.0469 45.75 16.7031 40.8203 Q12.3594 35.8906 12.3594 25.9219 Z"
        /><glyph unicode="$" horiz-adv-x="55.615234" d="M24.9062 -10.2969 L24.9062 -1.5156 Q18.3125 -0.6875 14.1875 1.4375 Q10.0625 3.5625 7.0547 8.2969 Q4.0469 13.0312 3.5625 19.875 L12.4062 21.5312 Q13.4219 14.4531 16.0156 11.1406 Q19.7344 6.4531 24.9062 5.9062 L24.9062 33.8906 Q19.4844 34.9062 13.8125 38.0938 Q9.625 40.4375 7.3516 44.5859 Q5.0781 48.7344 5.0781 54 Q5.0781 63.375 11.7188 69.1875 Q16.1562 73.0938 24.9062 73.9688 L24.9062 78.1719 L30.0781 78.1719 L30.0781 73.9688 Q37.75 73.25 42.2344 69.4844 Q48 64.7031 49.1719 56.3438 L40.0938 54.9844 Q39.3125 60.1562 36.8438 62.9141 Q34.375 65.6719 30.0781 66.5469 L30.0781 41.2188 Q36.7188 39.5469 38.875 38.625 Q42.9688 36.8125 45.5547 34.2266 Q48.1406 31.6406 49.5312 28.0781 Q50.9219 24.5156 50.9219 20.3594 Q50.9219 11.2344 45.1172 5.125 Q39.3125 -0.9844 30.0781 -1.4219 L30.0781 -10.2969 L24.9062 -10.2969 ZM24.9062 66.6562 Q19.7812 65.875 16.8281 62.5547 Q13.875 59.2344 13.875 54.6875 Q13.875 50.2031 16.3828 47.1719 Q18.8906 44.1406 24.9062 42.3281 L24.9062 66.6562 ZM30.0781 5.9062 Q35.2031 6.5469 38.5469 10.3516 Q41.8906 14.1562 41.8906 19.7812 Q41.8906 24.5625 39.5234 27.4688 Q37.1562 30.375 30.0781 32.6719 L30.0781 5.9062 Z"
        /><glyph unicode="." horiz-adv-x="27.783203" d="M9.0781 0 L9.0781 10.0156 L19.0938 10.0156 L19.0938 0 L9.0781 0 Z"
      /></font
      ><font horiz-adv-x="75.0" id="font2"
      ><font-face ascent="100.53711" descent="21.972656" units-per-em="100" style="font-style:normal; font-family:SansSerif; font-weight:bold;"
        /><missing-glyph horiz-adv-x="75.0" d="M12.5 0 L12.5 62.5 L62.5 62.5 L62.5 0 L12.5 0 ZM14.0625 1.5625 L60.9375 1.5625 L60.9375 60.9375 L14.0625 60.9375 L14.0625 1.5625 Z"
        /><glyph unicode="1" horiz-adv-x="55.615234" d="M39.3594 0 L25.6406 0 L25.6406 51.7031 Q18.1094 44.6719 7.9062 41.3125 L7.9062 53.7656 Q13.2812 55.5156 19.5781 60.4219 Q25.875 65.3281 28.2188 71.875 L39.3594 71.875 L39.3594 0 Z"
        /><glyph unicode="0" horiz-adv-x="55.615234" d="M27.4375 71.875 Q37.8438 71.875 43.7031 64.4531 Q50.6875 55.6719 50.6875 35.2969 Q50.6875 14.9844 43.6562 6.1094 Q37.8438 -1.2188 27.4375 -1.2188 Q17 -1.2188 10.6016 6.8125 Q4.2031 14.8438 4.2031 35.4531 Q4.2031 55.6719 11.2344 64.5469 Q17.0469 71.875 27.4375 71.875 ZM27.4375 60.5 Q24.9531 60.5 23 58.9141 Q21.0469 57.3281 19.9688 53.2188 Q18.5625 47.9062 18.5625 35.2969 Q18.5625 22.7031 19.8281 17.9922 Q21.0938 13.2812 23.0234 11.7188 Q24.9531 10.1562 27.4375 10.1562 Q29.9375 10.1562 31.8906 11.7422 Q33.8438 13.3281 34.9062 17.4375 Q36.3281 22.7031 36.3281 35.2969 Q36.3281 47.9062 35.0625 52.6172 Q33.7969 57.3281 31.8672 58.9141 Q29.9375 60.5 27.4375 60.5 Z"
        /><glyph unicode="X" horiz-adv-x="66.69922" d="M0 0 L24.4688 37.3594 L2.2969 71.5781 L19.1875 71.5781 L33.5469 48.5781 L47.6094 71.5781 L64.3594 71.5781 L42.0938 36.8125 L66.5469 0 L49.125 0 L33.25 24.75 L17.3281 0 L0 0 Z"
      /></font
    ></defs
    ><g style="fill:white; stroke:white;"
    ><rect x="0" y="0" width="400" style="clip-path:url(#clipPath1); stroke:none;" height="300"
    /></g
    ><g style="fill:white; text-rendering:optimizeSpeed; color-rendering:optimizeSpeed; image-rendering:optimizeSpeed; shape-rendering:crispEdges; color-interpolation:sRGB; stroke:white;"
    ><rect x="0" width="400" height="300" y="0" style="stroke:none;"
      /><path style="stroke:none;" d="M207 156.5 L317.5 156.5 L317.1507 147.7207 L207 156.5 Z"
      /><path style="stroke:none;" d="M207 156.5 L317.1507 147.7207 L316.105 138.997 L207 156.5 Z"
      /><path style="stroke:none;" d="M207 156.5 L316.105 138.997 L314.3694 130.3839 L207 156.5 Z"
      /><path style="stroke:none;" d="M207 156.5 L314.3694 130.3839 L311.9551 121.936 L207 156.5 Z"
      /><path style="stroke:none;" d="M207 156.5 L311.9551 121.936 L308.8772 113.7065 L207 156.5 Z"
      /><path style="stroke:none;" d="M207 156.5 L308.8772 113.7065 L305.1552 105.7477 L207 156.5 Z"
      /><path style="stroke:none;" d="M207 156.5 L305.1552 105.7477 L300.8127 98.1096 L207 156.5 Z"
      /><path style="stroke:none;" d="M207 156.5 L300.8127 98.1096 L295.877 90.8408 L207 156.5 Z"
      /><path style="stroke:none;" d="M207 156.5 L295.877 90.8408 L290.3794 83.9871 L207 156.5 Z"
      /><path style="stroke:none;" d="M207 156.5 L290.3794 83.9871 L284.3546 77.5918 L207 156.5 Z"
      /><path style="stroke:none;" d="M207 156.5 L284.3546 77.5918 L277.8409 71.6954 L207 156.5 Z"
      /><path style="stroke:none;" d="M207 156.5 L277.8409 71.6954 L270.8792 66.3351 L207 156.5 Z"
      /><path style="stroke:none;" d="M207 156.5 L270.8792 66.3351 L263.5136 61.545 L207 156.5 Z"
      /><path style="stroke:none;" d="M207 156.5 L263.5136 61.545 L255.7908 57.3551 L207 156.5 Z"
      /><path style="stroke:none;" d="M207 156.5 L255.7908 57.3551 L247.7595 53.7921 L207 156.5 Z"
      /><path style="stroke:none;" d="M207 156.5 L247.7595 53.7921 L239.4705 50.8784 L207 156.5 Z"
      /><path style="stroke:none;" d="M207 156.5 L239.4705 50.8784 L230.9762 48.6325 L207 156.5 Z"
      /><path style="stroke:none;" d="M207 156.5 L230.9762 48.6325 L222.3303 47.0686 L207 156.5 Z"
      /><path style="stroke:none;" d="M207 156.5 L222.3303 47.0686 L213.5875 46.1965 L207 156.5 Z"
      /><path style="stroke:none;" d="M207 156.5 L213.5875 46.1965 L204.803 46.0218 L207 156.5 Z"
      /><path style="stroke:none;" d="M207 156.5 L204.803 46.0218 L196.0325 46.5456 L207 156.5 Z"
      /><path style="stroke:none;" d="M207 156.5 L196.0325 46.5456 L187.3312 47.7646 L207 156.5 Z"
      /><path style="stroke:none;" d="M207 156.5 L187.3312 47.7646 L178.7544 49.671 L207 156.5 Z"
      /><path style="stroke:none;" d="M207 156.5 L178.7544 49.671 L170.3561 52.2528 L207 156.5 Z"
      /><path style="stroke:none;" d="M207 156.5 L170.3561 52.2528 L162.1895 55.4937 L207 156.5 Z"
      /><path style="stroke:none;" d="M207 156.5 L162.1895 55.4937 L154.3061 59.3732 L207 156.5 Z"
      /><path style="stroke:none;" d="M207 156.5 L154.3061 59.3732 L146.756 63.8668 L207 156.5 Z"
      /><path style="stroke:none;" d="M207 156.5 L146.756 63.8668 L139.5867 68.946 L207 156.5 Z"
      /><path style="stroke:none;" d="M207 156.5 L139.5867 68.946 L132.8436 74.5788 L207 156.5 Z"
      /><path style="stroke:none;" d="M207 156.5 L132.8436 74.5788 L126.5694 80.7295 L207 156.5 Z"
      /><path style="stroke:none;" d="M207 156.5 L126.5694 80.7295 L120.8037 87.3593 L207 156.5 Z"
      /><path style="stroke:none;" d="M207 156.5 L120.8037 87.3593 L115.5829 94.4261 L207 156.5 Z"
      /><path style="stroke:none;" d="M207 156.5 L115.5829 94.4261 L110.9401 101.8855 L207 156.5 Z"
      /><path style="stroke:none;" d="M207 156.5 L110.9401 101.8855 L106.9046 109.6901 L207 156.5 Z"
      /><path style="stroke:none;" d="M207 156.5 L106.9046 109.6901 L103.502 117.7906 L207 156.5 Z"
      /><path style="stroke:none;" d="M207 156.5 L103.502 117.7906 L100.7537 126.1359 L207 156.5 Z"
      /><path style="stroke:none;" d="M207 156.5 L100.7537 126.1359 L98.6771 134.6732 L207 156.5 Z"
      /><path style="stroke:none;" d="M207 156.5 L98.6771 134.6732 L97.2854 143.3485 L207 156.5 Z"
      /><path style="stroke:none;" d="M207 156.5 L97.2854 143.3485 L96.5874 152.1069 L207 156.5 Z"
      /><path style="stroke:none;" d="M207 156.5 L96.5874 152.1069 L96.5874 160.8931 L207 156.5 Z"
      /><path style="stroke:none;" d="M207 156.5 L96.5874 160.8931 L97.2854 169.6515 L207 156.5 Z"
      /><path style="stroke:none;" d="M207 156.5 L97.2854 169.6515 L98.6771 178.3268 L207 156.5 Z"
      /><path style="stroke:none;" d="M207 156.5 L98.6771 178.3268 L100.7537 186.864 L207 156.5 Z"
      /><path style="stroke:none;" d="M207 156.5 L100.7537 186.864 L103.502 195.2094 L207 156.5 Z"
      /><path style="stroke:none;" d="M207 156.5 L103.502 195.2094 L106.9046 203.3099 L207 156.5 Z"
      /><path style="stroke:none;" d="M207 156.5 L106.9046 203.3099 L110.9401 211.1145 L207 156.5 Z"
      /><path style="stroke:none;" d="M207 156.5 L110.9401 211.1145 L115.5829 218.5739 L207 156.5 Z"
      /><path style="stroke:none;" d="M207 156.5 L115.5829 218.5739 L120.8037 225.6407 L207 156.5 Z"
      /><path style="stroke:none;" d="M207 156.5 L120.8037 225.6407 L126.5694 232.2705 L207 156.5 Z"
      /><path style="stroke:none;" d="M207 156.5 L126.5694 232.2705 L132.8436 238.4212 L207 156.5 Z"
      /><path style="stroke:none;" d="M207 156.5 L132.8436 238.4212 L139.5867 244.054 L207 156.5 Z"
      /><path style="stroke:none;" d="M207 156.5 L139.5867 244.054 L146.756 249.1332 L207 156.5 Z"
      /><path style="stroke:none;" d="M207 156.5 L146.756 249.1332 L154.3061 253.6268 L207 156.5 Z"
      /><path style="stroke:none;" d="M207 156.5 L154.3061 253.6268 L162.1895 257.5063 L207 156.5 Z"
      /><path style="stroke:none;" d="M207 156.5 L162.1895 257.5063 L170.3561 260.7472 L207 156.5 Z"
      /><path style="stroke:none;" d="M207 156.5 L170.3561 260.7472 L178.7544 263.329 L207 156.5 Z"
      /><path style="stroke:none;" d="M207 156.5 L178.7544 263.329 L187.3312 265.2354 L207 156.5 Z"
      /><path style="stroke:none;" d="M207 156.5 L187.3312 265.2354 L196.0325 266.4544 L207 156.5 Z"
      /><path style="stroke:none;" d="M207 156.5 L196.0325 266.4544 L204.803 266.9781 L207 156.5 Z"
      /><path style="stroke:none;" d="M207 156.5 L204.803 266.9781 L213.5875 266.8035 L207 156.5 Z"
      /><path style="stroke:none;" d="M207 156.5 L213.5875 266.8035 L222.3303 265.9314 L207 156.5 Z"
      /><path style="stroke:none;" d="M207 156.5 L222.3303 265.9314 L230.9762 264.3675 L207 156.5 Z"
      /><path style="stroke:none;" d="M207 156.5 L230.9762 264.3675 L239.4705 262.1216 L207 156.5 Z"
      /><path style="stroke:none;" d="M207 156.5 L239.4705 262.1216 L247.7595 259.2079 L207 156.5 Z"
      /><path style="stroke:none;" d="M207 156.5 L247.7595 259.2079 L255.7908 255.6449 L207 156.5 Z"
      /><path style="stroke:none;" d="M207 156.5 L255.7908 255.6449 L263.5136 251.455 L207 156.5 Z"
      /><path style="stroke:none;" d="M207 156.5 L263.5136 251.455 L270.8792 246.6649 L207 156.5 Z"
      /><path style="stroke:none;" d="M207 156.5 L270.8792 246.6649 L277.8409 241.3046 L207 156.5 Z"
      /><path style="stroke:none;" d="M207 156.5 L277.8409 241.3046 L284.3546 235.4082 L207 156.5 Z"
      /><path style="stroke:none;" d="M207 156.5 L284.3546 235.4082 L290.3794 229.0129 L207 156.5 Z"
      /><path style="stroke:none;" d="M207 156.5 L290.3794 229.0129 L295.877 222.1592 L207 156.5 Z"
      /><path style="stroke:none;" d="M207 156.5 L295.877 222.1592 L300.8127 214.8904 L207 156.5 Z"
      /><path style="stroke:none;" d="M207 156.5 L300.8127 214.8904 L305.1552 207.2523 L207 156.5 Z"
      /><path style="stroke:none;" d="M207 156.5 L305.1552 207.2523 L308.8772 199.2935 L207 156.5 Z"
      /><path style="stroke:none;" d="M207 156.5 L308.8772 199.2935 L311.9551 191.064 L207 156.5 Z"
      /><path style="stroke:none;" d="M207 156.5 L311.9551 191.064 L314.3694 182.6161 L207 156.5 Z"
      /><path style="stroke:none;" d="M207 156.5 L314.3694 182.6161 L316.105 174.003 L207 156.5 Z"
      /><path style="stroke:none;" d="M207 156.5 L316.105 174.003 L317.1507 165.2793 L207 156.5 Z"
      /><path style="stroke:none;" d="M207 156.5 L317.1507 165.2793 L317.5 156.5 L207 156.5 Z"
    /></g
    ><g style="stroke-linecap:butt; fill-opacity:0.149; fill:rgb(38,38,38); text-rendering:geometricPrecision; color-rendering:optimizeQuality; image-rendering:optimizeQuality; stroke-linejoin:round; color-interpolation:linearRGB; stroke:rgb(38,38,38); stroke-width:0.6667; stroke-opacity:0.149;"
    ><line y2="156.5" style="fill:none;" x1="207" x2="317.5" y1="156.5"
      /><line y2="78.3647" style="fill:none;" x1="207" x2="285.1353" y1="156.5"
      /><line y2="46" style="fill:none;" x1="207" x2="207" y1="156.5"
      /><line y2="78.3647" style="fill:none;" x1="207" x2="128.8647" y1="156.5"
      /><line y2="156.5" style="fill:none;" x1="207" x2="96.5" y1="156.5"
      /><line y2="234.6353" style="fill:none;" x1="207" x2="128.8647" y1="156.5"
      /><line y2="267" style="fill:none;" x1="207" x2="207" y1="156.5"
      /><line y2="234.6353" style="fill:none;" x1="207" x2="285.1353" y1="156.5"
      /><path d="M207 156.5 L207 156.5 L207 156.5 L207 156.5 L207 156.5 L207 156.5 L207 156.5 L207 156.5 L207 156.5 L207 156.5 L207 156.5 L207 156.5 L207 156.5 L207 156.5 L207 156.5 L207 156.5 L207 156.5 L207 156.5 L207 156.5 L207 156.5 L207 156.5 L207 156.5 L207 156.5 L207 156.5 L207 156.5 L207 156.5 L207 156.5 L207 156.5 L207 156.5 L207 156.5 L207 156.5 L207 156.5 L207 156.5 L207 156.5 L207 156.5 L207 156.5 L207 156.5 L207 156.5 L207 156.5 L207 156.5 L207 156.5 L207 156.5 L207 156.5 L207 156.5 L207 156.5 L207 156.5 L207 156.5 L207 156.5 L207 156.5 L207 156.5 L207 156.5 L207 156.5 L207 156.5 L207 156.5 L207 156.5 L207 156.5 L207 156.5 L207 156.5 L207 156.5 L207 156.5 L207 156.5 L207 156.5 L207 156.5 L207 156.5 L207 156.5 L207 156.5 L207 156.5 L207 156.5 L207 156.5 L207 156.5 L207 156.5 L207 156.5 L207 156.5 L207 156.5 L207 156.5 L207 156.5 L207 156.5 L207 156.5 L207 156.5 L207 156.5" style="fill:none; fill-rule:evenodd;"
      /><path d="M262.25 156.5 L262.0753 160.8896 L261.5525 165.2515 L260.6847 169.558 L259.4776 173.782 L257.9386 177.8967 L256.0776 181.8762 L253.9063 185.6952 L251.4385 189.3296 L248.6897 192.7565 L245.6773 195.9541 L242.4204 198.9023 L238.9396 201.5824 L235.2568 203.9775 L231.3954 206.0724 L227.3797 207.854 L223.2352 209.3108 L218.9881 210.4337 L214.6651 211.2157 L210.2937 211.6517 L205.9015 211.7391 L201.5162 211.4772 L197.1656 210.8677 L192.8772 209.9145 L188.678 208.6236 L184.5947 207.0031 L180.6531 205.0634 L176.878 202.8166 L173.2934 200.277 L169.9218 197.4606 L166.7847 194.3852 L163.9018 191.0704 L161.2915 187.5369 L158.9701 183.8073 L156.9523 179.905 L155.251 175.8547 L153.8769 171.682 L152.8386 167.4134 L152.1427 163.0758 L151.7937 158.6965 L151.7937 154.3035 L152.1427 149.9242 L152.8386 145.5866 L153.8769 141.318 L155.251 137.1453 L156.9523 133.095 L158.9701 129.1927 L161.2915 125.4631 L163.9018 121.9296 L166.7847 118.6148 L169.9218 115.5394 L173.2934 112.723 L176.878 110.1834 L180.6531 107.9366 L184.5947 105.9969 L188.678 104.3764 L192.8772 103.0855 L197.1656 102.1323 L201.5162 101.5228 L205.9015 101.2609 L210.2937 101.3483 L214.6651 101.7843 L218.9881 102.5663 L223.2352 103.6892 L227.3797 105.146 L231.3954 106.9276 L235.2568 109.0225 L238.9396 111.4176 L242.4204 114.0977 L245.6773 117.0459 L248.6897 120.2435 L251.4385 123.6704 L253.9063 127.3048 L256.0776 131.1238 L257.9386 135.1033 L259.4776 139.218 L260.6847 143.442 L261.5525 147.7485 L262.0753 152.1104 L262.25 156.5" style="fill:none; fill-rule:evenodd;"
      /><path d="M317.5 156.5 L317.1507 165.2793 L316.105 174.003 L314.3694 182.6161 L311.9551 191.064 L308.8772 199.2935 L305.1552 207.2523 L300.8127 214.8904 L295.877 222.1592 L290.3794 229.0129 L284.3546 235.4082 L277.8409 241.3046 L270.8792 246.6649 L263.5136 251.455 L255.7908 255.6449 L247.7595 259.2079 L239.4705 262.1216 L230.9762 264.3675 L222.3303 265.9314 L213.5875 266.8035 L204.803 266.9781 L196.0325 266.4544 L187.3312 265.2354 L178.7544 263.329 L170.3561 260.7472 L162.1895 257.5063 L154.3061 253.6268 L146.756 249.1332 L139.5867 244.054 L132.8436 238.4212 L126.5694 232.2705 L120.8037 225.6407 L115.5829 218.5739 L110.9401 211.1145 L106.9046 203.3099 L103.502 195.2094 L100.7537 186.864 L98.6771 178.3268 L97.2854 169.6515 L96.5874 160.8931 L96.5874 152.1069 L97.2854 143.3485 L98.6771 134.6732 L100.7537 126.1359 L103.502 117.7906 L106.9046 109.6901 L110.9401 101.8855 L115.5829 94.4261 L120.8037 87.3593 L126.5694 80.7295 L132.8436 74.5788 L139.5867 68.946 L146.756 63.8668 L154.3061 59.3732 L162.1895 55.4937 L170.3561 52.2528 L178.7544 49.671 L187.3312 47.7646 L196.0325 46.5456 L204.803 46.0218 L213.5875 46.1965 L222.3303 47.0686 L230.9762 48.6325 L239.4705 50.8784 L247.7595 53.7921 L255.7908 57.3551 L263.5136 61.545 L270.8792 66.3351 L277.8409 71.6954 L284.3546 77.5918 L290.3794 83.9871 L295.877 90.8408 L300.8127 98.1096 L305.1552 105.7477 L308.8772 113.7065 L311.9551 121.936 L314.3694 130.3839 L316.105 138.997 L317.1507 147.7207 L317.5 156.5" style="fill:none; fill-rule:evenodd;"
      /><path d="M317.5 156.5 L317.1507 147.7207 L316.105 138.997 L314.3694 130.3839 L311.9551 121.936 L308.8772 113.7065 L305.1552 105.7477 L300.8127 98.1096 L295.877 90.8408 L290.3794 83.9871 L284.3546 77.5918 L277.8409 71.6954 L270.8792 66.3351 L263.5136 61.545 L255.7908 57.3551 L247.7595 53.7921 L239.4705 50.8784 L230.9762 48.6325 L222.3303 47.0686 L213.5875 46.1965 L204.803 46.0218 L196.0325 46.5456 L187.3312 47.7646 L178.7544 49.671 L170.3561 52.2528 L162.1895 55.4937 L154.3061 59.3732 L146.756 63.8668 L139.5867 68.946 L132.8436 74.5788 L126.5694 80.7295 L120.8037 87.3593 L115.5829 94.4261 L110.9401 101.8855 L106.9046 109.6901 L103.502 117.7906 L100.7537 126.1359 L98.6771 134.6732 L97.2854 143.3485 L96.5874 152.1069 L96.5874 160.8931 L97.2854 169.6515 L98.6771 178.3268 L100.7537 186.864 L103.502 195.2094 L106.9046 203.3099 L110.9401 211.1145 L115.5829 218.5739 L120.8037 225.6407 L126.5694 232.2705 L132.8436 238.4212 L139.5867 244.054 L146.756 249.1332 L154.3061 253.6268 L162.1895 257.5063 L170.3561 260.7472 L178.7544 263.329 L187.3312 265.2354 L196.0325 266.4544 L204.803 266.9781 L213.5875 266.8035 L222.3303 265.9314 L230.9762 264.3675 L239.4705 262.1216 L247.7595 259.2079 L255.7908 255.6449 L263.5136 251.455 L270.8792 246.6649 L277.8409 241.3046 L284.3546 235.4082 L290.3794 229.0129 L295.877 222.1592 L300.8127 214.8904 L305.1552 207.2523 L308.8772 199.2935 L311.9551 191.064 L314.3694 182.6161 L316.105 174.003 L317.1507 165.2793 L317.5 156.5" style="fill:none; fill-rule:evenodd; stroke-linecap:square;"
    /></g
    ><g transform="translate(323,163)" style="font-size:13px; fill:rgb(38,38,38); text-rendering:geometricPrecision; color-rendering:optimizeQuality; image-rendering:optimizeQuality; font-family:'SansSerif'; color-interpolation:linearRGB; stroke:rgb(38,38,38);"
</font>
</defs>
</svg>
