<?xml version="1.0" encoding="UTF-8" standalone="no"?>
<svg
   xmlns:dc="http://purl.org/dc/elements/1.1/"
   xmlns:cc="http://creativecommons.org/ns#"
   xmlns:rdf="http://www.w3.org/1999/02/22-rdf-syntax-ns#"
   xmlns:svg="http://www.w3.org/2000/svg"
   xmlns="http://www.w3.org/2000/svg"
   xmlns:sodipodi="http://sodipodi.sourceforge.net/DTD/sodipodi-0.dtd"
   xmlns:inkscape="http://www.inkscape.org/namespaces/inkscape"
   style="font-style:normal;font-weight:normal;font-size:12px;font-family:Dialog;color-interpolation:auto;fill:#000000;fill-opacity:1;stroke:#000000;stroke-width:1;stroke-linecap:square;stroke-linejoin:miter;stroke-miterlimit:10;stroke-dasharray:none;stroke-dashoffset:0;stroke-opacity:1;color-rendering:auto;image-rendering:auto;shape-rendering:auto;text-rendering:auto"
   width="330"
   height="300"
   version="1.1"
   id="svg253"
   sodipodi:docname="polar_doa_sub.svg"
   inkscape:version="0.92.2 (5c3e80d, 2017-08-06)">
  <metadata
     id="metadata257">
    <rdf:RDF>
      <cc:Work
         rdf:about="">
        <dc:format>image/svg+xml</dc:format>
        <dc:type
           rdf:resource="http://purl.org/dc/dcmitype/StillImage" />
        <dc:title></dc:title>
      </cc:Work>
    </rdf:RDF>
  </metadata>
  <sodipodi:namedview
     pagecolor="#ffffff"
     bordercolor="#666666"
     borderopacity="1"
     objecttolerance="10"
     gridtolerance="10"
     guidetolerance="10"
     inkscape:pageopacity="0"
     inkscape:pageshadow="2"
     inkscape:window-width="1280"
     inkscape:window-height="961"
     id="namedview255"
     showgrid="false"
     inkscape:zoom="0.72478445"
     inkscape:cx="128.80316"
     inkscape:cy="336.49001"
     inkscape:window-x="-8"
     inkscape:window-y="1"
     inkscape:window-maximized="1"
     inkscape:current-layer="svg253" />
  <!--Generated by the Batik Graphics2D SVG Generator-->
  <defs
     id="genericDefs">
    <clipPath
       clipPathUnits="userSpaceOnUse"
       id="clipPath1">
      <path
         inkscape:connector-curvature="0"
         d="M 0,0 H 400 V 300 H 0 Z"
         id="path3" />
    </clipPath>
    <clipPath
       clipPathUnits="userSpaceOnUse"
       id="clipPath1076">
      <path
         inkscape:connector-curvature="0"
         d="M 0,0 H 400 V 300 H 0 Z"
         id="path1074" />
    </clipPath>
    <clipPath
       clipPathUnits="userSpaceOnUse"
       id="clipPath1-6">
      <path
         inkscape:connector-curvature="0"
         d="M 0,0 H 400 V 300 H 0 Z"
         id="path3-1" />
    </clipPath>
    <clipPath
       clipPathUnits="userSpaceOnUse"
       id="clipPath1076-1">
      <path
         inkscape:connector-curvature="0"
         d="M 0,0 H 400 V 300 H 0 Z"
         id="path1074-5" />
    </clipPath>
    <clipPath
       clipPathUnits="userSpaceOnUse"
       id="clipPath1-9">
      <path
         inkscape:connector-curvature="0"
         d="M 0,0 H 400 V 300 H 0 Z"
         id="path3-7" />
    </clipPath>
    <clipPath
       clipPathUnits="userSpaceOnUse"
       id="clipPath1028">
      <path
         inkscape:connector-curvature="0"
         d="M 0,0 H 400 V 300 H 0 Z"
         id="path1026" />
    </clipPath>
    <clipPath
       clipPathUnits="userSpaceOnUse"
       id="clipPath1-68">
      <path
         inkscape:connector-curvature="0"
         d="M 0,0 H 400 V 300 H 0 Z"
         id="path3-2" />
    </clipPath>
    <clipPath
       clipPathUnits="userSpaceOnUse"
       id="clipPath1032">
      <path
         inkscape:connector-curvature="0"
         d="M 0,0 H 400 V 300 H 0 Z"
         id="path1030" />
    </clipPath>
  </defs>
  <flowRoot
     xml:space="preserve"
     id="flowRoot1170"
     style="font-style:normal;font-weight:normal;font-size:40px;line-height:1.25;font-family:sans-serif;letter-spacing:0px;word-spacing:0px;fill:#000000;fill-opacity:1;stroke:none"
     transform="translate(0,-120)"><flowRegion
       id="flowRegion1172"><rect
         id="rect1174"
         width="4.9596829"
         height="68.38755"
         x="143.33299"
         y="346.73441" /></flowRegion><flowPara
       id="flowPara1176" /></flowRoot>  <g
     style="font-style:normal;font-weight:normal;font-size:12px;font-family:Dialog;color-interpolation:auto;fill:#000000;fill-opacity:1;stroke:#000000;stroke-width:1;stroke-linecap:square;stroke-linejoin:miter;stroke-miterlimit:10;stroke-dasharray:none;stroke-dashoffset:0;stroke-opacity:1;color-rendering:auto;image-rendering:auto;shape-rendering:auto;text-rendering:auto"
     id="g207"
     transform="translate(-39.219512,0.73170415)">
    <defs
       id="defs1">
      <clipPath
         clipPathUnits="userSpaceOnUse"
         id="clipPath1177">
        <path
           inkscape:connector-curvature="0"
           d="M 0,0 H 400 V 300 H 0 Z"
           id="path1175" />
      </clipPath>
    </defs>
    <g
       style="fill:#ffffff;stroke:#ffffff"
       id="g9">
      <rect
         x="0"
         y="0"
         width="400"
         style="stroke:none"
         height="300"
         clip-path="url(#clipPath1-68)"
         id="rect7" />
    </g>
    <g
       style="color-interpolation:sRGB;fill:#ffffff;stroke:#ffffff;color-rendering:optimizeSpeed;image-rendering:optimizeSpeed;shape-rendering:crispEdges;text-rendering:optimizeSpeed"
       id="g171">
      <rect
         x="0"
         width="400"
         height="300"
         y="0"
         style="stroke:none"
         id="rect11" />
      <path
         inkscape:connector-curvature="0"
         style="stroke:none"
         d="m 207,144.5 h 122.5 l -0.3872,-9.7327 z"
         id="path13" />
      <path
         inkscape:connector-curvature="0"
         style="stroke:none"
         d="m 207,144.5 122.1128,-9.7327 -1.1593,-9.6711 z"
         id="path15" />
      <path
         inkscape:connector-curvature="0"
         style="stroke:none"
         d="m 207,144.5 120.9535,-19.4038 -1.924,-9.5484 z"
         id="path17" />
      <path
         inkscape:connector-curvature="0"
         style="stroke:none"
         d="m 207,144.5 119.0295,-28.9522 -2.6765,-9.3654 z"
         id="path19" />
      <path
         inkscape:connector-curvature="0"
         style="stroke:none"
         d="m 207,144.5 116.353,-38.3176 -3.4122,-9.1231 z"
         id="path21" />
      <path
         inkscape:connector-curvature="0"
         style="stroke:none"
         d="M 207,144.5 319.9408,97.0593 315.8146,88.2361 Z"
         id="path23" />
      <path
         inkscape:connector-curvature="0"
         style="stroke:none"
         d="M 207,144.5 315.8146,88.2361 311.0005,79.7686 Z"
         id="path25" />
      <path
         inkscape:connector-curvature="0"
         style="stroke:none"
         d="M 207,144.5 311.0005,79.7686 305.5288,71.7104 Z"
         id="path27" />
      <path
         inkscape:connector-curvature="0"
         style="stroke:none"
         d="m 207,144.5 98.5288,-72.7896 -6.0946,-7.598 z"
         id="path29" />
      <path
         inkscape:connector-curvature="0"
         style="stroke:none"
         d="m 207,144.5 92.4342,-80.3876 -6.679,-7.0898 z"
         id="path31" />
      <path
         inkscape:connector-curvature="0"
         style="stroke:none"
         d="M 207,144.5 292.7552,57.0226 285.534,50.4858 Z"
         id="path33" />
      <path
         inkscape:connector-curvature="0"
         style="stroke:none"
         d="m 207,144.5 78.534,-94.0142 -7.7177,-5.9423 z"
         id="path35" />
      <path
         inkscape:connector-curvature="0"
         style="stroke:none"
         d="m 207,144.5 70.8163,-99.9565 -8.1655,-5.3104 z"
         id="path37" />
      <path
         inkscape:connector-curvature="0"
         style="stroke:none"
         d="M 207,144.5 269.6508,39.2331 261.0893,34.5882 Z"
         id="path39" />
      <path
         inkscape:connector-curvature="0"
         style="stroke:none"
         d="M 207,144.5 261.0893,34.5882 252.1858,30.6383 Z"
         id="path41" />
      <path
         inkscape:connector-curvature="0"
         style="stroke:none"
         d="M 207,144.5 252.1858,30.6383 242.9967,27.4082 Z"
         id="path43" />
      <path
         inkscape:connector-curvature="0"
         style="stroke:none"
         d="M 207,144.5 242.9967,27.4082 233.5799,24.9184 Z"
         id="path45" />
      <path
         inkscape:connector-curvature="0"
         style="stroke:none"
         d="M 207,144.5 233.5799,24.9184 223.9951,23.1846 Z"
         id="path47" />
      <path
         inkscape:connector-curvature="0"
         style="stroke:none"
         d="M 207,144.5 223.9951,23.1846 214.3029,22.2179 Z"
         id="path49" />
      <path
         inkscape:connector-curvature="0"
         style="stroke:none"
         d="m 207,144.5 7.3029,-122.2821 -9.7385,-0.1937 z"
         id="path51" />
      <path
         inkscape:connector-curvature="0"
         style="stroke:none"
         d="m 207,144.5 -2.4356,-122.4758 -9.723,0.5807 z"
         id="path53" />
      <path
         inkscape:connector-curvature="0"
         style="stroke:none"
         d="M 207,144.5 194.8414,22.6049 185.1953,23.9562 Z"
         id="path55" />
      <path
         inkscape:connector-curvature="0"
         style="stroke:none"
         d="M 207,144.5 185.1953,23.9562 175.687,26.0697 Z"
         id="path57" />
      <path
         inkscape:connector-curvature="0"
         style="stroke:none"
         d="M 207,144.5 175.687,26.0697 166.3766,28.9319 Z"
         id="path59" />
      <path
         inkscape:connector-curvature="0"
         style="stroke:none"
         d="M 207,144.5 166.3766,28.9319 157.3232,32.5247 Z"
         id="path61" />
      <path
         inkscape:connector-curvature="0"
         style="stroke:none"
         d="M 207,144.5 157.3232,32.5247 148.5837,36.8255 Z"
         id="path63" />
      <path
         inkscape:connector-curvature="0"
         style="stroke:none"
         d="M 207,144.5 148.5837,36.8255 140.2136,41.8071 Z"
         id="path65" />
      <path
         inkscape:connector-curvature="0"
         style="stroke:none"
         d="M 207,144.5 140.2136,41.8071 132.2658,47.4379 Z"
         id="path67" />
      <path
         inkscape:connector-curvature="0"
         style="stroke:none"
         d="m 207,144.5 -74.7342,-97.0621 -7.4754,6.2445 z"
         id="path69" />
      <path
         inkscape:connector-curvature="0"
         style="stroke:none"
         d="M 207,144.5 124.7904,53.6824 117.8348,60.501 Z"
         id="path71" />
      <path
         inkscape:connector-curvature="0"
         style="stroke:none"
         d="M 207,144.5 117.8348,60.501 111.443,67.8508 Z"
         id="path73" />
      <path
         inkscape:connector-curvature="0"
         style="stroke:none"
         d="m 207,144.5 -95.557,-76.6492 -5.7877,7.8343 z"
         id="path75" />
      <path
         inkscape:connector-curvature="0"
         style="stroke:none"
         d="m 207,144.5 -101.3447,-68.8149 -5.147,8.2694 z"
         id="path77" />
      <path
         inkscape:connector-curvature="0"
         style="stroke:none"
         d="M 207,144.5 100.5083,83.9545 96.0346,92.6067 Z"
         id="path79" />
      <path
         inkscape:connector-curvature="0"
         style="stroke:none"
         d="M 207,144.5 96.0346,92.6067 l -3.7722,8.9802 z"
         id="path81" />
      <path
         inkscape:connector-curvature="0"
         style="stroke:none"
         d="M 207,144.5 92.2624,101.5869 89.2157,110.8385 Z"
         id="path83" />
      <path
         inkscape:connector-curvature="0"
         style="stroke:none"
         d="M 207,144.5 89.2157,110.8385 86.9136,120.3029 Z"
         id="path85" />
      <path
         inkscape:connector-curvature="0"
         style="stroke:none"
         d="M 207,144.5 86.9136,120.3029 85.3707,129.9203 Z"
         id="path87" />
      <path
         inkscape:connector-curvature="0"
         style="stroke:none"
         d="M 207,144.5 85.3707,129.9203 84.5968,139.6298 Z"
         id="path89" />
      <path
         inkscape:connector-curvature="0"
         style="stroke:none"
         d="M 207,144.5 84.5968,139.6298 v 9.7404 z"
         id="path91" />
      <path
         inkscape:connector-curvature="0"
         style="stroke:none"
         d="m 207,144.5 -122.4032,4.8702 0.7739,9.7095 z"
         id="path93" />
      <path
         inkscape:connector-curvature="0"
         style="stroke:none"
         d="m 207,144.5 -121.6293,14.5797 1.5429,9.6174 z"
         id="path95" />
      <path
         inkscape:connector-curvature="0"
         style="stroke:none"
         d="m 207,144.5 -120.0864,24.1971 2.3021,9.4644 z"
         id="path97" />
      <path
         inkscape:connector-curvature="0"
         style="stroke:none"
         d="m 207,144.5 -117.7843,33.6615 3.0467,9.2516 z"
         id="path99" />
      <path
         inkscape:connector-curvature="0"
         style="stroke:none"
         d="m 207,144.5 -114.7376,42.9131 3.7722,8.9802 z"
         id="path101" />
      <path
         inkscape:connector-curvature="0"
         style="stroke:none"
         d="m 207,144.5 -110.9654,51.8933 4.4737,8.6522 z"
         id="path103" />
      <path
         inkscape:connector-curvature="0"
         style="stroke:none"
         d="m 207,144.5 -106.4917,60.5455 5.147,8.2694 z"
         id="path105" />
      <path
         inkscape:connector-curvature="0"
         style="stroke:none"
         d="m 207,144.5 -101.3447,68.8149 5.7877,7.8343 z"
         id="path107" />
      <path
         inkscape:connector-curvature="0"
         style="stroke:none"
         d="m 207,144.5 -95.557,76.6492 6.3918,7.3498 z"
         id="path109" />
      <path
         inkscape:connector-curvature="0"
         style="stroke:none"
         d="m 207,144.5 -89.1652,83.999 6.9556,6.8186 z"
         id="path111" />
      <path
         inkscape:connector-curvature="0"
         style="stroke:none"
         d="m 207,144.5 -82.2096,90.8176 7.4754,6.2445 z"
         id="path113" />
      <path
         inkscape:connector-curvature="0"
         style="stroke:none"
         d="m 207,144.5 -74.7342,97.0621 7.9478,5.6308 z"
         id="path115" />
      <path
         inkscape:connector-curvature="0"
         style="stroke:none"
         d="m 207,144.5 -66.7864,102.6929 8.3701,4.9816 z"
         id="path117" />
      <path
         inkscape:connector-curvature="0"
         style="stroke:none"
         d="m 207,144.5 -58.4163,107.6745 8.7395,4.3008 z"
         id="path119" />
      <path
         inkscape:connector-curvature="0"
         style="stroke:none"
         d="m 207,144.5 -49.6768,111.9753 9.0534,3.5928 z"
         id="path121" />
      <path
         inkscape:connector-curvature="0"
         style="stroke:none"
         d="m 207,144.5 -40.6234,115.5681 9.3104,2.8622 z"
         id="path123" />
      <path
         inkscape:connector-curvature="0"
         style="stroke:none"
         d="m 207,144.5 -31.313,118.4303 9.5083,2.1135 z"
         id="path125" />
      <path
         inkscape:connector-curvature="0"
         style="stroke:none"
         d="m 207,144.5 -21.8047,120.5438 9.6461,1.3513 z"
         id="path127" />
      <path
         inkscape:connector-curvature="0"
         style="stroke:none"
         d="m 207,144.5 -12.1586,121.8951 9.723,0.5807 z"
         id="path129" />
      <path
         inkscape:connector-curvature="0"
         style="stroke:none"
         d="m 207,144.5 -2.4356,122.4758 9.7385,-0.1937 z"
         id="path131" />
      <path
         inkscape:connector-curvature="0"
         style="stroke:none"
         d="m 207,144.5 7.3029,122.2821 9.6922,-0.9667 z"
         id="path133" />
      <path
         inkscape:connector-curvature="0"
         style="stroke:none"
         d="m 207,144.5 16.9951,121.3154 9.5848,-1.7338 z"
         id="path135" />
      <path
         inkscape:connector-curvature="0"
         style="stroke:none"
         d="m 207,144.5 26.5799,119.5816 9.4168,-2.4898 z"
         id="path137" />
      <path
         inkscape:connector-curvature="0"
         style="stroke:none"
         d="m 207,144.5 35.9967,117.0918 9.1891,-3.2301 z"
         id="path139" />
      <path
         inkscape:connector-curvature="0"
         style="stroke:none"
         d="m 207,144.5 45.1858,113.8617 8.9035,-3.9499 z"
         id="path141" />
      <path
         inkscape:connector-curvature="0"
         style="stroke:none"
         d="m 207,144.5 54.0893,109.9118 8.5615,-4.6449 z"
         id="path143" />
      <path
         inkscape:connector-curvature="0"
         style="stroke:none"
         d="m 207,144.5 62.6508,105.2669 8.1655,-5.3104 z"
         id="path145" />
      <path
         inkscape:connector-curvature="0"
         style="stroke:none"
         d="m 207,144.5 70.8163,99.9565 7.7177,-5.9423 z"
         id="path147" />
      <path
         inkscape:connector-curvature="0"
         style="stroke:none"
         d="m 207,144.5 78.534,94.0142 7.2212,-6.5368 z"
         id="path149" />
      <path
         inkscape:connector-curvature="0"
         style="stroke:none"
         d="m 207,144.5 85.7552,87.4774 6.679,-7.0898 z"
         id="path151" />
      <path
         inkscape:connector-curvature="0"
         style="stroke:none"
         d="m 207,144.5 92.4342,80.3876 6.0946,-7.598 z"
         id="path153" />
      <path
         inkscape:connector-curvature="0"
         style="stroke:none"
         d="m 207,144.5 98.5288,72.7896 5.4717,-8.0582 z"
         id="path155" />
      <path
         inkscape:connector-curvature="0"
         style="stroke:none"
         d="m 207,144.5 104.0005,64.7314 4.8141,-8.4675 z"
         id="path157" />
      <path
         inkscape:connector-curvature="0"
         style="stroke:none"
         d="m 207,144.5 108.8146,56.2639 4.1262,-8.8232 z"
         id="path159" />
      <path
         inkscape:connector-curvature="0"
         style="stroke:none"
         d="m 207,144.5 112.9408,47.4407 3.4122,-9.1231 z"
         id="path161" />
      <path
         inkscape:connector-curvature="0"
         style="stroke:none"
         d="m 207,144.5 116.353,38.3176 2.6765,-9.3654 z"
         id="path163" />
      <path
         inkscape:connector-curvature="0"
         style="stroke:none"
         d="m 207,144.5 119.0295,28.9522 1.924,-9.5484 z"
         id="path165" />
      <path
         inkscape:connector-curvature="0"
         style="stroke:none"
         d="m 207,144.5 120.9535,19.4038 1.1593,-9.6711 z"
         id="path167" />
      <path
         inkscape:connector-curvature="0"
         style="stroke:none"
         d="M 207,144.5 329.1128,154.2327 329.5,144.5 Z"
         id="path169" />
    </g>
    <g
       style="color-interpolation:linearRGB;fill:#262626;fill-opacity:0.14900004;stroke:#262626;stroke-width:0.66670001;stroke-linecap:butt;stroke-linejoin:round;stroke-opacity:0.14900004;color-rendering:optimizeQuality;image-rendering:optimizeQuality;text-rendering:geometricPrecision"
       id="g197">
      <line
         y2="144.5"
         style="fill:none"
         x1="207"
         x2="329.5"
         y1="144.5"
         id="line173" />
      <line
         y2="57.879398"
         style="fill:none"
         x1="207"
         x2="293.62061"
         y1="144.5"
         id="line175" />
      <line
         y2="22"
         style="fill:none"
         x1="207"
         x2="207"
         y1="144.5"
         id="line177" />
      <line
         y2="57.879398"
         style="fill:none"
         x1="207"
         x2="120.3794"
         y1="144.5"
         id="line179" />
      <line
         y2="144.5"
         style="fill:none"
         x1="207"
         x2="84.5"
         y1="144.5"
         id="line181" />
      <line
         y2="231.12061"
         style="fill:none"
         x1="207"
         x2="120.3794"
         y1="144.5"
         id="line183" />
      <line
         y2="267"
         style="fill:none"
         x1="207"
         x2="207"
         y1="144.5"
         id="line185" />
      <line
         y2="231.12061"
         style="fill:none"
         x1="207"
         x2="293.62061"
         y1="144.5"
         id="line187" />
      <path
         inkscape:connector-curvature="0"
         d="m 207,144.5 v 0 0 0 0 0 0 0 0 0 0 0 0 0 0 0 0 0 0 0 0 0 0 0 0 0 0 0 0 0 0 0 0 0 0 0 0 0 0 0 0 0 0 0 0 0 0 0 0 0 0 0 0 0 0 0 0 0 0 0 0 0 0 0 0 0 0 0 0 0 0 0 0 0 0 0 0 0 0 0"
         style="fill:none;fill-rule:evenodd"
         id="path189" />
      <path
         inkscape:connector-curvature="0"
         d="m 268.25,144.5 -0.1936,4.8663 -0.5797,4.8356 -0.962,4.7742 -1.3382,4.6827 -1.7061,4.5616 -2.0631,4.4116 -2.4071,4.2337 -2.7358,4.0291 -3.0473,3.799 -3.3395,3.5449 -3.6106,3.2684 -3.8589,2.9712 -4.0827,2.6552 -4.2807,2.3224 -4.4518,1.975 -4.5946,1.615 -4.7084,1.2449 -4.7923,0.8669 -4.8462,0.4834 -4.8692,0.0968 -4.8615,-0.2903 -4.8231,-0.6757 -4.7541,-1.0567 -4.6552,-1.4311 -4.5267,-1.7965 -4.3697,-2.1504 -4.1851,-2.4907 -3.9739,-2.8155 -3.7377,-3.1222 -3.4778,-3.4093 -3.1959,-3.6749 -2.8939,-3.9171 -2.5735,-4.1347 -2.2368,-4.3261 -1.8861,-4.4902 -1.5234,-4.6258 -1.151,-4.7321 -0.7714,-4.8087 -0.387,-4.8548 v -4.8702 l 0.387,-4.8548 0.7714,-4.8087 1.151,-4.7321 1.5234,-4.6258 1.8861,-4.4902 2.2368,-4.3261 2.5735,-4.1347 2.8939,-3.9171 3.1959,-3.6749 3.4778,-3.4093 3.7377,-3.1222 3.9739,-2.8155 4.1851,-2.4907 4.3697,-2.1504 4.5267,-1.7965 4.6552,-1.4311 4.7541,-1.0567 4.8231,-0.6757 4.8615,-0.2903 4.8692,0.0968 4.8462,0.4834 4.7923,0.8669 4.7084,1.2449 4.5946,1.615 4.4518,1.975 4.2807,2.3224 4.0827,2.6552 3.8589,2.9712 3.6106,3.2684 3.3395,3.5449 3.0473,3.799 2.7358,4.0291 2.4071,4.2337 2.0631,4.4116 1.7061,4.5616 1.3382,4.6827 0.962,4.7742 0.5797,4.8356 0.1936,4.8663"
         style="fill:none;fill-rule:evenodd"
         id="path191" />
      <path
         inkscape:connector-curvature="0"
         d="m 329.5,144.5 -0.3872,9.7327 -1.1593,9.6711 -1.924,9.5484 -2.6765,9.3654 -3.4122,9.1231 -4.1262,8.8232 -4.8141,8.4675 -5.4717,8.0582 -6.0946,7.598 -6.679,7.0898 -7.2212,6.5368 -7.7177,5.9423 -8.1655,5.3104 -8.5615,4.6449 -8.9035,3.9499 -9.1891,3.2301 -9.4168,2.4898 -9.5848,1.7338 -9.6922,0.9667 -9.7385,0.1937 -9.723,-0.5807 -9.6461,-1.3513 -9.5083,-2.1135 -9.3104,-2.8622 -9.0534,-3.5928 -8.7395,-4.3008 -8.3701,-4.9816 -7.9478,-5.6308 -7.4754,-6.2445 -6.9556,-6.8186 -6.3918,-7.3498 -5.7877,-7.8343 -5.147,-8.2694 -4.4737,-8.6522 -3.7722,-8.9802 -3.0467,-9.2516 -2.3021,-9.4644 -1.5429,-9.6174 -0.7739,-9.7095 v -9.7404 l 0.7739,-9.7095 1.5429,-9.6174 2.3021,-9.4644 3.0467,-9.2516 3.7722,-8.9802 4.4737,-8.6522 5.147,-8.2694 5.7877,-7.8343 6.3918,-7.3498 6.9556,-6.8186 7.4754,-6.2445 7.9478,-5.6308 8.3701,-4.9816 8.7395,-4.3008 9.0534,-3.5928 9.3104,-2.8622 9.5083,-2.1135 9.6461,-1.3513 9.723,-0.5807 9.7385,0.1937 9.6922,0.9667 9.5848,1.7338 9.4168,2.4898 9.1891,3.2301 8.9035,3.9499 8.5615,4.6449 8.1655,5.3104 7.7177,5.9423 7.2212,6.5368 6.679,7.0898 6.0946,7.598 5.4717,8.0582 4.8141,8.4675 4.1262,8.8232 3.4122,9.1231 2.6765,9.3654 1.924,9.5484 1.1593,9.6711 0.3872,9.7327"
         style="fill:none;fill-rule:evenodd"
         id="path193" />
      <path
         inkscape:connector-curvature="0"
         d="m 329.5,144.5 -0.3872,-9.7327 -1.1593,-9.6711 -1.924,-9.5484 -2.6765,-9.3654 -3.4122,-9.1231 -4.1262,-8.8232 -4.8141,-8.4675 -5.4717,-8.0582 -6.0946,-7.598 -6.679,-7.0898 -7.2212,-6.5368 -7.7177,-5.9423 -8.1655,-5.3104 -8.5615,-4.6449 -8.9035,-3.9499 -9.1891,-3.2301 -9.4168,-2.4898 -9.5848,-1.7338 -9.6922,-0.9667 -9.7385,-0.1937 -9.723,0.5807 -9.6461,1.3513 -9.5083,2.1135 -9.3104,2.8622 -9.0534,3.5928 -8.7395,4.3008 -8.3701,4.9816 -7.9478,5.6308 -7.4754,6.2445 -6.9556,6.8186 -6.3918,7.3498 -5.7877,7.8343 -5.147,8.2694 -4.4737,8.6522 -3.7722,8.9802 -3.0467,9.2516 -2.3021,9.4644 -1.5429,9.6174 -0.7739,9.7095 v 9.7404 l 0.7739,9.7095 1.5429,9.6174 2.3021,9.4644 3.0467,9.2516 3.7722,8.9802 4.4737,8.6522 5.147,8.2694 5.7877,7.8343 6.3918,7.3498 6.9556,6.8186 7.4754,6.2445 7.9478,5.6308 8.3701,4.9816 8.7395,4.3008 9.0534,3.5928 9.3104,2.8622 9.5083,2.1135 9.6461,1.3513 9.723,0.5807 9.7385,-0.1937 9.6922,-0.9667 9.5848,-1.7338 9.4168,-2.4898 9.1891,-3.2301 8.9035,-3.9499 8.5615,-4.6449 8.1655,-5.3104 7.7177,-5.9423 7.2212,-6.5368 6.679,-7.0898 6.0946,-7.598 5.4717,-8.0582 4.8141,-8.4675 4.1262,-8.8232 3.4122,-9.1231 2.6765,-9.3654 1.924,-9.5484 1.1593,-9.6711 L 329.5,144.5"
         style="fill:none;fill-rule:evenodd;stroke-linecap:square"
         id="path195" />
    </g>
    <g
       style="color-interpolation:linearRGB;fill:#be1e3c;stroke:#be1e3c;stroke-width:2.66669989;stroke-linecap:butt;stroke-linejoin:round;color-rendering:optimizeQuality;image-rendering:optimizeQuality;text-rendering:geometricPrecision"
       id="g205">
      <path
         inkscape:connector-curvature="0"
         d="m 207.0678,144.5 0.001,-0.001 0.002,-0.001 0.002,-10e-4 0.003,-0.001 0.004,-0.002 0.004,-0.002 0.005,-0.002 0.006,-0.002 0.007,-0.003 0.008,-0.003 0.009,-0.004 0.01,-0.004 0.0111,-0.005 0.0123,-0.006 0.0136,-0.006 0.015,-0.007 0.0163,-0.009 0.0179,-0.01 0.0194,-0.0109 0.021,-0.0122 0.0227,-0.0139 0.0244,-0.0155 0.0261,-0.0173 0.028,-0.0194 0.0299,-0.0215 0.0317,-0.0238 0.0337,-0.0263 0.0356,-0.0291 0.0375,-0.0319 0.0396,-0.0351 0.0414,-0.0383 0.0435,-0.0418 0.0453,-0.0456 0.0473,-0.0495 0.0492,-0.0537 0.051,-0.0581 0.0528,-0.0629 0.0546,-0.0677 0.0562,-0.0729 0.0578,-0.0784 0.0594,-0.0841 0.0608,-0.0901 0.0621,-0.0964 0.0633,-0.103 0.0644,-0.11 0.0654,-0.1171 0.0663,-0.1248 0.0668,-0.1326 0.0674,-0.1409 0.0677,-0.1494 0.0678,-0.1584 0.0677,-0.1678 0.0673,-0.1775 0.0668,-0.1876 0.066,-0.1981 0.0648,-0.209 0.0634,-0.2203 0.0617,-0.2321 0.0596,-0.2443 0.0571,-0.2569 0.0543,-0.27 0.051,-0.2835 0.0473,-0.2975 0.0431,-0.3118 0.0385,-0.3267 0.0332,-0.342 0.0274,-0.3577 0.0211,-0.3739 0.0141,-0.3905 0.006,-0.4074 -0.002,-0.4248 -0.011,-0.4426 -0.0207,-0.4607 -0.0314,-0.4793 -0.0428,-0.498 -0.055,-0.5171 -0.0682,-0.5365 -0.0823,-0.556 -0.0973,-0.5758 -0.1134,-0.5958 -0.1303,-0.6158 -0.1484,-0.636 -0.1675,-0.6561 -0.1877,-0.6763 -0.209,-0.6962 -0.2315,-0.7162 -0.2549,-0.736 -0.2798,-0.7553 -0.3055,-0.7746 -0.3327,-0.7932 -0.3608,-0.8116 -0.3903,-0.8294 -0.4208,-0.8466 -0.4526,-0.8631 -0.4854,-0.8789 -0.5195,-0.8939 -0.5546,-0.9079 -0.5909,-0.9211 -0.6282,-0.9331 -0.6666,-0.9441 -0.7058,-0.9538 -0.7462,-0.9623 -0.7874,-0.9695 -0.8295,-0.9751 -0.8723,-0.9792 -0.9159,-0.9819 -0.9602,-0.9829 -1.0051,-0.9822 -1.0505,-0.9796 -1.0963,-0.9753 -1.1425,-0.969 -1.1891,-0.9608 -1.2357,-0.9506 -1.2825,-0.9384 -1.3293,-0.924 -1.376,-0.9074 -1.4223,-0.8888 -1.4685,-0.8679 -1.5141,-0.8448 -1.5592,-0.8194 -1.6037,-0.7918 -1.6472,-0.7618 -1.69,-0.7297 -1.7316,-0.6952 -1.7721,-0.6584 -1.8114,-0.6194 -1.8491,-0.5782 -1.8853,-0.5348 -1.9199,-0.4893 -1.9527,-0.4415 -1.9835,-0.3917 -2.0123,-0.34 -2.0389,-0.2862 -2.0633,-0.2306 -2.0852,-0.1732 -2.1047,-0.1141 -2.1214,-0.0534 -2.1356,0.0089 -2.1468,0.0726 -2.1552,0.1376 -2.1605,0.2038 -2.1628,0.271 -2.1618,0.3391 -2.1577,0.4082 -2.1503,0.4778 -2.1394,0.548 -2.1252,0.6184 -2.1075,0.6893 -2.0865,0.76 -2.0618,0.8307 -2.0337,0.9012 -2.002,0.9712 -1.9669,1.0406 -1.9283,1.1093 -1.8862,1.1771 -1.8407,1.2437 -1.7917,1.3092 -1.7396,1.3732 -1.684,1.4355 -1.6254,1.4963 -1.5636,1.5551 -1.4988,1.6118 -1.4311,1.6663 -1.3606,1.7186 -1.2874,1.7683 -1.2116,1.8154 -1.1335,1.8598 -1.0531,1.9013 -0.9706,1.9399 -0.886,1.9753 -0.7998,2.0076 -0.7118,2.0367 -0.6224,2.0623 -0.5318,2.0846 -0.44,2.1034 -0.3473,2.1186 -0.2541,2.1303 -0.1601,2.1384 -0.0659,2.1429 0.0284,2.1437 0.1227,2.1409 0.2167,2.1345 0.3102,2.1244 0.4032,2.1107 0.4952,2.0936 0.5862,2.0729 0.6761,2.0488 0.7644,2.0213 0.8514,1.9905 0.9364,1.9566 1.0197,1.9194 1.1008,1.8794 1.1797,1.8363 1.2562,1.7905 1.3303,1.7422 1.4017,1.6911 1.4704,1.6378 1.5361,1.5822 1.599,1.5245 1.6586,1.4648 1.7153,1.4034 1.7686,1.3403 1.8186,1.2758 1.8653,1.2099 1.9086,1.1429 1.9484,1.0749 1.9847,1.0061 2.0176,0.9366 2.0469,0.8667 2.0729,0.7964 2.0951,0.726 2.1141,0.6556 2.1295,0.5853 2.1415,0.5154 2.1503,0.4458 2.1555,0.377 2.1577,0.3088 2.1567,0.2415 2.1524,0.1753 2.1452,0.1102 2.1351,0.0462 2.1221,-0.0162 2.1063,-0.0772 2.088,-0.1367 2.0669,-0.1945 2.0437,-0.2505 2.0179,-0.3047 1.9901,-0.3569 1.96,-0.4073 1.9282,-0.4556 1.8944,-0.5017 1.859,-0.5458 1.8219,-0.5876 1.7833,-0.6273 1.7436,-0.6648 1.7024,-0.6999 1.6604,-0.7329 1.6172,-0.7636 1.5733,-0.792 1.5287,-0.8182 1.4834,-0.842 1.4377,-0.8638 1.3916,-0.8832 1.3453,-0.9006 1.2987,-0.9158 1.2522,-0.9288 1.2057,-0.9399 1.1594,-0.9489 1.1132,-0.9559 1.0675,-0.9611 1.022,-0.9644 0.9773,-0.9659 0.933,-0.9657 0.8893,-0.9639 0.8464,-0.9605 0.8042,-0.9554 0.7629,-0.9491 0.7225,-0.9414 0.683,-0.9322 0.6444,-0.922 0.6069,-0.9106 0.5704,-0.8981 0.5351,-0.8847 0.5008,-0.8702 0.4676,-0.8551 0.4355,-0.8391 0.4047,-0.8224 0.375,-0.8052 0.3465,-0.7873 0.3191,-0.7691 0.2929,-0.7503 0.2678,-0.7314 0.2439,-0.712 0.2212,-0.6925 0.1995,-0.6729 0.179,-0.6531 0.1595,-0.6332 0.1411,-0.6135 0.1237,-0.5937 0.1074,-0.574 0.092,-0.5545 0.0776,-0.5352 0.0641,-0.5161 0.0515,-0.4972 0.0397,-0.4786 0.0288,-0.4603 0.0187,-0.4423 0.009,-0.4248 7e-4,-0.4074 -0.007,-0.3907 -0.0146,-0.3741 -0.0211,-0.3582 -0.0273,-0.3425 -0.0327,-0.3273 -0.0376,-0.3126 -0.0421,-0.2982 -0.0461,-0.2844 -0.0495,-0.2709 -0.0527,-0.2578 -0.0553,-0.2454 -0.0576,-0.2331 -0.0595,-0.2214 -0.0612,-0.2101 -0.0625,-0.1993 -0.0635,-0.1887 -0.0642,-0.1786 -0.0648,-0.1689 -0.065,-0.1596 -0.065,-0.1507 -0.0649,-0.142 -0.0645,-0.1337 -0.0641,-0.1259 -0.0633,-0.1183 -0.0625,-0.1111 -0.0615,-0.1041 -0.0604,-0.0975 -0.0592,-0.0911 -0.0579,-0.0851 -0.0565,-0.0794 -0.0549,-0.0739 -0.0534,-0.0687 -0.0517,-0.0637 -0.05,-0.059 -0.0482,-0.0546 -0.0464,-0.0503 -0.0446,-0.0464 -0.0427,-0.0426 -0.0408,-0.039 -0.0389,-0.0357 -0.0369,-0.0326 -0.0351,-0.0297 -0.0332,-0.0269 -0.0313,-0.0244 -0.0295,-0.022 -0.0277,-0.0199 -0.0258,-0.0178 -0.0241,-0.0159 -0.0225,-0.0142 -0.0208,-0.0126 -0.0192,-0.0113 -0.0176,-0.01 -0.0163,-0.009 -0.0148,-0.008 -0.0135,-0.007 -0.0122,-0.006 -0.011,-0.005 -0.01,-0.004 -0.009,-0.004 -0.008,-0.003 -0.007,-0.003 -0.006,-0.002 -0.005,-0.002 -0.004,-0.002 -0.004,-0.002 -0.003,-0.001 -0.002,-10e-4 -0.001,-0.001 -0.001,-0.001 -3e-4,-0.001"
         style="fill:none;fill-rule:evenodd"
         id="path199" />
      <path
         inkscape:connector-curvature="0"
         d="m 210.375,144.5 -0.0578,-0.0581 -0.0958,-0.0547 -0.1314,-0.0496 -0.1642,-0.0428 -0.1931,-0.0345 -0.2178,-0.0254 -0.2373,-0.0153 -0.2515,-0.005 -0.2598,0.005 -0.2621,0.0145 -0.2581,0.0231 -0.2481,0.0301 -0.2319,0.0354 -0.21,0.0383 -0.1828,0.0388 -0.1508,0.0363 -0.1145,0.0309 -0.0747,0.0222 -0.0321,0.0105 0.0122,-0.004 0.0577,-0.0225 0.1032,-0.0432 0.1479,-0.0666 0.1908,-0.0919 0.2312,-0.119 0.2681,-0.1472 0.3009,-0.176 0.3287,-0.2046 0.3512,-0.2326 0.3678,-0.2592 0.3782,-0.2837 0.3821,-0.3057 0.3794,-0.3242 0.3702,-0.3389 0.3547,-0.3493 0.3332,-0.3548 0.3059,-0.3552 0.2736,-0.3502 0.2368,-0.3397 0.196,-0.3237 0.1523,-0.3022 0.1063,-0.2753 0.0589,-0.2436 0.0111,-0.2074 -0.0366,-0.1671 -0.083,-0.1235 -0.1275,-0.0772 -0.1692,-0.0291 -0.2076,0.0202 -0.242,0.0697 -0.272,0.1185 -0.297,0.1657 -0.317,0.2106 -0.3315,0.2522 -0.3407,0.2897 -0.3445,0.3227 -0.3432,0.3502 -0.3368,0.3719 -0.3259,0.3873 -0.3108,0.396 -0.292,0.3981 -0.2701,0.3933 -0.2456,0.3818 -0.2193,0.3637 -0.1918,0.3393 -0.1636,0.3092 -0.1355,0.2737 -0.1079,0.2338 -0.0817,0.1898 -0.0569,0.1427 -0.0345,0.0932 -0.0145,0.0425 0.003,-0.009 0.0168,-0.06 0.0277,-0.1099 0.0353,-0.1578 0.0397,-0.2027 0.041,-0.2442 0.0393,-0.2814 0.0348,-0.3137 0.0277,-0.3409 0.0187,-0.3622 0.008,-0.3777 -0.005,-0.3868 -0.0178,-0.3898 -0.0316,-0.3866 -0.0455,-0.3771 -0.0591,-0.3619 -0.0719,-0.341 -0.0838,-0.315 -0.0941,-0.2841 -0.1027,-0.249 -0.1094,-0.2104 -0.1139,-0.1687 -0.116,-0.1246 -0.1158,-0.0789 -0.113,-0.032 -0.1078,0.015 -0.1002,0.0617 -0.0902,0.1075 -0.0784,0.1514 -0.0644,0.1933 -0.049,0.2321 -0.0322,0.2676 -0.0144,0.2992 0.004,0.3264 0.0225,0.3491 0.0408,0.3666 0.0585,0.3787 0.0749,0.3853 0.0899,0.3862 0.1027,0.3812 0.1128,0.3703 0.1201,0.3534 0.1236,0.3306 0.1233,0.3021 0.1183,0.2678 0.1086,0.228 0.0933,0.183 0.0725,0.1329 0.0453,0.0783 0.0117,0.0193 -0.0286,-0.0435 -0.0763,-0.1099 -0.131,-0.1791 -0.1935,-0.2509 -0.2637,-0.3244 -0.3415,-0.3993 -0.4272,-0.4748 -0.5207,-0.5504 -0.6219,-0.6252 -0.7306,-0.6986 -0.8466,-0.77 -0.9695,-0.8385 -1.0989,-0.9035 -1.2345,-0.9641 -1.3755,-1.0198 -1.5213,-1.0695 -1.6713,-1.113 -1.8244,-1.1491 -1.98,-1.1776 -2.137,-1.1977 -2.2943,-1.2088 -2.4508,-1.2106 -2.6054,-1.2025 -2.7568,-1.1843 -2.9038,-1.1556 -3.0451,-1.1164 -3.1793,-1.0665 -3.3053,-1.006 -3.4217,-0.935 -3.527,-0.8537 -3.6203,-0.7626 -3.7002,-0.662 -3.7657,-0.5524 -3.8156,-0.4346 -3.849,-0.3094 -3.8652,-0.1775 -3.863,-0.0399 -3.8424,0.1023 -3.8025,0.2482 -3.743,0.3964 -3.6638,0.5458 -3.5649,0.6953 -3.4463,0.8435 -3.3086,0.9892 -3.1517,1.1311 -2.9768,1.2678 -2.7844,1.3985 -2.5753,1.5217 -2.3508,1.6363 -2.1121,1.7413 -1.8605,1.8358 -1.5972,1.9189 -1.3243,1.9897 -1.0429,2.0479 -0.7551,2.0925 -0.4625,2.1234 -0.167,2.1402 0.1295,2.1428 0.4253,2.1312 0.7184,2.1054 1.0069,2.0658 1.2892,2.0127 1.5634,1.9465 1.828,1.8681 2.0813,1.778 2.3219,1.6772 2.5483,1.5664 2.7594,1.447 2.9542,1.3198 3.1315,1.1861 3.2907,1.0469 3.4311,0.9037 3.5521,0.7576 3.6538,0.6099 3.7354,0.4618 3.7976,0.3146 3.8399,0.1696 3.8632,0.0277 3.8677,-0.1098 3.8538,-0.242 3.8226,-0.3678 3.7748,-0.4864 3.7113,-0.5971 3.6331,-0.6991 3.5414,-0.7919 3.4375,-0.8749 3.3224,-0.948 3.1975,-1.0107 3.0642,-1.063 2.9236,-1.1046 2.7771,-1.1358 2.626,-1.1567 2.4716,-1.1675 2.3151,-1.1685 2.1576,-1.1601 2.0003,-1.1428 1.8443,-1.1171 1.6905,-1.0835 1.5398,-1.0428 1.3931,-0.9955 1.2512,-0.9423 1.1146,-0.8842 0.984,-0.8214 0.8599,-0.755 0.7427,-0.6858 0.6328,-0.6142 0.5302,-0.5411 0.4355,-0.4673 0.3485,-0.3933 0.2692,-0.3197 0.1979,-0.2475 0.1342,-0.1768 0.0781,-0.1085 0.0294,-0.0431 -0.0121,0.0192 -0.0466,0.0774 -0.0748,0.1317 -0.0965,0.1814 -0.1126,0.226 -0.123,0.2657 -0.1285,0.2998 -0.1294,0.3285 -0.1262,0.3512 -0.1194,0.3683 -0.1093,0.3793 -0.0966,0.3846 -0.0817,0.3839 -0.0651,0.3777 -0.0472,0.3658 -0.0286,0.3486 -0.01,0.3263 0.009,0.2994 0.0275,0.2682 0.0449,0.2329 0.061,0.1943 0.0757,0.1528 0.0884,0.109 0.0991,0.0635 0.1075,0.0169 0.1135,-0.0301 0.1171,-0.0768 0.1182,-0.1225 0.1169,-0.1667 0.113,-0.2085 0.1071,-0.2472 0.0991,-0.2824 0.0892,-0.3134 0.0779,-0.3397 0.0654,-0.3608 0.0521,-0.3763 0.0384,-0.3859 0.0246,-0.3895 0.0113,-0.3867 -10e-4,-0.3777 -0.0123,-0.3625 -0.0219,-0.3413 -0.0292,-0.3143 -0.0344,-0.282 -0.0367,-0.2449 -0.0362,-0.2034 -0.0325,-0.1584 -0.0258,-0.1103 -0.0157,-0.0604 -0.002,-0.009 0.0138,0.0427 0.0328,0.0939 0.0545,0.1437 0.0783,0.1912 0.1038,0.2355 0.1307,0.2762 0.1582,0.312 0.1858,0.3426 0.2129,0.3674 0.2389,0.386 0.2632,0.398 0.285,0.4031 0.3038,0.4015 0.319,0.3929 0.3303,0.3777 0.337,0.3562 0.3388,0.3286 0.3356,0.2957 0.327,0.258 0.3133,0.2161 0.2941,0.1709 0.2698,0.1232 0.2408,0.0739 0.2072,0.0238 0.1697,-0.026 0.1288,-0.075 0.0851,-0.1221 0.0395,-0.1664 -0.007,-0.2076 -0.0547,-0.2446 -0.1015,-0.2771 -0.147,-0.3048 -0.1903,-0.3271 -0.2308,-0.3438 -0.2674,-0.3549 -0.2997,-0.3605 -0.3269,-0.3606 -0.3485,-0.3554 -0.3643,-0.3454 -0.3737,-0.3308 -0.3766,-0.3123 -0.3731,-0.2903 -0.3633,-0.2656 -0.3471,-0.2387 -0.3251,-0.2104 -0.2977,-0.1811 -0.2655,-0.1519 -0.2291,-0.123 -0.1892,-0.0953 -0.1467,-0.0691 -0.1024,-0.0451 -0.0573,-0.0235 -0.0121,-0.005 0.0319,0.011 0.0743,0.0236 0.1139,0.0329 0.1501,0.0389 0.1822,0.042 0.2093,0.042 0.2313,0.0394 0.2474,0.0345 0.2577,0.0276 0.2618,0.0191 0.2597,0.01 0.2515,-7e-4 0.2376,-0.0112 0.2182,-0.0216 0.1937,-0.0312 0.1649,-0.0399 0.1322,-0.0472 0.0967,-0.0531 0.0589,-0.057 0.0198,-0.0591"
         style="fill:none;fill-rule:evenodd;stroke:#0080b4"
         id="path201" />
      <path
         inkscape:connector-curvature="0"
         d="m 216.7604,144.5 -0.102,-0.1691 -0.1714,-0.1631 -0.2392,-0.1538 -0.3052,-0.1411 -0.3685,-0.1251 -0.4286,-0.1063 -0.4842,-0.0848 -0.5348,-0.0611 -0.5792,-0.0355 -0.6161,-0.009 -0.6446,0.0183 -0.6632,0.045 -0.6709,0.0704 -0.6659,0.0933 -0.6474,0.1126 -0.6139,0.1267 -0.5642,0.1345 -0.4976,0.134 -0.4132,0.1239 -0.3103,0.1025 -0.1888,0.0679 -0.0488,0.0187 0.1092,-0.0465 0.2846,-0.1294 0.4758,-0.231 0.6814,-0.3522 0.8992,-0.4936 1.1265,-0.6556 1.3606,-0.8379 1.598,-1.0401 1.8353,-1.2609 2.0685,-1.499 2.2937,-1.7522 2.5068,-2.0182 2.7036,-2.2936 2.8801,-2.5753 3.0324,-2.8592 3.157,-3.1413 3.2505,-3.4168 3.3102,-3.6811 3.3337,-3.9295 3.3194,-4.1568 3.2658,-4.3586 3.1728,-4.5298 3.0406,-4.6665 2.8699,-4.7643 2.6624,-4.8197 2.4204,-4.8301 2.1468,-4.7925 1.8449,-4.7057 1.5189,-4.5685 1.1731,-4.3809 0.8123,-4.1433 0.4415,-3.8575 0.0659,-3.5253 -0.3092,-3.1502 -0.6785,-2.7357 -1.0371,-2.2864 -1.3799,-1.8074 -1.7026,-1.3042 -2.0007,-0.7831 -2.271,-0.2503 -2.51,0.2875 -2.7153,0.8233 -2.8849,1.3506 -3.0177,1.8626 -3.113,2.353 -3.1709,2.8157 -3.192,3.245 -3.1778,3.636 -3.13,3.9842 -3.0512,4.286 -2.9441,4.5384 -2.812,4.7394 -2.6583,4.8877 -2.4869,4.983 -2.3016,5.0257 -2.1064,5.017 -1.9051,4.9591 -1.7013,4.8548 -1.499,4.7075 -1.3011,4.5209 -1.1107,4.3 -0.9306,4.049 -0.7628,3.7734 -0.6094,3.4783 -0.4713,3.1688 -0.35,2.8504 -0.2457,2.5277 -0.1585,2.2057 -0.0882,1.889 -0.0342,1.5813 0.004,1.2865 0.0286,1.0074 0.0399,0.7469 0.04,0.5067 0.03,0.2888 0.012,0.0939 -0.0126,-0.0775 -0.0423,-0.225 -0.0751,-0.349 -0.1099,-0.4502 -0.1453,-0.5295 -0.1801,-0.5882 -0.2131,-0.6275 -0.2435,-0.6489 -0.2705,-0.6543 -0.2935,-0.6449 -0.3118,-0.6229 -0.3253,-0.5895 -0.3334,-0.5464 -0.3364,-0.4953 -0.3337,-0.4375 -0.3257,-0.3742 -0.3122,-0.3068 -0.2933,-0.2364 -0.2695,-0.1641 -0.2406,-0.0906 -0.2072,-0.0172 -0.1693,0.0555 -0.1274,0.1268 -0.0822,0.1956 -0.0337,0.2614 0.0171,0.3234 0.0696,0.3808 0.1232,0.4329 0.1769,0.4787 0.2294,0.5178 0.2799,0.5489 0.3268,0.5717 0.369,0.5852 0.4045,0.5888 0.4319,0.5816 0.4492,0.5634 0.4547,0.5335 0.4463,0.4918 0.4223,0.4381 0.3804,0.3725 0.3192,0.2955 0.2367,0.2074 0.1315,0.1094 0.003,0.002 -0.1513,-0.1119 -0.3304,-0.232 -0.535,-0.356 -0.7646,-0.4815 -1.0183,-0.6062 -1.2947,-0.7274 -1.5915,-0.8426 -1.9065,-0.9489 -2.236,-1.0437 -2.5766,-1.1243 -2.9238,-1.1883 -3.2729,-1.2332 -3.6187,-1.2572 -3.9559,-1.2586 -4.2786,-1.2362 -4.5812,-1.1891 -4.8576,-1.1173 -5.1025,-1.0207 -5.3101,-0.9003 -5.4756,-0.7572 -5.594,-0.5935 -5.6617,-0.4113 -5.6749,-0.2135 -5.6312,-0.003 -5.5289,0.2158 -5.3669,0.4399 -5.1456,0.6652 -4.8656,0.8874 -4.5292,1.1024 -4.1393,1.3063 -3.6996,1.4951 -3.2149,1.6651 -2.6906,1.8133 -2.1329,1.9365 -1.5485,2.0326 -0.9446,2.0994 -0.3287,2.136 0.2913,2.1414 0.9077,2.1157 1.5127,2.0593 2.0986,1.9736 2.6585,1.8601 3.1853,1.7212 3.6728,1.5596 4.1158,1.3785 4.5093,1.1815 4.8493,0.9724 5.1331,0.7551 5.3585,0.5338 5.5242,0.3125 5.6305,0.0952 5.6777,-0.1142 5.668,-0.3121 5.6036,-0.4955 5.4879,-0.6613 5.3251,-0.8072 5.1196,-0.9313 4.8764,-1.032 4.6013,-1.1089 4.2996,-1.1611 3.9773,-1.1892 3.6402,-1.1936 3.2939,-1.1758 2.9442,-1.1368 2.5958,-1.0791 2.254,-1.0044 1.9228,-0.9154 1.606,-0.8146 1.3072,-0.7047 1.0288,-0.5882 0.7729,-0.4681 0.5411,-0.3466 0.3344,-0.2262 0.1533,-0.1092 -0.003,0.002 -0.1335,0.1071 -0.2403,0.2033 -0.3243,0.2899 -0.3869,0.3658 -0.4298,0.4306 -0.4549,0.4839 -0.464,0.5255 -0.459,0.5554 -0.442,0.574 -0.4147,0.5815 -0.3791,0.5787 -0.3369,0.5659 -0.2894,0.544 -0.2385,0.5136 -0.1851,0.4756 -0.1308,0.4306 -0.0763,0.3795 -0.0227,0.3231 0.0291,0.262 0.0787,0.197 0.1252,0.129 0.1683,0.0585 0.2075,-0.0136 0.2421,-0.0864 0.2723,-0.1593 0.2975,-0.2313 0.3175,-0.3013 0.3321,-0.3684 0.3414,-0.4316 0.345,-0.4893 0.343,-0.5406 0.3355,-0.5837 0.3226,-0.6173 0.3047,-0.6397 0.2819,-0.6494 0.2549,-0.6446 0.2241,-0.6236 0.1903,-0.5849 0.1546,-0.527 0.1178,-0.4482 0.0812,-0.3476 0.0461,-0.2242 0.014,-0.0773 -0.0136,0.0937 -0.0351,0.2882 -0.0488,0.506 -0.0531,0.746 -0.0462,1.0068 -0.0268,1.2862 0.007,1.5817 0.0551,1.8902 0.1199,2.2082 0.2013,2.5316 0.3001,2.856 0.4159,3.1766 0.5483,3.4884 0.6967,3.7862 0.8596,4.0647 1.0353,4.3187 1.2218,4.5431 1.4163,4.7329 1.6161,4.8838 1.818,4.9918 2.0183,5.0531 2.2133,5.0652 2.3993,5.0257 2.5724,4.9335 2.7286,4.7879 2.8642,4.5892 2.9757,4.3387 3.0598,4.0384 3.1137,3.691 3.1348,3.3004 3.1211,2.8708 3.0713,2.4071 2.9846,1.9152 2.8609,1.4008 2.7005,0.8708 2.5045,0.3313 2.275,-0.2105 2.0142,-0.7479 1.7251,-1.2743 1.4113,-1.7829 1.077,-2.2679 0.7263,-2.7234 0.3642,-3.1443 -0.004,-3.526 -0.3739,-3.8646 -0.7396,-4.1569 -1.0962,-4.4007 -1.4388,-4.5944 -1.7622,-4.7373 -2.0626,-4.8294 -2.3355,-4.8716 -2.5777,-4.8657 -2.7861,-4.8137 -2.9584,-4.719 -3.0931,-4.5847 -3.189,-4.415 -3.2461,-4.2143 -3.2644,-3.9872 -3.2453,-3.7385 -3.1902,-3.4732 -3.1016,-3.196 -2.9819,-2.9119 -2.8346,-2.6253 -2.663,-2.3406 -2.4711,-2.0617 -2.2627,-1.7921 -2.042,-1.535 -1.8129,-1.2928 -1.5796,-1.0678 -1.3456,-0.8617 -1.1149,-0.6752 -0.8904,-0.5092 -0.6752,-0.3641 -0.4717,-0.2393 -0.2823,-0.1343 -0.1084,-0.0485 0.0486,0.0196 0.1876,0.0712 0.3084,0.1079 0.4109,0.1311 0.4952,0.1427 0.5618,0.1443 0.6116,0.1375 0.6453,0.1239 0.6642,0.105 0.6695,0.0821 0.6624,0.0566 0.6442,0.0296 0.6162,0.002 0.5796,-0.0254 0.5358,-0.0517 0.4857,-0.0763 0.4303,-0.0988 0.3707,-0.1187 0.3076,-0.1357 0.2419,-0.1496 0.1741,-0.1601 0.105,-0.1673 0.0351,-0.1708"
         style="fill:none;fill-rule:evenodd;stroke:#007156"
         id="path203" />
    </g>
  </g>
  <text
     xml:space="preserve"
     style="font-style:normal;font-weight:normal;font-size:40px;line-height:1.25;font-family:sans-serif;letter-spacing:0px;word-spacing:0px;color-interpolation:auto;fill:#000000;fill-opacity:1;stroke:none;stroke-width:1;stroke-linecap:square;stroke-linejoin:miter;stroke-miterlimit:10;stroke-dasharray:none;stroke-dashoffset:0;stroke-opacity:1;color-rendering:auto;image-rendering:auto;shape-rendering:auto;text-rendering:auto"
     x="290.26819"
     y="150.78944"
     id="text1066"><tspan
       sodipodi:role="line"
       id="tspan1064"
       x="290.26819"
       y="150.78944"
       style="font-size:16px">$\ang{0}$</tspan></text>
  <text
     xml:space="preserve"
     style="font-style:normal;font-weight:normal;font-size:40px;line-height:1.25;font-family:sans-serif;letter-spacing:0px;word-spacing:0px;color-interpolation:auto;fill:#000000;fill-opacity:1;stroke:none;stroke-width:1;stroke-linecap:square;stroke-linejoin:miter;stroke-miterlimit:10;stroke-dasharray:none;stroke-dashoffset:0;stroke-opacity:1;color-rendering:auto;image-rendering:auto;shape-rendering:auto;text-rendering:auto"
     x="34.19606"
     y="242.89812"
     id="text1066-2"><tspan
       sodipodi:role="line"
       id="tspan1064-2"
       x="34.19606"
       y="242.89812"
       style="font-size:16px">$\ang{225}$</tspan></text>
  <text
     xml:space="preserve"
     style="font-style:normal;font-weight:normal;font-size:40px;line-height:1.25;font-family:sans-serif;letter-spacing:0px;word-spacing:0px;color-interpolation:auto;fill:#000000;fill-opacity:1;stroke:none;stroke-width:1;stroke-linecap:square;stroke-linejoin:miter;stroke-miterlimit:10;stroke-dasharray:none;stroke-dashoffset:0;stroke-opacity:1;color-rendering:auto;image-rendering:auto;shape-rendering:auto;text-rendering:auto"
     x="146.58949"
     y="283.81204"
     id="text1066-2-8"><tspan
       sodipodi:role="line"
       id="tspan1064-2-0"
       x="146.58949"
       y="283.81204"
       style="font-size:16px">$\ang{270}$</tspan></text>
  <text
     xml:space="preserve"
     style="font-style:normal;font-weight:normal;font-size:40px;line-height:1.25;font-family:sans-serif;letter-spacing:0px;word-spacing:0px;color-interpolation:auto;fill:#000000;fill-opacity:1;stroke:none;stroke-width:1;stroke-linecap:square;stroke-linejoin:miter;stroke-miterlimit:10;stroke-dasharray:none;stroke-dashoffset:0;stroke-opacity:1;color-rendering:auto;image-rendering:auto;shape-rendering:auto;text-rendering:auto"
     x="252.02248"
     y="246.56905"
     id="text1066-2-8-3"><tspan
       sodipodi:role="line"
       id="tspan1064-2-0-1"
       x="252.02248"
       y="246.56905"
       style="font-size:16px">$\ang{315}$</tspan></text>
  <text
     xml:space="preserve"
     style="font-style:normal;font-weight:normal;font-size:40px;line-height:1.25;font-family:sans-serif;letter-spacing:0px;word-spacing:0px;color-interpolation:auto;fill:#000000;fill-opacity:1;stroke:none;stroke-width:1;stroke-linecap:square;stroke-linejoin:miter;stroke-miterlimit:10;stroke-dasharray:none;stroke-dashoffset:0;stroke-opacity:1;color-rendering:auto;image-rendering:auto;shape-rendering:auto;text-rendering:auto"
     x="37.1754"
     y="53.793152"
     id="text1066-2-8-3-6"><tspan
       sodipodi:role="line"
       id="tspan1064-2-0-1-5"
       x="37.1754"
       y="53.793152"
       style="font-size:16px">$\ang{135}$</tspan></text>
  <text
     xml:space="preserve"
     style="font-style:normal;font-weight:normal;font-size:40px;line-height:1.25;font-family:sans-serif;letter-spacing:0px;word-spacing:0px;color-interpolation:auto;fill:#000000;fill-opacity:1;stroke:none;stroke-width:1;stroke-linecap:square;stroke-linejoin:miter;stroke-miterlimit:10;stroke-dasharray:none;stroke-dashoffset:0;stroke-opacity:1;color-rendering:auto;image-rendering:auto;shape-rendering:auto;text-rendering:auto"
     x="250.21559"
     y="54.549805"
     id="text1066-2-8-3-1"><tspan
       sodipodi:role="line"
       id="tspan1064-2-0-1-8"
       x="250.21559"
       y="54.549805"
       style="font-size:16px">$\ang{45}$</tspan></text>
  <text
     xml:space="preserve"
     style="font-style:normal;font-weight:normal;font-size:40px;line-height:1.25;font-family:sans-serif;letter-spacing:0px;word-spacing:0px;color-interpolation:auto;fill:#000000;fill-opacity:1;stroke:none;stroke-width:1;stroke-linecap:square;stroke-linejoin:miter;stroke-miterlimit:10;stroke-dasharray:none;stroke-dashoffset:0;stroke-opacity:1;color-rendering:auto;image-rendering:auto;shape-rendering:auto;text-rendering:auto"
     x="4.3669567"
     y="148.3445"
     id="text1066-2-8-3-1-0"><tspan
       sodipodi:role="line"
       id="tspan1064-2-0-1-8-0"
       x="4.3669567"
       y="148.3445"
       style="font-size:16px">$\ang{180}$</tspan></text>
  <text
     xml:space="preserve"
     style="font-style:normal;font-weight:normal;font-size:40px;line-height:1.25;font-family:sans-serif;letter-spacing:0px;word-spacing:0px;color-interpolation:auto;fill:#000000;fill-opacity:1;stroke:none;stroke-width:1;stroke-linecap:square;stroke-linejoin:miter;stroke-miterlimit:10;stroke-dasharray:none;stroke-dashoffset:0;stroke-opacity:1;color-rendering:auto;image-rendering:auto;shape-rendering:auto;text-rendering:auto"
     x="150.52583"
     y="17.700197"
     id="text1066-2-8-3-6-7"><tspan
       sodipodi:role="line"
       id="tspan1064-2-0-1-5-6"
       x="150.52583"
       y="17.700197"
       style="font-size:16px">$\ang{90}$</tspan></text>
  <text
     xml:space="preserve"
     style="font-style:normal;font-weight:normal;font-size:16px;line-height:1.25;font-family:sans-serif;letter-spacing:0px;word-spacing:0px;color-interpolation:auto;fill:#000000;fill-opacity:1;stroke:none;stroke-width:1;stroke-linecap:square;stroke-linejoin:miter;stroke-miterlimit:10;stroke-dasharray:none;stroke-dashoffset:0;stroke-opacity:1;color-rendering:auto;image-rendering:auto;shape-rendering:auto;text-rendering:auto"
     x="167.6725"
     y="140.46132"
     id="text1200"><tspan
       sodipodi:role="line"
       id="tspan1198"
       x="167.6725"
       y="140.46132"
       style="font-size:13.33333302px">$\overline{\theta} = 0$</tspan></text>
  <text
     xml:space="preserve"
     style="font-style:normal;font-weight:normal;font-size:16px;line-height:1.25;font-family:sans-serif;letter-spacing:0px;word-spacing:0px;color-interpolation:auto;fill:#000000;fill-opacity:1;stroke:none;stroke-width:1;stroke-linecap:square;stroke-linejoin:miter;stroke-miterlimit:10;stroke-dasharray:none;stroke-dashoffset:0;stroke-opacity:1;color-rendering:auto;image-rendering:auto;shape-rendering:auto;text-rendering:auto"
     x="168.54225"
     y="36.063736"
     id="text1200-1"><tspan
       sodipodi:role="line"
       id="tspan1198-1"
       x="168.54225"
       y="36.063736"
       style="font-size:13.33333302px">$\overline{\theta} = 1$</tspan></text>
  <text
     xml:space="preserve"
     style="font-style:normal;font-weight:normal;font-size:16px;line-height:1.25;font-family:sans-serif;letter-spacing:0px;word-spacing:0px;color-interpolation:auto;fill:#000000;fill-opacity:1;stroke:none;stroke-width:1;stroke-linecap:square;stroke-linejoin:miter;stroke-miterlimit:10;stroke-dasharray:none;stroke-dashoffset:0;stroke-opacity:1;color-rendering:auto;image-rendering:auto;shape-rendering:auto;text-rendering:auto"
     x="166.45952"
     y="88.953278"
     id="text1200-4"><tspan
       sodipodi:role="line"
       id="tspan1198-3"
       x="166.45952"
       y="88.953278"
       style="font-size:13.33333302px">$\overline{\theta} = 0.5$</tspan></text>
</svg>
