<?xml version="1.0" encoding="UTF-8" standalone="no"?>
<svg
   xmlns:dc="http://purl.org/dc/elements/1.1/"
   xmlns:cc="http://creativecommons.org/ns#"
   xmlns:rdf="http://www.w3.org/1999/02/22-rdf-syntax-ns#"
   xmlns:svg="http://www.w3.org/2000/svg"
   xmlns="http://www.w3.org/2000/svg"
   xmlns:sodipodi="http://sodipodi.sourceforge.net/DTD/sodipodi-0.dtd"
   xmlns:inkscape="http://www.inkscape.org/namespaces/inkscape"
   style="font-style:normal;font-weight:normal;font-size:12px;font-family:Dialog;color-interpolation:auto;fill:#000000;fill-opacity:1;stroke:#000000;stroke-width:1;stroke-linecap:square;stroke-linejoin:miter;stroke-miterlimit:10;stroke-dasharray:none;stroke-dashoffset:0;stroke-opacity:1;color-rendering:auto;image-rendering:auto;shape-rendering:auto;text-rendering:auto"
   width="330"
   height="300"
   version="1.1"
   id="svg253"
   sodipodi:docname="polar_conf_high2.svg"
   inkscape:version="0.92.2 (5c3e80d, 2017-08-06)">
  <metadata
     id="metadata257">
    <rdf:RDF>
      <cc:Work
         rdf:about="">
        <dc:format>image/svg+xml</dc:format>
        <dc:type
           rdf:resource="http://purl.org/dc/dcmitype/StillImage" />
        <dc:title></dc:title>
      </cc:Work>
    </rdf:RDF>
  </metadata>
  <sodipodi:namedview
     pagecolor="#ffffff"
     bordercolor="#666666"
     borderopacity="1"
     objecttolerance="10"
     gridtolerance="10"
     guidetolerance="10"
     inkscape:pageopacity="0"
     inkscape:pageshadow="2"
     inkscape:window-width="1600"
     inkscape:window-height="1137"
     id="namedview255"
     showgrid="false"
     inkscape:zoom="2.05"
     inkscape:cx="228.75144"
     inkscape:cy="145.7155"
     inkscape:window-x="1272"
     inkscape:window-y="-8"
     inkscape:window-maximized="1"
     inkscape:current-layer="svg253" />
  <!--Generated by the Batik Graphics2D SVG Generator-->
  <defs
     id="genericDefs">
    <clipPath
       clipPathUnits="userSpaceOnUse"
       id="clipPath1">
      <path
         inkscape:connector-curvature="0"
         d="M 0,0 H 400 V 300 H 0 Z"
         id="path3" />
    </clipPath>
    <clipPath
       clipPathUnits="userSpaceOnUse"
       id="clipPath1076">
      <path
         inkscape:connector-curvature="0"
         d="M 0,0 H 400 V 300 H 0 Z"
         id="path1074" />
    </clipPath>
    <clipPath
       clipPathUnits="userSpaceOnUse"
       id="clipPath1-6">
      <path
         inkscape:connector-curvature="0"
         d="M 0,0 H 400 V 300 H 0 Z"
         id="path3-1" />
    </clipPath>
    <clipPath
       clipPathUnits="userSpaceOnUse"
       id="clipPath1076-1">
      <path
         inkscape:connector-curvature="0"
         d="M 0,0 H 400 V 300 H 0 Z"
         id="path1074-5" />
    </clipPath>
    <clipPath
       clipPathUnits="userSpaceOnUse"
       id="clipPath1-1">
      <path
         inkscape:connector-curvature="0"
         d="M 0,0 H 400 V 300 H 0 Z"
         id="path3-5" />
    </clipPath>
    <clipPath
       clipPathUnits="userSpaceOnUse"
       id="clipPath1028">
      <path
         inkscape:connector-curvature="0"
         d="M 0,0 H 400 V 300 H 0 Z"
         id="path1026" />
    </clipPath>
  </defs>
  <flowRoot
     xml:space="preserve"
     id="flowRoot1170"
     style="font-style:normal;font-weight:normal;font-size:40px;line-height:1.25;font-family:sans-serif;letter-spacing:0px;word-spacing:0px;fill:#000000;fill-opacity:1;stroke:none"
     transform="translate(0,-120)"><flowRegion
       id="flowRegion1172"><rect
         id="rect1174"
         width="4.9596829"
         height="68.38755"
         x="143.33299"
         y="346.73441" /></flowRegion><flowPara
       id="flowPara1176" /></flowRoot>  <g
     style="font-style:normal;font-weight:normal;font-size:12px;font-family:Dialog;color-interpolation:auto;fill:#000000;fill-opacity:1;stroke:#000000;stroke-width:1;stroke-linecap:square;stroke-linejoin:miter;stroke-miterlimit:10;stroke-dasharray:none;stroke-dashoffset:0;stroke-opacity:1;color-rendering:auto;image-rendering:auto;shape-rendering:auto;text-rendering:auto"
     id="g203"
     transform="translate(-40.975609,-0.3414637)">
    <defs
       id="defs1">
      <clipPath
         clipPathUnits="userSpaceOnUse"
         id="clipPath959">
        <path
           inkscape:connector-curvature="0"
           d="M 0,0 H 400 V 300 H 0 Z"
           id="path957" />
      </clipPath>
    </defs>
    <g
       style="fill:#ffffff;stroke:#ffffff"
       id="g9">
      <rect
         x="0"
         y="0"
         width="400"
         style="stroke:none"
         height="300"
         clip-path="url(#clipPath1-1)"
         id="rect7" />
    </g>
    <g
       style="color-interpolation:sRGB;fill:#ffffff;stroke:#ffffff;color-rendering:optimizeSpeed;image-rendering:optimizeSpeed;shape-rendering:crispEdges;text-rendering:optimizeSpeed"
       id="g171">
      <rect
         x="0"
         width="400"
         height="300"
         y="0"
         style="stroke:none"
         id="rect11" />
      <path
         inkscape:connector-curvature="0"
         style="stroke:none"
         d="m 207,144.5 h 122.5 l -0.3872,-9.7327 z"
         id="path13" />
      <path
         inkscape:connector-curvature="0"
         style="stroke:none"
         d="m 207,144.5 122.1128,-9.7327 -1.1593,-9.6711 z"
         id="path15" />
      <path
         inkscape:connector-curvature="0"
         style="stroke:none"
         d="m 207,144.5 120.9535,-19.4038 -1.924,-9.5484 z"
         id="path17" />
      <path
         inkscape:connector-curvature="0"
         style="stroke:none"
         d="m 207,144.5 119.0295,-28.9522 -2.6765,-9.3654 z"
         id="path19" />
      <path
         inkscape:connector-curvature="0"
         style="stroke:none"
         d="m 207,144.5 116.353,-38.3176 -3.4122,-9.1231 z"
         id="path21" />
      <path
         inkscape:connector-curvature="0"
         style="stroke:none"
         d="M 207,144.5 319.9408,97.0593 315.8146,88.2361 Z"
         id="path23" />
      <path
         inkscape:connector-curvature="0"
         style="stroke:none"
         d="M 207,144.5 315.8146,88.2361 311.0005,79.7686 Z"
         id="path25" />
      <path
         inkscape:connector-curvature="0"
         style="stroke:none"
         d="M 207,144.5 311.0005,79.7686 305.5288,71.7104 Z"
         id="path27" />
      <path
         inkscape:connector-curvature="0"
         style="stroke:none"
         d="m 207,144.5 98.5288,-72.7896 -6.0946,-7.598 z"
         id="path29" />
      <path
         inkscape:connector-curvature="0"
         style="stroke:none"
         d="m 207,144.5 92.4342,-80.3876 -6.679,-7.0898 z"
         id="path31" />
      <path
         inkscape:connector-curvature="0"
         style="stroke:none"
         d="M 207,144.5 292.7552,57.0226 285.534,50.4858 Z"
         id="path33" />
      <path
         inkscape:connector-curvature="0"
         style="stroke:none"
         d="m 207,144.5 78.534,-94.0142 -7.7177,-5.9423 z"
         id="path35" />
      <path
         inkscape:connector-curvature="0"
         style="stroke:none"
         d="m 207,144.5 70.8163,-99.9565 -8.1655,-5.3104 z"
         id="path37" />
      <path
         inkscape:connector-curvature="0"
         style="stroke:none"
         d="M 207,144.5 269.6508,39.2331 261.0893,34.5882 Z"
         id="path39" />
      <path
         inkscape:connector-curvature="0"
         style="stroke:none"
         d="M 207,144.5 261.0893,34.5882 252.1858,30.6383 Z"
         id="path41" />
      <path
         inkscape:connector-curvature="0"
         style="stroke:none"
         d="M 207,144.5 252.1858,30.6383 242.9967,27.4082 Z"
         id="path43" />
      <path
         inkscape:connector-curvature="0"
         style="stroke:none"
         d="M 207,144.5 242.9967,27.4082 233.5799,24.9184 Z"
         id="path45" />
      <path
         inkscape:connector-curvature="0"
         style="stroke:none"
         d="M 207,144.5 233.5799,24.9184 223.9951,23.1846 Z"
         id="path47" />
      <path
         inkscape:connector-curvature="0"
         style="stroke:none"
         d="M 207,144.5 223.9951,23.1846 214.3029,22.2179 Z"
         id="path49" />
      <path
         inkscape:connector-curvature="0"
         style="stroke:none"
         d="m 207,144.5 7.3029,-122.2821 -9.7385,-0.1937 z"
         id="path51" />
      <path
         inkscape:connector-curvature="0"
         style="stroke:none"
         d="m 207,144.5 -2.4356,-122.4758 -9.723,0.5807 z"
         id="path53" />
      <path
         inkscape:connector-curvature="0"
         style="stroke:none"
         d="M 207,144.5 194.8414,22.6049 185.1953,23.9562 Z"
         id="path55" />
      <path
         inkscape:connector-curvature="0"
         style="stroke:none"
         d="M 207,144.5 185.1953,23.9562 175.687,26.0697 Z"
         id="path57" />
      <path
         inkscape:connector-curvature="0"
         style="stroke:none"
         d="M 207,144.5 175.687,26.0697 166.3766,28.9319 Z"
         id="path59" />
      <path
         inkscape:connector-curvature="0"
         style="stroke:none"
         d="M 207,144.5 166.3766,28.9319 157.3232,32.5247 Z"
         id="path61" />
      <path
         inkscape:connector-curvature="0"
         style="stroke:none"
         d="M 207,144.5 157.3232,32.5247 148.5837,36.8255 Z"
         id="path63" />
      <path
         inkscape:connector-curvature="0"
         style="stroke:none"
         d="M 207,144.5 148.5837,36.8255 140.2136,41.8071 Z"
         id="path65" />
      <path
         inkscape:connector-curvature="0"
         style="stroke:none"
         d="M 207,144.5 140.2136,41.8071 132.2658,47.4379 Z"
         id="path67" />
      <path
         inkscape:connector-curvature="0"
         style="stroke:none"
         d="m 207,144.5 -74.7342,-97.0621 -7.4754,6.2445 z"
         id="path69" />
      <path
         inkscape:connector-curvature="0"
         style="stroke:none"
         d="M 207,144.5 124.7904,53.6824 117.8348,60.501 Z"
         id="path71" />
      <path
         inkscape:connector-curvature="0"
         style="stroke:none"
         d="M 207,144.5 117.8348,60.501 111.443,67.8508 Z"
         id="path73" />
      <path
         inkscape:connector-curvature="0"
         style="stroke:none"
         d="m 207,144.5 -95.557,-76.6492 -5.7877,7.8343 z"
         id="path75" />
      <path
         inkscape:connector-curvature="0"
         style="stroke:none"
         d="m 207,144.5 -101.3447,-68.8149 -5.147,8.2694 z"
         id="path77" />
      <path
         inkscape:connector-curvature="0"
         style="stroke:none"
         d="M 207,144.5 100.5083,83.9545 96.0346,92.6067 Z"
         id="path79" />
      <path
         inkscape:connector-curvature="0"
         style="stroke:none"
         d="M 207,144.5 96.0346,92.6067 l -3.7722,8.9802 z"
         id="path81" />
      <path
         inkscape:connector-curvature="0"
         style="stroke:none"
         d="M 207,144.5 92.2624,101.5869 89.2157,110.8385 Z"
         id="path83" />
      <path
         inkscape:connector-curvature="0"
         style="stroke:none"
         d="M 207,144.5 89.2157,110.8385 86.9136,120.3029 Z"
         id="path85" />
      <path
         inkscape:connector-curvature="0"
         style="stroke:none"
         d="M 207,144.5 86.9136,120.3029 85.3707,129.9203 Z"
         id="path87" />
      <path
         inkscape:connector-curvature="0"
         style="stroke:none"
         d="M 207,144.5 85.3707,129.9203 84.5968,139.6298 Z"
         id="path89" />
      <path
         inkscape:connector-curvature="0"
         style="stroke:none"
         d="M 207,144.5 84.5968,139.6298 v 9.7404 z"
         id="path91" />
      <path
         inkscape:connector-curvature="0"
         style="stroke:none"
         d="m 207,144.5 -122.4032,4.8702 0.7739,9.7095 z"
         id="path93" />
      <path
         inkscape:connector-curvature="0"
         style="stroke:none"
         d="m 207,144.5 -121.6293,14.5797 1.5429,9.6174 z"
         id="path95" />
      <path
         inkscape:connector-curvature="0"
         style="stroke:none"
         d="m 207,144.5 -120.0864,24.1971 2.3021,9.4644 z"
         id="path97" />
      <path
         inkscape:connector-curvature="0"
         style="stroke:none"
         d="m 207,144.5 -117.7843,33.6615 3.0467,9.2516 z"
         id="path99" />
      <path
         inkscape:connector-curvature="0"
         style="stroke:none"
         d="m 207,144.5 -114.7376,42.9131 3.7722,8.9802 z"
         id="path101" />
      <path
         inkscape:connector-curvature="0"
         style="stroke:none"
         d="m 207,144.5 -110.9654,51.8933 4.4737,8.6522 z"
         id="path103" />
      <path
         inkscape:connector-curvature="0"
         style="stroke:none"
         d="m 207,144.5 -106.4917,60.5455 5.147,8.2694 z"
         id="path105" />
      <path
         inkscape:connector-curvature="0"
         style="stroke:none"
         d="m 207,144.5 -101.3447,68.8149 5.7877,7.8343 z"
         id="path107" />
      <path
         inkscape:connector-curvature="0"
         style="stroke:none"
         d="m 207,144.5 -95.557,76.6492 6.3918,7.3498 z"
         id="path109" />
      <path
         inkscape:connector-curvature="0"
         style="stroke:none"
         d="m 207,144.5 -89.1652,83.999 6.9556,6.8186 z"
         id="path111" />
      <path
         inkscape:connector-curvature="0"
         style="stroke:none"
         d="m 207,144.5 -82.2096,90.8176 7.4754,6.2445 z"
         id="path113" />
      <path
         inkscape:connector-curvature="0"
         style="stroke:none"
         d="m 207,144.5 -74.7342,97.0621 7.9478,5.6308 z"
         id="path115" />
      <path
         inkscape:connector-curvature="0"
         style="stroke:none"
         d="m 207,144.5 -66.7864,102.6929 8.3701,4.9816 z"
         id="path117" />
      <path
         inkscape:connector-curvature="0"
         style="stroke:none"
         d="m 207,144.5 -58.4163,107.6745 8.7395,4.3008 z"
         id="path119" />
      <path
         inkscape:connector-curvature="0"
         style="stroke:none"
         d="m 207,144.5 -49.6768,111.9753 9.0534,3.5928 z"
         id="path121" />
      <path
         inkscape:connector-curvature="0"
         style="stroke:none"
         d="m 207,144.5 -40.6234,115.5681 9.3104,2.8622 z"
         id="path123" />
      <path
         inkscape:connector-curvature="0"
         style="stroke:none"
         d="m 207,144.5 -31.313,118.4303 9.5083,2.1135 z"
         id="path125" />
      <path
         inkscape:connector-curvature="0"
         style="stroke:none"
         d="m 207,144.5 -21.8047,120.5438 9.6461,1.3513 z"
         id="path127" />
      <path
         inkscape:connector-curvature="0"
         style="stroke:none"
         d="m 207,144.5 -12.1586,121.8951 9.723,0.5807 z"
         id="path129" />
      <path
         inkscape:connector-curvature="0"
         style="stroke:none"
         d="m 207,144.5 -2.4356,122.4758 9.7385,-0.1937 z"
         id="path131" />
      <path
         inkscape:connector-curvature="0"
         style="stroke:none"
         d="m 207,144.5 7.3029,122.2821 9.6922,-0.9667 z"
         id="path133" />
      <path
         inkscape:connector-curvature="0"
         style="stroke:none"
         d="m 207,144.5 16.9951,121.3154 9.5848,-1.7338 z"
         id="path135" />
      <path
         inkscape:connector-curvature="0"
         style="stroke:none"
         d="m 207,144.5 26.5799,119.5816 9.4168,-2.4898 z"
         id="path137" />
      <path
         inkscape:connector-curvature="0"
         style="stroke:none"
         d="m 207,144.5 35.9967,117.0918 9.1891,-3.2301 z"
         id="path139" />
      <path
         inkscape:connector-curvature="0"
         style="stroke:none"
         d="m 207,144.5 45.1858,113.8617 8.9035,-3.9499 z"
         id="path141" />
      <path
         inkscape:connector-curvature="0"
         style="stroke:none"
         d="m 207,144.5 54.0893,109.9118 8.5615,-4.6449 z"
         id="path143" />
      <path
         inkscape:connector-curvature="0"
         style="stroke:none"
         d="m 207,144.5 62.6508,105.2669 8.1655,-5.3104 z"
         id="path145" />
      <path
         inkscape:connector-curvature="0"
         style="stroke:none"
         d="m 207,144.5 70.8163,99.9565 7.7177,-5.9423 z"
         id="path147" />
      <path
         inkscape:connector-curvature="0"
         style="stroke:none"
         d="m 207,144.5 78.534,94.0142 7.2212,-6.5368 z"
         id="path149" />
      <path
         inkscape:connector-curvature="0"
         style="stroke:none"
         d="m 207,144.5 85.7552,87.4774 6.679,-7.0898 z"
         id="path151" />
      <path
         inkscape:connector-curvature="0"
         style="stroke:none"
         d="m 207,144.5 92.4342,80.3876 6.0946,-7.598 z"
         id="path153" />
      <path
         inkscape:connector-curvature="0"
         style="stroke:none"
         d="m 207,144.5 98.5288,72.7896 5.4717,-8.0582 z"
         id="path155" />
      <path
         inkscape:connector-curvature="0"
         style="stroke:none"
         d="m 207,144.5 104.0005,64.7314 4.8141,-8.4675 z"
         id="path157" />
      <path
         inkscape:connector-curvature="0"
         style="stroke:none"
         d="m 207,144.5 108.8146,56.2639 4.1262,-8.8232 z"
         id="path159" />
      <path
         inkscape:connector-curvature="0"
         style="stroke:none"
         d="m 207,144.5 112.9408,47.4407 3.4122,-9.1231 z"
         id="path161" />
      <path
         inkscape:connector-curvature="0"
         style="stroke:none"
         d="m 207,144.5 116.353,38.3176 2.6765,-9.3654 z"
         id="path163" />
      <path
         inkscape:connector-curvature="0"
         style="stroke:none"
         d="m 207,144.5 119.0295,28.9522 1.924,-9.5484 z"
         id="path165" />
      <path
         inkscape:connector-curvature="0"
         style="stroke:none"
         d="m 207,144.5 120.9535,19.4038 1.1593,-9.6711 z"
         id="path167" />
      <path
         inkscape:connector-curvature="0"
         style="stroke:none"
         d="M 207,144.5 329.1128,154.2327 329.5,144.5 Z"
         id="path169" />
    </g>
    <g
       style="color-interpolation:linearRGB;fill:#262626;fill-opacity:0.14900004;stroke:#262626;stroke-width:0.66670001;stroke-linecap:butt;stroke-linejoin:round;stroke-opacity:0.14900004;color-rendering:optimizeQuality;image-rendering:optimizeQuality;text-rendering:geometricPrecision"
       id="g197">
      <line
         y2="144.5"
         style="fill:none"
         x1="207"
         x2="329.5"
         y1="144.5"
         id="line173" />
      <line
         y2="57.879398"
         style="fill:none"
         x1="207"
         x2="293.62061"
         y1="144.5"
         id="line175" />
      <line
         y2="22"
         style="fill:none"
         x1="207"
         x2="207"
         y1="144.5"
         id="line177" />
      <line
         y2="57.879398"
         style="fill:none"
         x1="207"
         x2="120.3794"
         y1="144.5"
         id="line179" />
      <line
         y2="144.5"
         style="fill:none"
         x1="207"
         x2="84.5"
         y1="144.5"
         id="line181" />
      <line
         y2="231.12061"
         style="fill:none"
         x1="207"
         x2="120.3794"
         y1="144.5"
         id="line183" />
      <line
         y2="267"
         style="fill:none"
         x1="207"
         x2="207"
         y1="144.5"
         id="line185" />
      <line
         y2="231.12061"
         style="fill:none"
         x1="207"
         x2="293.62061"
         y1="144.5"
         id="line187" />
      <path
         inkscape:connector-curvature="0"
         d="m 207,144.5 v 0 0 0 0 0 0 0 0 0 0 0 0 0 0 0 0 0 0 0 0 0 0 0 0 0 0 0 0 0 0 0 0 0 0 0 0 0 0 0 0 0 0 0 0 0 0 0 0 0 0 0 0 0 0 0 0 0 0 0 0 0 0 0 0 0 0 0 0 0 0 0 0 0 0 0 0 0 0 0"
         style="fill:none;fill-rule:evenodd"
         id="path189" />
      <path
         inkscape:connector-curvature="0"
         d="m 268.25,144.5 -0.1936,4.8663 -0.5797,4.8356 -0.962,4.7742 -1.3382,4.6827 -1.7061,4.5616 -2.0631,4.4116 -2.4071,4.2337 -2.7358,4.0291 -3.0473,3.799 -3.3395,3.5449 -3.6106,3.2684 -3.8589,2.9712 -4.0827,2.6552 -4.2807,2.3224 -4.4518,1.975 -4.5946,1.615 -4.7084,1.2449 -4.7923,0.8669 -4.8462,0.4834 -4.8692,0.0968 -4.8615,-0.2903 -4.8231,-0.6757 -4.7541,-1.0567 -4.6552,-1.4311 -4.5267,-1.7965 -4.3697,-2.1504 -4.1851,-2.4907 -3.9739,-2.8155 -3.7377,-3.1222 -3.4778,-3.4093 -3.1959,-3.6749 -2.8939,-3.9171 -2.5735,-4.1347 -2.2368,-4.3261 -1.8861,-4.4902 -1.5234,-4.6258 -1.151,-4.7321 -0.7714,-4.8087 -0.387,-4.8548 v -4.8702 l 0.387,-4.8548 0.7714,-4.8087 1.151,-4.7321 1.5234,-4.6258 1.8861,-4.4902 2.2368,-4.3261 2.5735,-4.1347 2.8939,-3.9171 3.1959,-3.6749 3.4778,-3.4093 3.7377,-3.1222 3.9739,-2.8155 4.1851,-2.4907 4.3697,-2.1504 4.5267,-1.7965 4.6552,-1.4311 4.7541,-1.0567 4.8231,-0.6757 4.8615,-0.2903 4.8692,0.0968 4.8462,0.4834 4.7923,0.8669 4.7084,1.2449 4.5946,1.615 4.4518,1.975 4.2807,2.3224 4.0827,2.6552 3.8589,2.9712 3.6106,3.2684 3.3395,3.5449 3.0473,3.799 2.7358,4.0291 2.4071,4.2337 2.0631,4.4116 1.7061,4.5616 1.3382,4.6827 0.962,4.7742 0.5797,4.8356 0.1936,4.8663"
         style="fill:none;fill-rule:evenodd"
         id="path191" />
      <path
         inkscape:connector-curvature="0"
         d="m 329.5,144.5 -0.3872,9.7327 -1.1593,9.6711 -1.924,9.5484 -2.6765,9.3654 -3.4122,9.1231 -4.1262,8.8232 -4.8141,8.4675 -5.4717,8.0582 -6.0946,7.598 -6.679,7.0898 -7.2212,6.5368 -7.7177,5.9423 -8.1655,5.3104 -8.5615,4.6449 -8.9035,3.9499 -9.1891,3.2301 -9.4168,2.4898 -9.5848,1.7338 -9.6922,0.9667 -9.7385,0.1937 -9.723,-0.5807 -9.6461,-1.3513 -9.5083,-2.1135 -9.3104,-2.8622 -9.0534,-3.5928 -8.7395,-4.3008 -8.3701,-4.9816 -7.9478,-5.6308 -7.4754,-6.2445 -6.9556,-6.8186 -6.3918,-7.3498 -5.7877,-7.8343 -5.147,-8.2694 -4.4737,-8.6522 -3.7722,-8.9802 -3.0467,-9.2516 -2.3021,-9.4644 -1.5429,-9.6174 -0.7739,-9.7095 v -9.7404 l 0.7739,-9.7095 1.5429,-9.6174 2.3021,-9.4644 3.0467,-9.2516 3.7722,-8.9802 4.4737,-8.6522 5.147,-8.2694 5.7877,-7.8343 6.3918,-7.3498 6.9556,-6.8186 7.4754,-6.2445 7.9478,-5.6308 8.3701,-4.9816 8.7395,-4.3008 9.0534,-3.5928 9.3104,-2.8622 9.5083,-2.1135 9.6461,-1.3513 9.723,-0.5807 9.7385,0.1937 9.6922,0.9667 9.5848,1.7338 9.4168,2.4898 9.1891,3.2301 8.9035,3.9499 8.5615,4.6449 8.1655,5.3104 7.7177,5.9423 7.2212,6.5368 6.679,7.0898 6.0946,7.598 5.4717,8.0582 4.8141,8.4675 4.1262,8.8232 3.4122,9.1231 2.6765,9.3654 1.924,9.5484 1.1593,9.6711 0.3872,9.7327"
         style="fill:none;fill-rule:evenodd"
         id="path193" />
      <path
         inkscape:connector-curvature="0"
         d="m 329.5,144.5 -0.3872,-9.7327 -1.1593,-9.6711 -1.924,-9.5484 -2.6765,-9.3654 -3.4122,-9.1231 -4.1262,-8.8232 -4.8141,-8.4675 -5.4717,-8.0582 -6.0946,-7.598 -6.679,-7.0898 -7.2212,-6.5368 -7.7177,-5.9423 -8.1655,-5.3104 -8.5615,-4.6449 -8.9035,-3.9499 -9.1891,-3.2301 -9.4168,-2.4898 -9.5848,-1.7338 -9.6922,-0.9667 -9.7385,-0.1937 -9.723,0.5807 -9.6461,1.3513 -9.5083,2.1135 -9.3104,2.8622 -9.0534,3.5928 -8.7395,4.3008 -8.3701,4.9816 -7.9478,5.6308 -7.4754,6.2445 -6.9556,6.8186 -6.3918,7.3498 -5.7877,7.8343 -5.147,8.2694 -4.4737,8.6522 -3.7722,8.9802 -3.0467,9.2516 -2.3021,9.4644 -1.5429,9.6174 -0.7739,9.7095 v 9.7404 l 0.7739,9.7095 1.5429,9.6174 2.3021,9.4644 3.0467,9.2516 3.7722,8.9802 4.4737,8.6522 5.147,8.2694 5.7877,7.8343 6.3918,7.3498 6.9556,6.8186 7.4754,6.2445 7.9478,5.6308 8.3701,4.9816 8.7395,4.3008 9.0534,3.5928 9.3104,2.8622 9.5083,2.1135 9.6461,1.3513 9.723,0.5807 9.7385,-0.1937 9.6922,-0.9667 9.5848,-1.7338 9.4168,-2.4898 9.1891,-3.2301 8.9035,-3.9499 8.5615,-4.6449 8.1655,-5.3104 7.7177,-5.9423 7.2212,-6.5368 6.679,-7.0898 6.0946,-7.598 5.4717,-8.0582 4.8141,-8.4675 4.1262,-8.8232 3.4122,-9.1231 2.6765,-9.3654 1.924,-9.5484 1.1593,-9.6711 L 329.5,144.5"
         style="fill:none;fill-rule:evenodd;stroke-linecap:square"
         id="path195" />
    </g>
    <path
       style="fill:none;stroke:#000000;stroke-width:2.66700006;stroke-linecap:butt;stroke-linejoin:miter;stroke-opacity:1;stroke-miterlimit:10;stroke-dasharray:2.66700006,2.66700006;stroke-dashoffset:0"
       d="M 207,144.5 169.1768,80.7234"
       id="path951"
       inkscape:connector-curvature="0" />
    <ellipse
       style="fill:none;fill-opacity:1;stroke:#969696;stroke-width:1;stroke-miterlimit:10;stroke-dasharray:1,4;stroke-dashoffset:0;stroke-opacity:1;paint-order:fill markers stroke"
       id="path953"
       cx="207"
       cy="144.5"
       rx="76.116562"
       ry="73.40316" />
    <g
       style="color-interpolation:linearRGB;fill:none;stroke:#be1e3c;stroke-width:2.667;stroke-linecap:butt;stroke-linejoin:round;color-rendering:optimizeQuality;image-rendering:optimizeQuality;text-rendering:geometricPrecision;stroke-opacity:1;stroke-miterlimit:10;stroke-dasharray:none"
       id="g201">
      <path
         inkscape:connector-curvature="0"
         d="m 247.7388,144.5 -0.1876,-1.424 -0.4242,-1.3977 -0.6483,-1.351 -0.8539,-1.2864 -1.0356,-1.2067 -1.1886,-1.1159 -1.3091,-1.0185 -1.3941,-0.9193 -1.4421,-0.8235 -1.4523,-0.7364 -1.4266,-0.6628 -1.3674,-0.6068 -1.2799,-0.5717 -1.1702,-0.5588 -1.0461,-0.5688 -0.9155,-0.5995 -0.7869,-0.6482 -0.6681,-0.7104 -0.565,-0.7808 -0.4825,-0.8541 -0.4228,-0.9257 -0.3866,-0.9913 -0.3721,-1.0485 -0.3766,-1.0961 -0.3969,-1.1342 -0.4289,-1.1637 -0.4696,-1.1863 -0.5162,-1.2035 -0.5671,-1.2166 -0.6215,-1.2257 -0.679,-1.2307 -0.7394,-1.2304 -0.8028,-1.2238 -0.8687,-1.2096 -0.9366,-1.1875 -1.005,-1.1584 -1.0727,-1.1248 -1.1384,-1.0906 -1.2012,-1.0612 -1.2611,-1.0434 -1.3189,-1.0443 -1.3773,-1.0701 -1.4394,-1.1259 -1.5098,-1.2139 -1.5932,-1.3328 -1.6942,-1.4767 -1.8158,-1.6355 -1.9593,-1.7942 -2.1229,-1.9353 -2.3012,-2.0384 -2.4857,-2.0832 -2.6641,-2.0514 -2.8219,-1.9283 -2.9435,-1.7054 -3.0132,-1.3814 -3.0177,-0.9627 -2.947,-0.4635 -2.7964,0.0948 -2.567,0.6856 -2.2663,1.2793 -1.9077,1.8455 -1.5095,2.3562 -1.0935,2.7877 -0.6826,3.1227 -0.2995,3.3516 0.0367,3.473 0.3111,3.493 0.515,3.4246 0.6461,3.2855 0.7086,3.0963 0.7119,2.8779 0.6699,2.6502 0.5985,2.4294 0.5139,2.2281 0.4308,2.0537 0.3615,1.9094 0.3138,1.7947 0.292,1.7055 0.2966,1.6365 0.3243,1.5819 0.3701,1.5354 0.4275,1.4924 0.4899,1.4491 0.5512,1.4036 0.6067,1.3548 0.6531,1.303 0.6889,1.2493 0.7139,1.1947 0.7295,1.1405 0.7369,1.0878 0.7385,1.0373 0.7357,0.9893 0.7294,0.9445 0.7196,0.9028 0.7054,0.8649 0.685,0.8317 0.6562,0.8046 0.6171,0.7855 0.5661,0.7766 0.5032,0.7797 0.4294,0.7968 0.3477,0.8288 0.2621,0.8757 0.1779,0.936 0.1007,1.0074 0.036,1.0862 -0.0115,1.1682 -0.0382,1.2486 -0.0421,1.323 -0.0223,1.3867 0.0202,1.4365 0.0836,1.469 0.1654,1.4825 0.262,1.4752 0.3702,1.4466 0.4865,1.3959 0.6075,1.3233 0.7298,1.2291 0.8505,1.1138 0.9662,0.9787 1.0742,0.8253 1.1716,0.6562 1.2554,0.4747 1.3235,0.2848 1.3739,0.0913 1.4051,-0.1001 1.4169,-0.2841 1.4096,-0.4546 1.3843,-0.6068 1.3433,-0.7358 1.2896,-0.8379 1.2263,-0.9102 1.1576,-0.9507 1.0874,-0.9586 1.02,-0.9342 0.9597,-0.8787 0.9101,-0.795 0.8745,-0.6878 0.8551,-0.5635 0.8526,-0.4306 0.8663,-0.2988 0.8933,-0.179 0.9291,-0.082 0.9672,-0.0175 1.0004,0.008 1.0214,-0.0103 1.0237,-0.0704 1.0028,-0.1674 0.9576,-0.292 0.8894,-0.4319 0.8037,-0.5731 0.7082,-0.7022 0.6127,-0.8076 0.5277,-0.881 0.4624,-0.9183 0.4243,-0.9198 0.4179,-0.8897 0.4444,-0.8352 0.5017,-0.7653 0.5853,-0.6896 0.6888,-0.6167 0.805,-0.5541 0.9266,-0.5069 1.0472,-0.4785 1.161,-0.4707 1.2629,-0.4832 1.3491,-0.5155 1.4156,-0.5657 1.4589,-0.632 1.4757,-0.7115 1.463,-0.8016 1.418,-0.8985 1.3394,-0.9984 1.2266,-1.0968 1.0811,-1.1894 0.9055,-1.2718 0.7042,-1.3399 0.4826,-1.3904 0.2473,-1.4209"
         style="fill:none;fill-rule:evenodd;stroke:#be1e3c;stroke-opacity:1;stroke-width:2.667;stroke-miterlimit:10;stroke-dasharray:none"
         id="path199" />
    </g>
  </g>
  <path
     style="fill:none;fill-opacity:1;stroke:#080808;stroke-width:2.66700006;stroke-miterlimit:10;stroke-dasharray:none;stroke-dashoffset:0;stroke-opacity:1;paint-order:fill markers stroke"
     d="m 154.40393,123.65327 c 3.40123,-2.17207 7.39038,-3.42227 11.65628,-3.42227 12.45018,0 22.54306,9.43828 22.54306,22.57447"
     id="path973"
     inkscape:connector-curvature="0"
     sodipodi:nodetypes="csc" />
  <text
     xml:space="preserve"
     style="font-style:normal;font-weight:normal;font-size:40px;line-height:1.25;font-family:sans-serif;letter-spacing:0px;word-spacing:0px;color-interpolation:auto;fill:#000000;fill-opacity:1;stroke:none;stroke-width:1;stroke-linecap:square;stroke-linejoin:miter;stroke-miterlimit:10;stroke-dasharray:none;stroke-dashoffset:0;stroke-opacity:1;color-rendering:auto;image-rendering:auto;shape-rendering:auto;text-rendering:auto"
     x="290.26819"
     y="150.78944"
     id="text1066"><tspan
       sodipodi:role="line"
       id="tspan1064"
       x="290.26819"
       y="150.78944"
       style="font-size:16px">$\ang{0}$</tspan></text>
  <text
     xml:space="preserve"
     style="font-style:normal;font-weight:normal;font-size:40px;line-height:1.25;font-family:sans-serif;letter-spacing:0px;word-spacing:0px;color-interpolation:auto;fill:#000000;fill-opacity:1;stroke:none;stroke-width:1;stroke-linecap:square;stroke-linejoin:miter;stroke-miterlimit:10;stroke-dasharray:none;stroke-dashoffset:0;stroke-opacity:1;color-rendering:auto;image-rendering:auto;shape-rendering:auto;text-rendering:auto"
     x="34.19606"
     y="242.89812"
     id="text1066-2"><tspan
       sodipodi:role="line"
       id="tspan1064-2"
       x="34.19606"
       y="242.89812"
       style="font-size:16px">$\ang{225}$</tspan></text>
  <text
     xml:space="preserve"
     style="font-style:normal;font-weight:normal;font-size:40px;line-height:1.25;font-family:sans-serif;letter-spacing:0px;word-spacing:0px;color-interpolation:auto;fill:#000000;fill-opacity:1;stroke:none;stroke-width:1;stroke-linecap:square;stroke-linejoin:miter;stroke-miterlimit:10;stroke-dasharray:none;stroke-dashoffset:0;stroke-opacity:1;color-rendering:auto;image-rendering:auto;shape-rendering:auto;text-rendering:auto"
     x="146.58949"
     y="283.81204"
     id="text1066-2-8"><tspan
       sodipodi:role="line"
       id="tspan1064-2-0"
       x="146.58949"
       y="283.81204"
       style="font-size:16px">$\ang{270}$</tspan></text>
  <text
     xml:space="preserve"
     style="font-style:normal;font-weight:normal;font-size:40px;line-height:1.25;font-family:sans-serif;letter-spacing:0px;word-spacing:0px;color-interpolation:auto;fill:#000000;fill-opacity:1;stroke:none;stroke-width:1;stroke-linecap:square;stroke-linejoin:miter;stroke-miterlimit:10;stroke-dasharray:none;stroke-dashoffset:0;stroke-opacity:1;color-rendering:auto;image-rendering:auto;shape-rendering:auto;text-rendering:auto"
     x="252.02248"
     y="246.56905"
     id="text1066-2-8-3"><tspan
       sodipodi:role="line"
       id="tspan1064-2-0-1"
       x="252.02248"
       y="246.56905"
       style="font-size:16px">$\ang{315}$</tspan></text>
  <text
     xml:space="preserve"
     style="font-style:normal;font-weight:normal;font-size:40px;line-height:1.25;font-family:sans-serif;letter-spacing:0px;word-spacing:0px;color-interpolation:auto;fill:#000000;fill-opacity:1;stroke:none;stroke-width:1;stroke-linecap:square;stroke-linejoin:miter;stroke-miterlimit:10;stroke-dasharray:none;stroke-dashoffset:0;stroke-opacity:1;color-rendering:auto;image-rendering:auto;shape-rendering:auto;text-rendering:auto"
     x="37.1754"
     y="53.793152"
     id="text1066-2-8-3-6"><tspan
       sodipodi:role="line"
       id="tspan1064-2-0-1-5"
       x="37.1754"
       y="53.793152"
       style="font-size:16px">$\ang{135}$</tspan></text>
  <text
     xml:space="preserve"
     style="font-style:normal;font-weight:normal;font-size:40px;line-height:1.25;font-family:sans-serif;letter-spacing:0px;word-spacing:0px;color-interpolation:auto;fill:#000000;fill-opacity:1;stroke:none;stroke-width:1;stroke-linecap:square;stroke-linejoin:miter;stroke-miterlimit:10;stroke-dasharray:none;stroke-dashoffset:0;stroke-opacity:1;color-rendering:auto;image-rendering:auto;shape-rendering:auto;text-rendering:auto"
     x="250.21559"
     y="54.549805"
     id="text1066-2-8-3-1"><tspan
       sodipodi:role="line"
       id="tspan1064-2-0-1-8"
       x="250.21559"
       y="54.549805"
       style="font-size:16px">$\ang{45}$</tspan></text>
  <text
     xml:space="preserve"
     style="font-style:normal;font-weight:normal;font-size:40px;line-height:1.25;font-family:sans-serif;letter-spacing:0px;word-spacing:0px;color-interpolation:auto;fill:#000000;fill-opacity:1;stroke:none;stroke-width:1;stroke-linecap:square;stroke-linejoin:miter;stroke-miterlimit:10;stroke-dasharray:none;stroke-dashoffset:0;stroke-opacity:1;color-rendering:auto;image-rendering:auto;shape-rendering:auto;text-rendering:auto"
     x="4.3669567"
     y="148.3445"
     id="text1066-2-8-3-1-0"><tspan
       sodipodi:role="line"
       id="tspan1064-2-0-1-8-0"
       x="4.3669567"
       y="148.3445"
       style="font-size:16px">$\ang{180}$</tspan></text>
  <text
     xml:space="preserve"
     style="font-style:normal;font-weight:normal;font-size:40px;line-height:1.25;font-family:sans-serif;letter-spacing:0px;word-spacing:0px;color-interpolation:auto;fill:#000000;fill-opacity:1;stroke:none;stroke-width:1;stroke-linecap:square;stroke-linejoin:miter;stroke-miterlimit:10;stroke-dasharray:none;stroke-dashoffset:0;stroke-opacity:1;color-rendering:auto;image-rendering:auto;shape-rendering:auto;text-rendering:auto"
     x="150.52583"
     y="17.700197"
     id="text1066-2-8-3-6-7"><tspan
       sodipodi:role="line"
       id="tspan1064-2-0-1-5-6"
       x="150.52583"
       y="17.700197"
       style="font-size:16px">$\ang{90}$</tspan></text>
  <text
     xml:space="preserve"
     style="font-style:normal;font-weight:normal;font-size:16px;line-height:1.25;font-family:sans-serif;letter-spacing:0px;word-spacing:0px;color-interpolation:auto;fill:#000000;fill-opacity:1;stroke:none;stroke-width:1;stroke-linecap:square;stroke-linejoin:miter;stroke-miterlimit:10;stroke-dasharray:none;stroke-dashoffset:0;stroke-opacity:1;color-rendering:auto;image-rendering:auto;shape-rendering:auto;text-rendering:auto"
     x="168.54225"
     y="36.063736"
     id="text1200-1"><tspan
       sodipodi:role="line"
       id="tspan1198-1"
       x="168.54225"
       y="36.063736"
       style="font-size:13.33333302px">$\overline{P}^\text{b} = 1$</tspan></text>
  <text
     xml:space="preserve"
     style="font-style:normal;font-weight:normal;font-size:16px;line-height:1.25;font-family:sans-serif;letter-spacing:0px;word-spacing:0px;color-interpolation:auto;fill:#000000;fill-opacity:1;stroke:none;stroke-width:1;stroke-linecap:square;stroke-linejoin:miter;stroke-miterlimit:10;stroke-dasharray:none;stroke-dashoffset:0;stroke-opacity:1;color-rendering:auto;image-rendering:auto;shape-rendering:auto;text-rendering:auto"
     x="170.45952"
     y="88.953278"
     id="text1200-4"><tspan
       sodipodi:role="line"
       id="tspan1198-3"
       x="170.45952"
       y="88.953278"
       style="font-size:13.33333302px">$\overline{P}^\text{b} = 0.5$</tspan></text>
  <text
     xml:space="preserve"
     style="font-style:normal;font-weight:normal;font-size:16px;line-height:1.25;font-family:sans-serif;letter-spacing:0px;word-spacing:0px;color-interpolation:auto;fill:#000000;fill-opacity:1;stroke:none;stroke-width:1;stroke-linecap:square;stroke-linejoin:miter;stroke-miterlimit:10;stroke-dasharray:none;stroke-dashoffset:0;stroke-opacity:1;color-rendering:auto;image-rendering:auto;shape-rendering:auto;text-rendering:auto"
     x="164.85577"
     y="136.30916"
     id="text1200-4-0"><tspan
       sodipodi:role="line"
       id="tspan1198-3-7"
       x="164.85577"
       y="136.30916"
       style="font-size:13.33333302px">$\hat{\varphi}$</tspan></text>
</svg>
