<?xml version="1.0" encoding="UTF-8" standalone="no"?>
<svg
   xmlns:dc="http://purl.org/dc/elements/1.1/"
   xmlns:cc="http://creativecommons.org/ns#"
   xmlns:rdf="http://www.w3.org/1999/02/22-rdf-syntax-ns#"
   xmlns:svg="http://www.w3.org/2000/svg"
   xmlns="http://www.w3.org/2000/svg"
   xmlns:sodipodi="http://sodipodi.sourceforge.net/DTD/sodipodi-0.dtd"
   xmlns:inkscape="http://www.inkscape.org/namespaces/inkscape"
   style="fill-opacity:1; color-rendering:auto; color-interpolation:auto; stroke:black; text-rendering:auto; stroke-linecap:square; stroke-miterlimit:10; stroke-opacity:1; shape-rendering:auto; fill:black; stroke-dasharray:none; font-weight:normal; stroke-width:1; font-family:'Dialog'; font-style:normal; stroke-linejoin:miter; font-size:12px; stroke-dashoffset:0; image-rendering:auto;"
   width="400"
   height="300"
   version="1.1"
   id="svg205"
   sodipodi:docname="polar_conf_high.svg"
   inkscape:version="0.92.2 (5c3e80d, 2017-08-06)">
  <metadata
     id="metadata209">
    <rdf:RDF>
      <cc:Work
         rdf:about="">
        <dc:format>image/svg+xml</dc:format>
        <dc:type
           rdf:resource="http://purl.org/dc/dcmitype/StillImage" />
        <dc:title />
      </cc:Work>
    </rdf:RDF>
  </metadata>
  <sodipodi:namedview
     pagecolor="#ffffff"
     bordercolor="#666666"
     borderopacity="1"
     objecttolerance="10"
     gridtolerance="10"
     guidetolerance="10"
     inkscape:pageopacity="0"
     inkscape:pageshadow="2"
     inkscape:window-width="1280"
     inkscape:window-height="961"
     id="namedview207"
     showgrid="false"
     inkscape:zoom="2.8699999"
     inkscape:cx="255.55058"
     inkscape:cy="139.34888"
     inkscape:window-x="-8"
     inkscape:window-y="1"
     inkscape:window-maximized="1"
     inkscape:current-layer="svg205" />
  <!--Generated by the Batik Graphics2D SVG Generator-->
  <defs
     id="genericDefs">
    <clipPath
       clipPathUnits="userSpaceOnUse"
       id="clipPath1-1">
      <path
         inkscape:connector-curvature="0"
         d="M 0,0 H 400 V 300 H 0 Z"
         id="path3-9" />
    </clipPath>
    <clipPath
       clipPathUnits="userSpaceOnUse"
       id="clipPath1212">
      <path
         inkscape:connector-curvature="0"
         d="M 0,0 H 400 V 300 H 0 Z"
         id="path1210" />
    </clipPath>
  </defs>
  <g
     id="g203">
    <defs
       id="defs1">
      <clipPath
         clipPathUnits="userSpaceOnUse"
         id="clipPath1">
        <path
           d="M0 0 L400 0 L400 300 L0 300 L0 0 Z"
           id="path3" />
      </clipPath>
    </defs>
    <g
       style="fill:white; stroke:white;"
       id="g9">
      <rect
         x="0"
         y="0"
         width="400"
         style="clip-path:url(#clipPath1); stroke:none;"
         height="300"
         clip-path="url(#clipPath1)"
         id="rect7" />
    </g>
    <g
       style="fill:white; text-rendering:optimizeSpeed; color-rendering:optimizeSpeed; image-rendering:optimizeSpeed; shape-rendering:crispEdges; color-interpolation:sRGB; stroke:white;"
       id="g171">
      <rect
         x="0"
         width="400"
         height="300"
         y="0"
         style="stroke:none;"
         id="rect11" />
      <path
         style="stroke:none;"
         d="M207 144.5 L329.5 144.5 L329.1128 134.7673 L207 144.5 Z"
         id="path13" />
      <path
         style="stroke:none;"
         d="M207 144.5 L329.1128 134.7673 L327.9535 125.0962 L207 144.5 Z"
         id="path15" />
      <path
         style="stroke:none;"
         d="M207 144.5 L327.9535 125.0962 L326.0295 115.5478 L207 144.5 Z"
         id="path17" />
      <path
         style="stroke:none;"
         d="M207 144.5 L326.0295 115.5478 L323.353 106.1824 L207 144.5 Z"
         id="path19" />
      <path
         style="stroke:none;"
         d="M207 144.5 L323.353 106.1824 L319.9408 97.0593 L207 144.5 Z"
         id="path21" />
      <path
         style="stroke:none;"
         d="M207 144.5 L319.9408 97.0593 L315.8146 88.2361 L207 144.5 Z"
         id="path23" />
      <path
         style="stroke:none;"
         d="M207 144.5 L315.8146 88.2361 L311.0005 79.7686 L207 144.5 Z"
         id="path25" />
      <path
         style="stroke:none;"
         d="M207 144.5 L311.0005 79.7686 L305.5288 71.7104 L207 144.5 Z"
         id="path27" />
      <path
         style="stroke:none;"
         d="M207 144.5 L305.5288 71.7104 L299.4342 64.1124 L207 144.5 Z"
         id="path29" />
      <path
         style="stroke:none;"
         d="M207 144.5 L299.4342 64.1124 L292.7552 57.0226 L207 144.5 Z"
         id="path31" />
      <path
         style="stroke:none;"
         d="M207 144.5 L292.7552 57.0226 L285.534 50.4858 L207 144.5 Z"
         id="path33" />
      <path
         style="stroke:none;"
         d="M207 144.5 L285.534 50.4858 L277.8163 44.5435 L207 144.5 Z"
         id="path35" />
      <path
         style="stroke:none;"
         d="M207 144.5 L277.8163 44.5435 L269.6508 39.2331 L207 144.5 Z"
         id="path37" />
      <path
         style="stroke:none;"
         d="M207 144.5 L269.6508 39.2331 L261.0893 34.5882 L207 144.5 Z"
         id="path39" />
      <path
         style="stroke:none;"
         d="M207 144.5 L261.0893 34.5882 L252.1858 30.6383 L207 144.5 Z"
         id="path41" />
      <path
         style="stroke:none;"
         d="M207 144.5 L252.1858 30.6383 L242.9967 27.4082 L207 144.5 Z"
         id="path43" />
      <path
         style="stroke:none;"
         d="M207 144.5 L242.9967 27.4082 L233.5799 24.9184 L207 144.5 Z"
         id="path45" />
      <path
         style="stroke:none;"
         d="M207 144.5 L233.5799 24.9184 L223.9951 23.1846 L207 144.5 Z"
         id="path47" />
      <path
         style="stroke:none;"
         d="M207 144.5 L223.9951 23.1846 L214.3029 22.2179 L207 144.5 Z"
         id="path49" />
      <path
         style="stroke:none;"
         d="M207 144.5 L214.3029 22.2179 L204.5644 22.0242 L207 144.5 Z"
         id="path51" />
      <path
         style="stroke:none;"
         d="M207 144.5 L204.5644 22.0242 L194.8414 22.6049 L207 144.5 Z"
         id="path53" />
      <path
         style="stroke:none;"
         d="M207 144.5 L194.8414 22.6049 L185.1953 23.9562 L207 144.5 Z"
         id="path55" />
      <path
         style="stroke:none;"
         d="M207 144.5 L185.1953 23.9562 L175.687 26.0697 L207 144.5 Z"
         id="path57" />
      <path
         style="stroke:none;"
         d="M207 144.5 L175.687 26.0697 L166.3766 28.9319 L207 144.5 Z"
         id="path59" />
      <path
         style="stroke:none;"
         d="M207 144.5 L166.3766 28.9319 L157.3232 32.5247 L207 144.5 Z"
         id="path61" />
      <path
         style="stroke:none;"
         d="M207 144.5 L157.3232 32.5247 L148.5837 36.8255 L207 144.5 Z"
         id="path63" />
      <path
         style="stroke:none;"
         d="M207 144.5 L148.5837 36.8255 L140.2136 41.8071 L207 144.5 Z"
         id="path65" />
      <path
         style="stroke:none;"
         d="M207 144.5 L140.2136 41.8071 L132.2658 47.4379 L207 144.5 Z"
         id="path67" />
      <path
         style="stroke:none;"
         d="M207 144.5 L132.2658 47.4379 L124.7904 53.6824 L207 144.5 Z"
         id="path69" />
      <path
         style="stroke:none;"
         d="M207 144.5 L124.7904 53.6824 L117.8348 60.501 L207 144.5 Z"
         id="path71" />
      <path
         style="stroke:none;"
         d="M207 144.5 L117.8348 60.501 L111.443 67.8508 L207 144.5 Z"
         id="path73" />
      <path
         style="stroke:none;"
         d="M207 144.5 L111.443 67.8508 L105.6553 75.6851 L207 144.5 Z"
         id="path75" />
      <path
         style="stroke:none;"
         d="M207 144.5 L105.6553 75.6851 L100.5083 83.9545 L207 144.5 Z"
         id="path77" />
      <path
         style="stroke:none;"
         d="M207 144.5 L100.5083 83.9545 L96.0346 92.6067 L207 144.5 Z"
         id="path79" />
      <path
         style="stroke:none;"
         d="M207 144.5 L96.0346 92.6067 L92.2624 101.5869 L207 144.5 Z"
         id="path81" />
      <path
         style="stroke:none;"
         d="M207 144.5 L92.2624 101.5869 L89.2157 110.8385 L207 144.5 Z"
         id="path83" />
      <path
         style="stroke:none;"
         d="M207 144.5 L89.2157 110.8385 L86.9136 120.3029 L207 144.5 Z"
         id="path85" />
      <path
         style="stroke:none;"
         d="M207 144.5 L86.9136 120.3029 L85.3707 129.9203 L207 144.5 Z"
         id="path87" />
      <path
         style="stroke:none;"
         d="M207 144.5 L85.3707 129.9203 L84.5968 139.6298 L207 144.5 Z"
         id="path89" />
      <path
         style="stroke:none;"
         d="M207 144.5 L84.5968 139.6298 L84.5968 149.3702 L207 144.5 Z"
         id="path91" />
      <path
         style="stroke:none;"
         d="M207 144.5 L84.5968 149.3702 L85.3707 159.0797 L207 144.5 Z"
         id="path93" />
      <path
         style="stroke:none;"
         d="M207 144.5 L85.3707 159.0797 L86.9136 168.6971 L207 144.5 Z"
         id="path95" />
      <path
         style="stroke:none;"
         d="M207 144.5 L86.9136 168.6971 L89.2157 178.1615 L207 144.5 Z"
         id="path97" />
      <path
         style="stroke:none;"
         d="M207 144.5 L89.2157 178.1615 L92.2624 187.4131 L207 144.5 Z"
         id="path99" />
      <path
         style="stroke:none;"
         d="M207 144.5 L92.2624 187.4131 L96.0346 196.3933 L207 144.5 Z"
         id="path101" />
      <path
         style="stroke:none;"
         d="M207 144.5 L96.0346 196.3933 L100.5083 205.0455 L207 144.5 Z"
         id="path103" />
      <path
         style="stroke:none;"
         d="M207 144.5 L100.5083 205.0455 L105.6553 213.3149 L207 144.5 Z"
         id="path105" />
      <path
         style="stroke:none;"
         d="M207 144.5 L105.6553 213.3149 L111.443 221.1492 L207 144.5 Z"
         id="path107" />
      <path
         style="stroke:none;"
         d="M207 144.5 L111.443 221.1492 L117.8348 228.499 L207 144.5 Z"
         id="path109" />
      <path
         style="stroke:none;"
         d="M207 144.5 L117.8348 228.499 L124.7904 235.3176 L207 144.5 Z"
         id="path111" />
      <path
         style="stroke:none;"
         d="M207 144.5 L124.7904 235.3176 L132.2658 241.5621 L207 144.5 Z"
         id="path113" />
      <path
         style="stroke:none;"
         d="M207 144.5 L132.2658 241.5621 L140.2136 247.1929 L207 144.5 Z"
         id="path115" />
      <path
         style="stroke:none;"
         d="M207 144.5 L140.2136 247.1929 L148.5837 252.1745 L207 144.5 Z"
         id="path117" />
      <path
         style="stroke:none;"
         d="M207 144.5 L148.5837 252.1745 L157.3232 256.4753 L207 144.5 Z"
         id="path119" />
      <path
         style="stroke:none;"
         d="M207 144.5 L157.3232 256.4753 L166.3766 260.0681 L207 144.5 Z"
         id="path121" />
      <path
         style="stroke:none;"
         d="M207 144.5 L166.3766 260.0681 L175.687 262.9303 L207 144.5 Z"
         id="path123" />
      <path
         style="stroke:none;"
         d="M207 144.5 L175.687 262.9303 L185.1953 265.0438 L207 144.5 Z"
         id="path125" />
      <path
         style="stroke:none;"
         d="M207 144.5 L185.1953 265.0438 L194.8414 266.3951 L207 144.5 Z"
         id="path127" />
      <path
         style="stroke:none;"
         d="M207 144.5 L194.8414 266.3951 L204.5644 266.9758 L207 144.5 Z"
         id="path129" />
      <path
         style="stroke:none;"
         d="M207 144.5 L204.5644 266.9758 L214.3029 266.7821 L207 144.5 Z"
         id="path131" />
      <path
         style="stroke:none;"
         d="M207 144.5 L214.3029 266.7821 L223.9951 265.8154 L207 144.5 Z"
         id="path133" />
      <path
         style="stroke:none;"
         d="M207 144.5 L223.9951 265.8154 L233.5799 264.0816 L207 144.5 Z"
         id="path135" />
      <path
         style="stroke:none;"
         d="M207 144.5 L233.5799 264.0816 L242.9967 261.5918 L207 144.5 Z"
         id="path137" />
      <path
         style="stroke:none;"
         d="M207 144.5 L242.9967 261.5918 L252.1858 258.3617 L207 144.5 Z"
         id="path139" />
      <path
         style="stroke:none;"
         d="M207 144.5 L252.1858 258.3617 L261.0893 254.4118 L207 144.5 Z"
         id="path141" />
      <path
         style="stroke:none;"
         d="M207 144.5 L261.0893 254.4118 L269.6508 249.7669 L207 144.5 Z"
         id="path143" />
      <path
         style="stroke:none;"
         d="M207 144.5 L269.6508 249.7669 L277.8163 244.4565 L207 144.5 Z"
         id="path145" />
      <path
         style="stroke:none;"
         d="M207 144.5 L277.8163 244.4565 L285.534 238.5142 L207 144.5 Z"
         id="path147" />
      <path
         style="stroke:none;"
         d="M207 144.5 L285.534 238.5142 L292.7552 231.9774 L207 144.5 Z"
         id="path149" />
      <path
         style="stroke:none;"
         d="M207 144.5 L292.7552 231.9774 L299.4342 224.8876 L207 144.5 Z"
         id="path151" />
      <path
         style="stroke:none;"
         d="M207 144.5 L299.4342 224.8876 L305.5288 217.2896 L207 144.5 Z"
         id="path153" />
      <path
         style="stroke:none;"
         d="M207 144.5 L305.5288 217.2896 L311.0005 209.2314 L207 144.5 Z"
         id="path155" />
      <path
         style="stroke:none;"
         d="M207 144.5 L311.0005 209.2314 L315.8146 200.7639 L207 144.5 Z"
         id="path157" />
      <path
         style="stroke:none;"
         d="M207 144.5 L315.8146 200.7639 L319.9408 191.9407 L207 144.5 Z"
         id="path159" />
      <path
         style="stroke:none;"
         d="M207 144.5 L319.9408 191.9407 L323.353 182.8176 L207 144.5 Z"
         id="path161" />
      <path
         style="stroke:none;"
         d="M207 144.5 L323.353 182.8176 L326.0295 173.4522 L207 144.5 Z"
         id="path163" />
      <path
         style="stroke:none;"
         d="M207 144.5 L326.0295 173.4522 L327.9535 163.9038 L207 144.5 Z"
         id="path165" />
      <path
         style="stroke:none;"
         d="M207 144.5 L327.9535 163.9038 L329.1128 154.2327 L207 144.5 Z"
         id="path167" />
      <path
         style="stroke:none;"
         d="M207 144.5 L329.1128 154.2327 L329.5 144.5 L207 144.5 Z"
         id="path169" />
    </g>
    <g
       style="stroke-linecap:butt; fill-opacity:0.149; fill:rgb(38,38,38); text-rendering:geometricPrecision; color-rendering:optimizeQuality; image-rendering:optimizeQuality; stroke-linejoin:round; color-interpolation:linearRGB; stroke:rgb(38,38,38); stroke-width:0.6667; stroke-opacity:0.149;"
       id="g197">
      <line
         y2="144.5"
         style="fill:none;"
         x1="207"
         x2="329.5"
         y1="144.5"
         id="line173" />
      <line
         y2="57.8794"
         style="fill:none;"
         x1="207"
         x2="293.6206"
         y1="144.5"
         id="line175" />
      <line
         y2="22"
         style="fill:none;"
         x1="207"
         x2="207"
         y1="144.5"
         id="line177" />
      <line
         y2="57.8794"
         style="fill:none;"
         x1="207"
         x2="120.3794"
         y1="144.5"
         id="line179" />
      <line
         y2="144.5"
         style="fill:none;"
         x1="207"
         x2="84.5"
         y1="144.5"
         id="line181" />
      <line
         y2="231.1206"
         style="fill:none;"
         x1="207"
         x2="120.3794"
         y1="144.5"
         id="line183" />
      <line
         y2="267"
         style="fill:none;"
         x1="207"
         x2="207"
         y1="144.5"
         id="line185" />
      <line
         y2="231.1206"
         style="fill:none;"
         x1="207"
         x2="293.6206"
         y1="144.5"
         id="line187" />
      <path
         d="M207 144.5 L207 144.5 L207 144.5 L207 144.5 L207 144.5 L207 144.5 L207 144.5 L207 144.5 L207 144.5 L207 144.5 L207 144.5 L207 144.5 L207 144.5 L207 144.5 L207 144.5 L207 144.5 L207 144.5 L207 144.5 L207 144.5 L207 144.5 L207 144.5 L207 144.5 L207 144.5 L207 144.5 L207 144.5 L207 144.5 L207 144.5 L207 144.5 L207 144.5 L207 144.5 L207 144.5 L207 144.5 L207 144.5 L207 144.5 L207 144.5 L207 144.5 L207 144.5 L207 144.5 L207 144.5 L207 144.5 L207 144.5 L207 144.5 L207 144.5 L207 144.5 L207 144.5 L207 144.5 L207 144.5 L207 144.5 L207 144.5 L207 144.5 L207 144.5 L207 144.5 L207 144.5 L207 144.5 L207 144.5 L207 144.5 L207 144.5 L207 144.5 L207 144.5 L207 144.5 L207 144.5 L207 144.5 L207 144.5 L207 144.5 L207 144.5 L207 144.5 L207 144.5 L207 144.5 L207 144.5 L207 144.5 L207 144.5 L207 144.5 L207 144.5 L207 144.5 L207 144.5 L207 144.5 L207 144.5 L207 144.5 L207 144.5 L207 144.5"
         style="fill:none; fill-rule:evenodd;"
         id="path189" />
      <path
         d="M268.25 144.5 L268.0564 149.3663 L267.4767 154.2019 L266.5147 158.9761 L265.1765 163.6588 L263.4704 168.2204 L261.4073 172.632 L259.0002 176.8657 L256.2644 180.8948 L253.2171 184.6938 L249.8776 188.2387 L246.267 191.5071 L242.4081 194.4783 L238.3254 197.1335 L234.0447 199.4559 L229.5929 201.4309 L224.9983 203.0459 L220.2899 204.2908 L215.4976 205.1577 L210.6514 205.6411 L205.7822 205.7379 L200.9207 205.4476 L196.0976 204.7719 L191.3435 203.7152 L186.6883 202.2841 L182.1616 200.4876 L177.7919 198.3372 L173.6068 195.8465 L169.6329 193.031 L165.8952 189.9088 L162.4174 186.4995 L159.2215 182.8246 L156.3276 178.9075 L153.7541 174.7728 L151.5173 170.4467 L149.6312 165.9565 L148.1078 161.3307 L146.9568 156.5986 L146.1854 151.7899 L145.7984 146.9351 L145.7984 142.0649 L146.1854 137.2101 L146.9568 132.4014 L148.1078 127.6693 L149.6312 123.0435 L151.5173 118.5533 L153.7541 114.2272 L156.3276 110.0925 L159.2215 106.1754 L162.4174 102.5005 L165.8952 99.0912 L169.6329 95.969 L173.6068 93.1535 L177.7919 90.6628 L182.1616 88.5124 L186.6883 86.7159 L191.3435 85.2848 L196.0976 84.2281 L200.9207 83.5524 L205.7822 83.2621 L210.6514 83.3589 L215.4976 83.8423 L220.2899 84.7092 L224.9983 85.9541 L229.5929 87.5691 L234.0447 89.5441 L238.3254 91.8665 L242.4081 94.5217 L246.267 97.4929 L249.8776 100.7613 L253.2171 104.3062 L256.2644 108.1052 L259.0002 112.1343 L261.4073 116.368 L263.4704 120.7796 L265.1765 125.3412 L266.5147 130.0239 L267.4767 134.7981 L268.0564 139.6337 L268.25 144.5"
         style="fill:none; fill-rule:evenodd;"
         id="path191" />
      <path
         d="M329.5 144.5 L329.1128 154.2327 L327.9535 163.9038 L326.0295 173.4522 L323.353 182.8176 L319.9408 191.9407 L315.8146 200.7639 L311.0005 209.2314 L305.5288 217.2896 L299.4342 224.8876 L292.7552 231.9774 L285.534 238.5142 L277.8163 244.4565 L269.6508 249.7669 L261.0893 254.4118 L252.1858 258.3617 L242.9967 261.5918 L233.5799 264.0816 L223.9951 265.8154 L214.3029 266.7821 L204.5644 266.9758 L194.8414 266.3951 L185.1953 265.0438 L175.687 262.9303 L166.3766 260.0681 L157.3232 256.4753 L148.5837 252.1745 L140.2136 247.1929 L132.2658 241.5621 L124.7904 235.3176 L117.8348 228.499 L111.443 221.1492 L105.6553 213.3149 L100.5083 205.0455 L96.0346 196.3933 L92.2624 187.4131 L89.2157 178.1615 L86.9136 168.6971 L85.3707 159.0797 L84.5968 149.3702 L84.5968 139.6298 L85.3707 129.9203 L86.9136 120.3029 L89.2157 110.8385 L92.2624 101.5869 L96.0346 92.6067 L100.5083 83.9545 L105.6553 75.6851 L111.443 67.8508 L117.8348 60.501 L124.7904 53.6824 L132.2658 47.4379 L140.2136 41.8071 L148.5837 36.8255 L157.3232 32.5247 L166.3766 28.9319 L175.687 26.0697 L185.1953 23.9562 L194.8414 22.6049 L204.5644 22.0242 L214.3029 22.2179 L223.9951 23.1846 L233.5799 24.9184 L242.9967 27.4082 L252.1858 30.6383 L261.0893 34.5882 L269.6508 39.2331 L277.8163 44.5435 L285.534 50.4858 L292.7552 57.0226 L299.4342 64.1124 L305.5288 71.7104 L311.0005 79.7686 L315.8146 88.2361 L319.9408 97.0593 L323.353 106.1824 L326.0295 115.5478 L327.9535 125.0962 L329.1128 134.7673 L329.5 144.5"
         style="fill:none; fill-rule:evenodd;"
         id="path193" />
      <path
         d="M329.5 144.5 L329.1128 134.7673 L327.9535 125.0962 L326.0295 115.5478 L323.353 106.1824 L319.9408 97.0593 L315.8146 88.2361 L311.0005 79.7686 L305.5288 71.7104 L299.4342 64.1124 L292.7552 57.0226 L285.534 50.4858 L277.8163 44.5435 L269.6508 39.2331 L261.0893 34.5882 L252.1858 30.6383 L242.9967 27.4082 L233.5799 24.9184 L223.9951 23.1846 L214.3029 22.2179 L204.5644 22.0242 L194.8414 22.6049 L185.1953 23.9562 L175.687 26.0697 L166.3766 28.9319 L157.3232 32.5247 L148.5837 36.8255 L140.2136 41.8071 L132.2658 47.4379 L124.7904 53.6824 L117.8348 60.501 L111.443 67.8508 L105.6553 75.6851 L100.5083 83.9545 L96.0346 92.6067 L92.2624 101.5869 L89.2157 110.8385 L86.9136 120.3029 L85.3707 129.9203 L84.5968 139.6298 L84.5968 149.3702 L85.3707 159.0797 L86.9136 168.6971 L89.2157 178.1615 L92.2624 187.4131 L96.0346 196.3933 L100.5083 205.0455 L105.6553 213.3149 L111.443 221.1492 L117.8348 228.499 L124.7904 235.3176 L132.2658 241.5621 L140.2136 247.1929 L148.5837 252.1745 L157.3232 256.4753 L166.3766 260.0681 L175.687 262.9303 L185.1953 265.0438 L194.8414 266.3951 L204.5644 266.9758 L214.3029 266.7821 L223.9951 265.8154 L233.5799 264.0816 L242.9967 261.5918 L252.1858 258.3617 L261.0893 254.4118 L269.6508 249.7669 L277.8163 244.4565 L285.534 238.5142 L292.7552 231.9774 L299.4342 224.8876 L305.5288 217.2896 L311.0005 209.2314 L315.8146 200.7639 L319.9408 191.9407 L323.353 182.8176 L326.0295 173.4522 L327.9535 163.9038 L329.1128 154.2327 L329.5 144.5"
         style="fill:none; fill-rule:evenodd; stroke-linecap:square;"
         id="path195" />
    </g>
    <g
       style="stroke-linecap:butt; fill:rgb(0,114,189); text-rendering:geometricPrecision; color-rendering:optimizeQuality; image-rendering:optimizeQuality; stroke-linejoin:round; color-interpolation:linearRGB; stroke:rgb(0,114,189); stroke-width:2.6667;"
       id="g201">
      <path
         d="M233.3895 144.5 L233.6368 143.5646 L233.9485 142.605 L234.2857 141.616 L234.5985 140.5993 L234.833 139.5643 L234.9384 138.5273 L234.8748 137.5096 L234.6187 136.5338 L234.1667 135.6203 L233.5365 134.7829 L232.7639 134.0264 L231.8983 133.3447 L230.9957 132.7211 L230.1116 132.1303 L229.2942 131.5414 L228.5787 130.9223 L227.9848 130.2442 L227.5157 129.4841 L227.1604 128.6283 L226.897 127.6717 L226.6977 126.6175 L226.5337 125.4739 L226.3795 124.251 L226.2162 122.9564 L226.0323 121.5923 L225.8241 120.1529 L225.5929 118.6237 L225.3427 116.9829 L225.0767 115.2039 L224.7936 113.2599 L224.4855 111.1295 L224.1362 108.8019 L223.7218 106.2823 L223.2117 103.5958 L222.5723 100.7895 L221.7702 97.9321 L220.7772 95.1111 L219.574 92.4277 L218.1539 89.9896 L216.5251 87.9026 L214.7105 86.2618 L212.7475 85.1439 L210.6841 84.6005 L208.5759 84.6539 L206.4805 85.2958 L204.453 86.4886 L202.5418 88.169 L200.7846 90.2539 L199.2066 92.6474 L197.8195 95.2477 L196.6216 97.9546 L195.6001 100.6755 L194.7327 103.3298 L193.9913 105.8528 L193.3443 108.1974 L192.7603 110.3345 L192.2106 112.2521 L191.6712 113.9532 L191.1244 115.4535 L190.5589 116.7773 L189.9698 117.9539 L189.357 119.0133 L188.7228 119.9828 L188.0695 120.8836 L187.3959 121.7292 L186.6953 122.5248 L185.9538 123.2682 L185.1501 123.9527 L184.2575 124.5701 L183.2467 125.1149 L182.091 125.5884 L180.7721 126.0013 L179.2852 126.3748 L177.644 126.7401 L175.8823 127.136 L174.0545 127.604 L172.2316 128.1839 L170.4952 128.9079 L168.9296 129.7966 L167.6122 130.856 L166.6052 132.0768 L165.9479 133.4357 L165.6527 134.899 L165.704 136.4269 L166.0605 137.979 L166.6612 139.5191 L167.4326 141.0189 L168.2986 142.4604 L169.1885 143.8363 L170.0446 145.1487 L170.8274 146.4063 L171.5176 147.6217 L172.1151 148.8075 L172.6357 149.9737 L173.1059 151.1261 L173.5563 152.2658 L174.0162 153.3897 L174.5087 154.4925 L175.0473 155.5685 L175.6354 156.6135 L176.2677 157.6265 L176.9322 158.6102 L177.6148 159.5701 L178.302 160.5138 L178.9844 161.4489 L179.6584 162.3812 L180.3263 163.3131 L180.9954 164.2434 L181.6756 165.1673 L182.3773 166.0776 L183.1087 166.967 L183.8743 167.8295 L184.6741 168.6626 L185.5039 169.4684 L186.3564 170.2536 L187.2232 171.0288 L188.0966 171.8074 L188.9709 172.603 L189.844 173.428 L190.7172 174.2914 L191.5951 175.1986 L192.4847 176.1504 L193.3946 177.1437 L194.3337 178.1723 L195.3106 179.2276 L196.3331 180.2991 L197.4079 181.3746 L198.5404 182.4397 L199.7348 183.4767 L200.9935 184.4641 L202.3166 185.3757 L203.7012 186.1807 L205.1408 186.8453 L206.6241 187.3341 L208.1353 187.6136 L209.6543 187.6555 L211.1579 187.4403 L212.6215 186.9598 L214.0211 186.2191 L215.3356 185.2369 L216.5488 184.0443 L217.6511 182.6823 L218.6401 181.1991 L219.5209 179.6454 L220.3055 178.0713 L221.0111 176.5225 L221.6591 175.0377 L222.2722 173.6466 L222.8733 172.3686 L223.4825 171.2125 L224.116 170.1768 L224.7841 169.2508 L225.4908 168.4161 L226.2325 167.6487 L226.9995 166.9219 L227.7764 166.2086 L228.5446 165.4847 L229.2843 164.7307 L229.9778 163.9339 L230.6115 163.0886 L231.1776 162.196 L231.6745 161.2624 L232.1064 160.2973 L232.4813 159.3112 L232.8082 158.313 L233.0946 157.3092 L233.3442 156.3031 L233.5555 155.2954 L233.7227 154.2853 L233.8371 153.272 L233.8907 152.2562 L233.8795 151.2408 L233.8064 150.2307 L233.6839 149.2319 L233.5335 148.2502 L233.3841 147.2887 L233.2677 146.3471 L233.2145 145.4205 L233.2466 144.5"
         style="fill:none; fill-rule:evenodd;"
         id="path199" />
    </g>
  </g>
  <text
     xml:space="preserve"
     style="font-style:normal;font-weight:normal;font-size:40px;line-height:1.25;font-family:sans-serif;letter-spacing:0px;word-spacing:0px;color-interpolation:auto;fill:#000000;fill-opacity:1;stroke:none;stroke-width:1;stroke-linecap:square;stroke-linejoin:miter;stroke-miterlimit:10;stroke-dasharray:none;stroke-dashoffset:0;stroke-opacity:1;color-rendering:auto;image-rendering:auto;shape-rendering:auto;text-rendering:auto"
     x="332.31592"
     y="150.78964"
     id="text1066"><tspan
       sodipodi:role="line"
       id="tspan1064"
       x="332.31592"
       y="150.78964"
       style="font-size:16px">$\ang{0}$</tspan></text>
  <text
     xml:space="preserve"
     style="font-style:normal;font-weight:normal;font-size:40px;line-height:1.25;font-family:sans-serif;letter-spacing:0px;word-spacing:0px;color-interpolation:auto;fill:#000000;fill-opacity:1;stroke:none;stroke-width:1;stroke-linecap:square;stroke-linejoin:miter;stroke-miterlimit:10;stroke-dasharray:none;stroke-dashoffset:0;stroke-opacity:1;color-rendering:auto;image-rendering:auto;shape-rendering:auto;text-rendering:auto"
     x="76.243759"
     y="242.89833"
     id="text1066-2"><tspan
       sodipodi:role="line"
       id="tspan1064-2"
       x="76.243759"
       y="242.89833"
       style="font-size:16px">$\ang{225}$</tspan></text>
  <text
     xml:space="preserve"
     style="font-style:normal;font-weight:normal;font-size:40px;line-height:1.25;font-family:sans-serif;letter-spacing:0px;word-spacing:0px;color-interpolation:auto;fill:#000000;fill-opacity:1;stroke:none;stroke-width:1;stroke-linecap:square;stroke-linejoin:miter;stroke-miterlimit:10;stroke-dasharray:none;stroke-dashoffset:0;stroke-opacity:1;color-rendering:auto;image-rendering:auto;shape-rendering:auto;text-rendering:auto"
     x="188.63719"
     y="283.81226"
     id="text1066-2-8"><tspan
       sodipodi:role="line"
       id="tspan1064-2-0"
       x="188.63719"
       y="283.81226"
       style="font-size:16px">$\ang{270}$</tspan></text>
  <text
     xml:space="preserve"
     style="font-style:normal;font-weight:normal;font-size:40px;line-height:1.25;font-family:sans-serif;letter-spacing:0px;word-spacing:0px;color-interpolation:auto;fill:#000000;fill-opacity:1;stroke:none;stroke-width:1;stroke-linecap:square;stroke-linejoin:miter;stroke-miterlimit:10;stroke-dasharray:none;stroke-dashoffset:0;stroke-opacity:1;color-rendering:auto;image-rendering:auto;shape-rendering:auto;text-rendering:auto"
     x="294.07016"
     y="246.56926"
     id="text1066-2-8-3"><tspan
       sodipodi:role="line"
       id="tspan1064-2-0-1"
       x="294.07016"
       y="246.56926"
       style="font-size:16px">$\ang{315}$</tspan></text>
  <text
     xml:space="preserve"
     style="font-style:normal;font-weight:normal;font-size:40px;line-height:1.25;font-family:sans-serif;letter-spacing:0px;word-spacing:0px;color-interpolation:auto;fill:#000000;fill-opacity:1;stroke:none;stroke-width:1;stroke-linecap:square;stroke-linejoin:miter;stroke-miterlimit:10;stroke-dasharray:none;stroke-dashoffset:0;stroke-opacity:1;color-rendering:auto;image-rendering:auto;shape-rendering:auto;text-rendering:auto"
     x="79.223099"
     y="53.793373"
     id="text1066-2-8-3-6"><tspan
       sodipodi:role="line"
       id="tspan1064-2-0-1-5"
       x="79.223099"
       y="53.793373"
       style="font-size:16px">$\ang{135}$</tspan></text>
  <text
     xml:space="preserve"
     style="font-style:normal;font-weight:normal;font-size:40px;line-height:1.25;font-family:sans-serif;letter-spacing:0px;word-spacing:0px;color-interpolation:auto;fill:#000000;fill-opacity:1;stroke:none;stroke-width:1;stroke-linecap:square;stroke-linejoin:miter;stroke-miterlimit:10;stroke-dasharray:none;stroke-dashoffset:0;stroke-opacity:1;color-rendering:auto;image-rendering:auto;shape-rendering:auto;text-rendering:auto"
     x="292.26331"
     y="54.550018"
     id="text1066-2-8-3-1"><tspan
       sodipodi:role="line"
       id="tspan1064-2-0-1-8"
       x="292.26331"
       y="54.550018"
       style="font-size:16px">$\ang{45}$</tspan></text>
  <text
     xml:space="preserve"
     style="font-style:normal;font-weight:normal;font-size:40px;line-height:1.25;font-family:sans-serif;letter-spacing:0px;word-spacing:0px;color-interpolation:auto;fill:#000000;fill-opacity:1;stroke:none;stroke-width:1;stroke-linecap:square;stroke-linejoin:miter;stroke-miterlimit:10;stroke-dasharray:none;stroke-dashoffset:0;stroke-opacity:1;color-rendering:auto;image-rendering:auto;shape-rendering:auto;text-rendering:auto"
     x="46.41465"
     y="148.34473"
     id="text1066-2-8-3-1-0"><tspan
       sodipodi:role="line"
       id="tspan1064-2-0-1-8-0"
       x="46.41465"
       y="148.34473"
       style="font-size:16px">$\ang{180}$</tspan></text>
  <text
     xml:space="preserve"
     style="font-style:normal;font-weight:normal;font-size:40px;line-height:1.25;font-family:sans-serif;letter-spacing:0px;word-spacing:0px;color-interpolation:auto;fill:#000000;fill-opacity:1;stroke:none;stroke-width:1;stroke-linecap:square;stroke-linejoin:miter;stroke-miterlimit:10;stroke-dasharray:none;stroke-dashoffset:0;stroke-opacity:1;color-rendering:auto;image-rendering:auto;shape-rendering:auto;text-rendering:auto"
     x="192.57353"
     y="17.700405"
     id="text1066-2-8-3-6-7"><tspan
       sodipodi:role="line"
       id="tspan1064-2-0-1-5-6"
       x="192.57353"
       y="17.700405"
       style="font-size:16px">$\ang{90}$</tspan></text>
  <text
     xml:space="preserve"
     style="font-style:normal;font-weight:normal;font-size:16px;line-height:1.25;font-family:sans-serif;letter-spacing:0px;word-spacing:0px;color-interpolation:auto;fill:#000000;fill-opacity:1;stroke:none;stroke-width:1;stroke-linecap:square;stroke-linejoin:miter;stroke-miterlimit:10;stroke-dasharray:none;stroke-dashoffset:0;stroke-opacity:1;color-rendering:auto;image-rendering:auto;shape-rendering:auto;text-rendering:auto"
     x="209.7202"
     y="140.46153"
     id="text1200"><tspan
       sodipodi:role="line"
       id="tspan1198"
       x="209.7202"
       y="140.46153"
       style="font-size:13.33333302px">$\overline{P}^\text{b} = 0$</tspan></text>
  <text
     xml:space="preserve"
     style="font-style:normal;font-weight:normal;font-size:16px;line-height:1.25;font-family:sans-serif;letter-spacing:0px;word-spacing:0px;color-interpolation:auto;fill:#000000;fill-opacity:1;stroke:none;stroke-width:1;stroke-linecap:square;stroke-linejoin:miter;stroke-miterlimit:10;stroke-dasharray:none;stroke-dashoffset:0;stroke-opacity:1;color-rendering:auto;image-rendering:auto;shape-rendering:auto;text-rendering:auto"
     x="210.58997"
     y="36.063953"
     id="text1200-1"><tspan
       sodipodi:role="line"
       id="tspan1198-1"
       x="210.58997"
       y="36.063953"
       style="font-size:13.33333302px">$\overline{P}^\text{b} = 1$</tspan></text>
  <text
     xml:space="preserve"
     style="font-style:normal;font-weight:normal;font-size:16px;line-height:1.25;font-family:sans-serif;letter-spacing:0px;word-spacing:0px;color-interpolation:auto;fill:#000000;fill-opacity:1;stroke:none;stroke-width:1;stroke-linecap:square;stroke-linejoin:miter;stroke-miterlimit:10;stroke-dasharray:none;stroke-dashoffset:0;stroke-opacity:1;color-rendering:auto;image-rendering:auto;shape-rendering:auto;text-rendering:auto"
     x="208.50722"
     y="88.953499"
     id="text1200-4"><tspan
       sodipodi:role="line"
       id="tspan1198-3"
       x="208.50722"
       y="88.953499"
       style="font-size:13.33333302px">$\overline{P}^\text{b} = 0.5$</tspan></text>
</svg>
